<svg _ngcontent-motorbikeApp-c41="" x="0px" y="0px" viewBox="0 0 107.6 75.04" xml:space="preserve" class="pointer fill-grey ng-star-inserted" style="enable-background: new 0 0 107.6 75.04;"><g _ngcontent-motorbikeApp-c41=""><path _ngcontent-motorbikeApp-c41="" d="M9.32,11.87c0.14-0.67,0.25-1.35,0.42-2.01c0.96-3.79,3.9-6.36,7.78-6.79c0.8-0.09,1.6-0.14,2.41-0.14
		c22.62-0.01,45.24-0.01,67.86,0.01c1.27,0,2.58,0.14,3.81,0.47c3.68,0.98,6.14,3.96,6.54,7.76c0.09,0.82,0.13,1.65,0.13,2.47
		c0.01,16.27,0.01,32.54,0,48.82c0,0.5-0.03,1.01-0.14,1.5c-0.21,0.96-0.88,1.4-1.88,1.31c-0.95-0.09-1.53-0.62-1.55-1.6
		c-0.06-2.69-0.11-5.38-0.1-8.07c0.02-11.74,0.05-23.49,0.08-35.23c0-0.34,0-0.69,0-1.03c0-1.51-0.16-1.67-1.64-1.67
		c-6.09,0-12.18,0-18.28,0c-20.23,0-40.46,0.01-60.69,0.01c-0.32,0-0.64,0-1.03,0c-0.02,0.3-0.04,0.54-0.04,0.78
		c0,13.63,0,27.26,0.01,40.89c0,0.78,0.05,1.57,0.21,2.33c0.56,2.57,2.4,4.13,5.14,4.27c2.13,0.11,4.27,0.06,6.41,0.13
		c1.33,0.04,2.06,1.18,1.63,2.42c-0.24,0.69-0.79,1.07-1.46,1.08c-2.87,0.07-5.75,0.38-8.58-0.3c-3.9-0.94-6.42-3.86-6.89-7.84
		c-0.03-0.25-0.1-0.49-0.15-0.73C9.32,44.42,9.32,28.15,9.32,11.87z M53.83,13.97c12.99,0,25.98,0,38.96,0c1.87,0,1.87,0,1.79-1.88
		c-0.11-2.68-1.73-4.71-4.31-5.28c-0.8-0.18-1.64-0.21-2.46-0.21c-22.8-0.01-45.61-0.01-68.41-0.01c-0.25,0-0.51,0-0.76,0.01
		c-3.54,0.09-6.03,2.98-5.62,6.48c0.08,0.65,0.28,0.91,1.02,0.91C27.31,13.96,40.57,13.97,53.83,13.97z"></path><path _ngcontent-motorbikeApp-c41="" d="M75.07,70.65c0-6.32,0-12.56,0-18.86c0.18-0.02,0.35-0.06,0.52-0.06c2.62,0,5.24-0.01,7.86,0.01
		c1.37,0.01,2.62,0.42,3.7,1.3c2.21,1.81,2.4,5.54-0.01,7.19c-0.05,0.03-0.08,0.09-0.16,0.18c1.36,0.74,2.26,1.84,2.48,3.37
		c0.54,3.78-1.24,6.22-4.74,6.66c-1.86,0.24-3.76,0.16-5.64,0.2C77.77,70.67,76.44,70.65,75.07,70.65z M79,67.09
		c1.61,0,3.1,0.05,4.58-0.02c1.42-0.06,2.06-0.88,2.04-2.4c-0.02-1.34-0.77-2.16-2.12-2.21c-1.4-0.05-2.8-0.02-4.2-0.02
		c-0.08,0-0.16,0.05-0.3,0.1c0,1.27,0,2.53,0,3.79C79,66.56,79,66.79,79,67.09z M79.01,55.32c0,1.25-0.01,2.42,0.02,3.58
		c0,0.13,0.22,0.38,0.34,0.38c1.35,0,2.71,0.03,4.05-0.1c1.01-0.09,1.53-0.89,1.51-1.97c-0.02-1.04-0.61-1.82-1.64-1.88
		C81.9,55.26,80.5,55.32,79.01,55.32z"></path><path _ngcontent-motorbikeApp-c41="" d="M48.59,70.65c-1.19,0-2.34,0.02-3.48-0.02c-0.17-0.01-0.42-0.24-0.49-0.43c-0.27-0.66-0.49-1.34-0.69-2.02
		c-0.11-0.37-0.31-0.49-0.69-0.48c-2.07,0.02-4.14,0.02-6.21,0c-0.46-0.01-0.65,0.17-0.77,0.58c-0.18,0.62-0.42,1.21-0.6,1.83
		c-0.11,0.37-0.27,0.56-0.71,0.55c-1.1-0.03-2.2-0.01-3.38-0.01c0.07-0.25,0.1-0.44,0.17-0.62c2.1-5.9,4.22-11.8,6.31-17.7
		c0.17-0.48,0.41-0.63,0.89-0.61c0.85,0.04,1.7-0.01,2.55,0.03c0.21,0.01,0.52,0.2,0.59,0.38c2.19,6.06,4.35,12.14,6.52,18.21
		C48.61,70.41,48.59,70.48,48.59,70.65z M42.52,64.16c-0.79-2.32-1.56-4.58-2.33-6.84c-0.05,0-0.1-0.01-0.16-0.01
		c-0.77,2.26-1.54,4.52-2.34,6.85C39.32,64.16,40.87,64.16,42.52,64.16z"></path><path _ngcontent-motorbikeApp-c41="" d="M41.6,32.83c-5.7,0-11.4,0.01-17.1-0.01c-0.63,0-1.28-0.11-1.89-0.29c-0.67-0.2-1.03-0.72-1.03-1.46
		c0-0.74,0.36-1.25,1.02-1.47c0.56-0.18,1.17-0.3,1.75-0.3c11.51-0.02,23.03-0.02,34.54,0.01c0.69,0,1.42,0.17,2.06,0.44
		c0.88,0.38,1,1.22,0.32,1.9c-0.75,0.77-1.6,1.24-2.78,1.23c-5.63-0.06-11.26-0.03-16.89-0.03C41.6,32.84,41.6,32.83,41.6,32.83z"></path><path _ngcontent-motorbikeApp-c41="" d="M57.71,70.62c-1.3,0-2.56,0-3.89,0c0-4.82,0-9.62,0-14.56c-1.57,0.94-3,1.81-4.56,2.74
		c0-1.4-0.01-2.68,0.02-3.96c0-0.15,0.2-0.35,0.36-0.44c1.37-0.84,2.74-1.67,4.12-2.5c0.15-0.09,0.34-0.15,0.51-0.16
		c1.12-0.01,2.25-0.01,3.44-0.01C57.71,58.03,57.71,64.28,57.71,70.62z"></path><path _ngcontent-motorbikeApp-c41="" d="M32.69,37.51c3.08,0,6.15,0,9.23,0c1.03,0,1.59,0.37,1.73,1.11c0.14,0.76-0.52,2.15-1.17,2.42
		c-0.12,0.05-0.27,0.04-0.41,0.04c-6.2,0-12.4-0.01-18.6-0.02c-0.05,0-0.09,0-0.14,0c-0.64-0.03-1.28-0.1-1.56-0.78
		c-0.31-0.75-0.39-1.59,0.15-2.22c0.29-0.34,0.91-0.53,1.39-0.53C26.44,37.49,29.56,37.51,32.69,37.51z"></path><path _ngcontent-motorbikeApp-c41="" d="M70.12,50.22c0.79,0.37,1.53,0.72,2.33,1.1c-3.3,6.96-6.56,13.86-9.85,20.8c-0.8-0.35-1.56-0.68-2.38-1.04
		C63.52,64.12,66.81,57.19,70.12,50.22z"></path></g><g _ngcontent-motorbikeApp-c41=""><path _ngcontent-motorbikeApp-c41="" d="M110.74,99.04c0.14-0.67,0.25-1.35,0.42-2.01c0.97-3.79,3.9-6.36,7.79-6.79c0.8-0.09,1.6-0.14,2.41-0.14
		c22.62-0.01,45.25,0,67.87-0.01c1.81,0,3.58,0.22,5.24,1c3.06,1.43,4.62,3.94,5.1,7.2c0.11,0.77,0.14,1.56,0.14,2.34
		c0.01,16.34,0.01,32.69,0,49.03c0,0.48-0.03,0.97-0.13,1.43c-0.21,1.01-0.86,1.44-1.91,1.35c-0.94-0.08-1.51-0.63-1.53-1.62
		c-0.06-2.69-0.11-5.38-0.1-8.07c0.02-12.04,0.06-24.09,0.08-36.13c0-0.25,0-0.51-0.01-0.76c-0.03-0.67-0.38-1.01-1.05-1.01
		c-0.23,0-0.46,0-0.69,0c-26.3,0-52.6,0-78.91,0c-0.32,0-0.63,0-1.03,0c0,0.33,0,0.58,0,0.82c0,13.58,0,27.17,0.01,40.75
		c0,0.8,0.04,1.62,0.21,2.4c0.54,2.57,2.4,4.1,5.12,4.3c0.55,0.04,1.1,0.05,1.65,0.05c4.53,0,9.06,0,13.59,0.01
		c0.41,0,0.83,0.02,1.24,0.08c0.9,0.14,1.4,0.75,1.43,1.66c0.03,0.93-0.41,1.55-1.31,1.76c-0.38,0.09-0.77,0.13-1.16,0.13
		c-4.78,0.01-9.56,0.03-14.35-0.02c-1.16-0.01-2.35-0.16-3.47-0.47c-3.66-0.99-6.05-3.9-6.51-7.72c-0.03-0.25-0.1-0.49-0.15-0.73
		C110.74,131.59,110.74,115.32,110.74,99.04z M196.01,101.14c0-0.75,0.03-1.39-0.01-2.02c-0.15-2.61-1.78-4.59-4.31-5.14
		c-0.8-0.17-1.64-0.21-2.46-0.21c-22.8-0.01-45.61-0.01-68.41-0.01c-0.25,0-0.51,0-0.76,0.01c-3.49,0.1-5.94,2.87-5.61,6.35
		c0.09,1.02,0.09,1.02,1.1,1.02c26.5,0,53.01,0,79.51,0C195.33,101.14,195.6,101.14,196.01,101.14z"></path><path _ngcontent-motorbikeApp-c41="" d="M165.45,135.24c1.58,0,3.12-0.02,4.66,0.03c0.2,0.01,0.47,0.37,0.58,0.62c1.83,4.36,3.64,8.72,5.45,13.09
		c0.1,0.23,0.2,0.46,0.36,0.84c0.15-0.31,0.26-0.51,0.35-0.72c1.83-4.36,3.67-8.71,5.46-13.08c0.26-0.62,0.57-0.81,1.21-0.78
		c1.15,0.05,2.3,0.01,3.45,0.02c0.22,0,0.45,0.02,0.69,0.04c0,7.19,0,14.33,0,21.5c-1.47,0-2.91,0-4.42,0c0-4.35,0-8.68,0-13.01
		c-0.05-0.02-0.1-0.03-0.16-0.05c-0.09,0.18-0.19,0.36-0.27,0.55c-1.68,3.95-3.36,7.89-5.01,11.85c-0.22,0.52-0.45,0.74-1.04,0.71
		c-1.23-0.05-1.23-0.01-1.71-1.15c-1.58-3.74-3.15-7.49-4.73-11.23c-0.1-0.25-0.22-0.49-0.48-0.72c0,4.33,0,8.67,0,13.04
		c-1.52,0-2.94,0-4.41,0C165.45,149.64,165.45,142.48,165.45,135.24z"></path><path _ngcontent-motorbikeApp-c41="" d="M163.29,156.82c-1.38,0-2.71,0.02-4.04-0.02c-0.17,0-0.43-0.23-0.5-0.41c-0.31-0.81-0.59-1.64-0.85-2.47
		c-0.12-0.38-0.34-0.47-0.71-0.47c-2.41,0.01-4.83,0.01-7.24,0c-0.39,0-0.58,0.13-0.69,0.49c-0.25,0.81-0.52,1.62-0.82,2.41
		c-0.07,0.19-0.31,0.44-0.47,0.44c-1.35,0.04-2.71,0.02-4.14,0.02c0.09-0.28,0.14-0.5,0.22-0.71c2.41-6.74,4.83-13.48,7.22-20.23
		c0.18-0.5,0.4-0.68,0.92-0.66c1.01,0.04,2.02-0.01,3.03,0.03c0.21,0.01,0.52,0.21,0.59,0.4c2.5,6.95,4.98,13.91,7.47,20.87
		C163.29,156.58,163.28,156.65,163.29,156.82z M153.65,141.56c-0.05,0.01-0.1,0.02-0.15,0.03c-0.88,2.59-1.77,5.19-2.67,7.84
		c1.87,0,3.64,0,5.5,0C155.42,146.75,154.54,144.16,153.65,141.56z"></path><path _ngcontent-motorbikeApp-c41="" d="M141.78,116.41c-5.61,0-11.22,0.01-16.82-0.01c-0.7,0-1.42-0.1-2.1-0.28c-0.67-0.18-1.07-0.69-1.08-1.43
		c-0.01-0.73,0.32-1.29,1.05-1.53c0.54-0.17,1.12-0.29,1.68-0.29c11.56-0.02,23.12-0.02,34.68,0.01c0.67,0,1.38,0.18,1.99,0.45
		c0.85,0.38,0.97,1.19,0.33,1.86c-0.74,0.77-1.58,1.28-2.77,1.26C153.09,116.39,147.43,116.42,141.78,116.41
		C141.78,116.42,141.78,116.42,141.78,116.41z"></path><path _ngcontent-motorbikeApp-c41="" d="M132.85,121.09c3.05,0,6.11,0,9.16,0c1.12,0,1.67,0.33,1.83,1.08c0.16,0.78-0.44,2.11-1.12,2.43
		c-0.14,0.06-0.31,0.07-0.47,0.07c-6.18,0-12.35-0.01-18.53-0.02c-1.51,0-2.08-0.65-1.92-2.15c0.09-0.9,0.56-1.38,1.48-1.39
		c1.72-0.03,3.44-0.01,5.17-0.01C129.91,121.09,131.38,121.09,132.85,121.09z"></path></g></svg>