<svg _ngcontent-motorbikeApp-c41="" x="0px" y="0px" viewBox="0 0 107.6 75.04" xml:space="preserve" class="pointer fill-grey ng-star-inserted" style="enable-background: new 0 0 107.6 75.04;"><g _ngcontent-motorbikeApp-c41=""><path _ngcontent-motorbikeApp-c41="" d="M129.28-112.79c0.14-0.67,0.25-1.35,0.42-2.01c0.96-3.79,3.9-6.36,7.78-6.79c0.8-0.09,1.6-0.14,2.41-0.14
		c22.62-0.01,45.24-0.01,67.86,0.01c1.27,0,2.58,0.14,3.81,0.47c3.68,0.98,6.14,3.96,6.54,7.76c0.09,0.82,0.13,1.65,0.13,2.47
		c0.01,16.27,0.01,32.54,0,48.82c0,0.5-0.03,1.01-0.14,1.5c-0.21,0.96-0.88,1.4-1.88,1.31c-0.95-0.09-1.53-0.62-1.55-1.6
		c-0.06-2.69-0.11-5.38-0.1-8.07c0.02-11.74,0.05-23.49,0.08-35.23c0-0.34,0-0.69,0-1.03c0-1.51-0.16-1.67-1.64-1.67
		c-6.09,0-12.18,0-18.28,0c-20.23,0-40.46,0.01-60.69,0.01c-0.32,0-0.64,0-1.03,0c-0.02,0.3-0.04,0.54-0.04,0.78
		c0,13.63,0,27.26,0.01,40.89c0,0.78,0.05,1.57,0.21,2.33c0.56,2.57,2.4,4.13,5.14,4.27c2.13,0.11,4.27,0.06,6.41,0.13
		c1.33,0.04,2.06,1.18,1.63,2.42c-0.24,0.69-0.79,1.07-1.46,1.08c-2.87,0.07-5.75,0.38-8.58-0.3c-3.9-0.94-6.42-3.86-6.89-7.84
		c-0.03-0.25-0.1-0.49-0.15-0.73C129.28-80.24,129.28-96.52,129.28-112.79z M173.79-110.7c12.99,0,25.98,0,38.96,0
		c1.87,0,1.87,0,1.79-1.88c-0.11-2.68-1.73-4.71-4.31-5.28c-0.8-0.18-1.64-0.21-2.46-0.21c-22.8-0.01-45.61-0.01-68.41-0.01
		c-0.25,0-0.51,0-0.76,0.01c-3.54,0.09-6.03,2.98-5.62,6.48c0.08,0.65,0.28,0.91,1.02,0.91C147.26-110.7,160.53-110.7,173.79-110.7z
		"></path><path _ngcontent-motorbikeApp-c41="" d="M195.03-54.01c0-6.32,0-12.56,0-18.86c0.18-0.02,0.35-0.06,0.52-0.06c2.62,0,5.24-0.01,7.86,0.01
		c1.37,0.01,2.62,0.42,3.7,1.3c2.21,1.81,2.4,5.54-0.01,7.19c-0.05,0.03-0.08,0.09-0.16,0.18c1.36,0.74,2.26,1.84,2.48,3.37
		c0.54,3.78-1.24,6.22-4.74,6.66c-1.86,0.24-3.76,0.16-5.64,0.2C197.73-53.99,196.4-54.01,195.03-54.01z M198.96-57.58
		c1.61,0,3.1,0.05,4.58-0.02c1.42-0.06,2.06-0.88,2.04-2.4c-0.02-1.34-0.77-2.16-2.12-2.21c-1.4-0.05-2.8-0.02-4.2-0.02
		c-0.08,0-0.16,0.05-0.3,0.1c0,1.27,0,2.53,0,3.79C198.96-58.1,198.96-57.88,198.96-57.58z M198.96-69.35
		c0,1.25-0.01,2.42,0.02,3.58c0,0.13,0.22,0.38,0.34,0.38c1.35,0,2.71,0.03,4.05-0.1c1.01-0.09,1.53-0.89,1.51-1.97
		c-0.02-1.04-0.61-1.82-1.64-1.88C201.86-69.41,200.46-69.35,198.96-69.35z"></path><path _ngcontent-motorbikeApp-c41="" d="M168.55-54.02c-1.19,0-2.34,0.02-3.48-0.02c-0.17-0.01-0.42-0.24-0.49-0.43c-0.27-0.66-0.49-1.34-0.69-2.02
		c-0.11-0.37-0.31-0.49-0.69-0.48c-2.07,0.02-4.14,0.02-6.21,0c-0.46-0.01-0.65,0.17-0.77,0.58c-0.18,0.62-0.42,1.21-0.6,1.83
		c-0.11,0.37-0.27,0.56-0.71,0.55c-1.1-0.03-2.2-0.01-3.38-0.01c0.07-0.25,0.1-0.44,0.17-0.62c2.1-5.9,4.22-11.8,6.31-17.7
		c0.17-0.48,0.41-0.63,0.89-0.61c0.85,0.04,1.7-0.01,2.55,0.03c0.21,0.01,0.52,0.2,0.59,0.38c2.19,6.06,4.35,12.14,6.52,18.21
		C168.57-54.26,168.55-54.18,168.55-54.02z M162.47-60.5c-0.79-2.32-1.56-4.58-2.33-6.84c-0.05,0-0.1-0.01-0.16-0.01
		c-0.77,2.26-1.54,4.52-2.34,6.85C159.28-60.5,160.82-60.5,162.47-60.5z"></path><path _ngcontent-motorbikeApp-c41="" d="M161.56-91.84c-5.7,0-11.4,0.01-17.1-0.01c-0.63,0-1.28-0.11-1.89-0.29c-0.67-0.2-1.03-0.72-1.03-1.46
		c0-0.74,0.36-1.25,1.02-1.47c0.56-0.18,1.17-0.3,1.75-0.3c11.51-0.02,23.03-0.02,34.54,0.01c0.69,0,1.42,0.17,2.06,0.44
		c0.88,0.38,1,1.22,0.32,1.9c-0.75,0.77-1.6,1.24-2.78,1.23c-5.63-0.06-11.26-0.03-16.89-0.03
		C161.56-91.83,161.56-91.83,161.56-91.84z"></path><path _ngcontent-motorbikeApp-c41="" d="M177.67-54.05c-1.3,0-2.56,0-3.89,0c0-4.82,0-9.62,0-14.56c-1.57,0.94-3,1.81-4.56,2.74c0-1.4-0.01-2.68,0.02-3.96
		c0-0.15,0.2-0.35,0.36-0.44c1.37-0.84,2.74-1.67,4.12-2.5c0.15-0.09,0.34-0.15,0.51-0.16c1.12-0.01,2.25-0.01,3.44-0.01
		C177.67-66.63,177.67-60.38,177.67-54.05z"></path><path _ngcontent-motorbikeApp-c41="" d="M152.64-87.15c3.08,0,6.15,0,9.23,0c1.03,0,1.59,0.37,1.73,1.11c0.14,0.76-0.52,2.15-1.17,2.42
		c-0.12,0.05-0.27,0.04-0.41,0.04c-6.2,0-12.4-0.01-18.6-0.02c-0.05,0-0.09,0-0.14,0c-0.64-0.03-1.28-0.1-1.56-0.78
		c-0.31-0.75-0.39-1.59,0.15-2.22c0.29-0.34,0.91-0.53,1.39-0.53C146.4-87.18,149.52-87.15,152.64-87.15z"></path><path _ngcontent-motorbikeApp-c41="" d="M190.08-74.45c0.79,0.37,1.53,0.72,2.33,1.1c-3.3,6.96-6.56,13.86-9.85,20.8c-0.8-0.35-1.56-0.68-2.38-1.04
		C183.48-60.55,186.77-67.47,190.08-74.45z"></path></g><g _ngcontent-motorbikeApp-c41=""><path _ngcontent-motorbikeApp-c41="" d="M110.74,99.04c0.14-0.67,0.25-1.35,0.42-2.01c0.97-3.79,3.9-6.36,7.79-6.79c0.8-0.09,1.6-0.14,2.41-0.14
		c22.62-0.01,45.25,0,67.87-0.01c1.81,0,3.58,0.22,5.24,1c3.06,1.43,4.62,3.94,5.1,7.2c0.11,0.77,0.14,1.56,0.14,2.34
		c0.01,16.34,0.01,32.69,0,49.03c0,0.48-0.03,0.97-0.13,1.43c-0.21,1.01-0.86,1.44-1.91,1.35c-0.94-0.08-1.51-0.63-1.53-1.62
		c-0.06-2.69-0.11-5.38-0.1-8.07c0.02-12.04,0.06-24.09,0.08-36.13c0-0.25,0-0.51-0.01-0.76c-0.03-0.67-0.38-1.01-1.05-1.01
		c-0.23,0-0.46,0-0.69,0c-26.3,0-52.6,0-78.91,0c-0.32,0-0.63,0-1.03,0c0,0.33,0,0.58,0,0.82c0,13.58,0,27.17,0.01,40.75
		c0,0.8,0.04,1.62,0.21,2.4c0.54,2.57,2.4,4.1,5.12,4.3c0.55,0.04,1.1,0.05,1.65,0.05c4.53,0,9.06,0,13.59,0.01
		c0.41,0,0.83,0.02,1.24,0.08c0.9,0.14,1.4,0.75,1.43,1.66c0.03,0.93-0.41,1.55-1.31,1.76c-0.38,0.09-0.77,0.13-1.16,0.13
		c-4.78,0.01-9.56,0.03-14.35-0.02c-1.16-0.01-2.35-0.16-3.47-0.47c-3.66-0.99-6.05-3.9-6.51-7.72c-0.03-0.25-0.1-0.49-0.15-0.73
		C110.74,131.59,110.74,115.32,110.74,99.04z M196.01,101.14c0-0.75,0.03-1.39-0.01-2.02c-0.15-2.61-1.78-4.59-4.31-5.14
		c-0.8-0.17-1.64-0.21-2.46-0.21c-22.8-0.01-45.61-0.01-68.41-0.01c-0.25,0-0.51,0-0.76,0.01c-3.49,0.1-5.94,2.87-5.61,6.35
		c0.09,1.02,0.09,1.02,1.1,1.02c26.5,0,53.01,0,79.51,0C195.33,101.14,195.6,101.14,196.01,101.14z"></path><path _ngcontent-motorbikeApp-c41="" d="M165.45,135.24c1.58,0,3.12-0.02,4.66,0.03c0.2,0.01,0.47,0.37,0.58,0.62c1.83,4.36,3.64,8.72,5.45,13.09
		c0.1,0.23,0.2,0.46,0.36,0.84c0.15-0.31,0.26-0.51,0.35-0.72c1.83-4.36,3.67-8.71,5.46-13.08c0.26-0.62,0.57-0.81,1.21-0.78
		c1.15,0.05,2.3,0.01,3.45,0.02c0.22,0,0.45,0.02,0.69,0.04c0,7.19,0,14.33,0,21.5c-1.47,0-2.91,0-4.42,0c0-4.35,0-8.68,0-13.01
		c-0.05-0.02-0.1-0.03-0.16-0.05c-0.09,0.18-0.19,0.36-0.27,0.55c-1.68,3.95-3.36,7.89-5.01,11.85c-0.22,0.52-0.45,0.74-1.04,0.71
		c-1.23-0.05-1.23-0.01-1.71-1.15c-1.58-3.74-3.15-7.49-4.73-11.23c-0.1-0.25-0.22-0.49-0.48-0.72c0,4.33,0,8.67,0,13.04
		c-1.52,0-2.94,0-4.41,0C165.45,149.64,165.45,142.48,165.45,135.24z"></path><path _ngcontent-motorbikeApp-c41="" d="M163.29,156.82c-1.38,0-2.71,0.02-4.04-0.02c-0.17,0-0.43-0.23-0.5-0.41c-0.31-0.81-0.59-1.64-0.85-2.47
		c-0.12-0.38-0.34-0.47-0.71-0.47c-2.41,0.01-4.83,0.01-7.24,0c-0.39,0-0.58,0.13-0.69,0.49c-0.25,0.81-0.52,1.62-0.82,2.41
		c-0.07,0.19-0.31,0.44-0.47,0.44c-1.35,0.04-2.71,0.02-4.14,0.02c0.09-0.28,0.14-0.5,0.22-0.71c2.41-6.74,4.83-13.48,7.22-20.23
		c0.18-0.5,0.4-0.68,0.92-0.66c1.01,0.04,2.02-0.01,3.03,0.03c0.21,0.01,0.52,0.21,0.59,0.4c2.5,6.95,4.98,13.91,7.47,20.87
		C163.29,156.58,163.28,156.65,163.29,156.82z M153.65,141.56c-0.05,0.01-0.1,0.02-0.15,0.03c-0.88,2.59-1.77,5.19-2.67,7.84
		c1.87,0,3.64,0,5.5,0C155.42,146.75,154.54,144.16,153.65,141.56z"></path><path _ngcontent-motorbikeApp-c41="" d="M141.78,116.41c-5.61,0-11.22,0.01-16.82-0.01c-0.7,0-1.42-0.1-2.1-0.28c-0.67-0.18-1.07-0.69-1.08-1.43
		c-0.01-0.73,0.32-1.29,1.05-1.53c0.54-0.17,1.12-0.29,1.68-0.29c11.56-0.02,23.12-0.02,34.68,0.01c0.67,0,1.38,0.18,1.99,0.45
		c0.85,0.38,0.97,1.19,0.33,1.86c-0.74,0.77-1.58,1.28-2.77,1.26C153.09,116.39,147.43,116.42,141.78,116.41
		C141.78,116.42,141.78,116.42,141.78,116.41z"></path><path _ngcontent-motorbikeApp-c41="" d="M132.85,121.09c3.05,0,6.11,0,9.16,0c1.12,0,1.67,0.33,1.83,1.08c0.16,0.78-0.44,2.11-1.12,2.43
		c-0.14,0.06-0.31,0.07-0.47,0.07c-6.18,0-12.35-0.01-18.53-0.02c-1.51,0-2.08-0.65-1.92-2.15c0.09-0.9,0.56-1.38,1.48-1.39
		c1.72-0.03,3.44-0.01,5.17-0.01C129.91,121.09,131.38,121.09,132.85,121.09z"></path></g><g _ngcontent-motorbikeApp-c41=""><path _ngcontent-motorbikeApp-c41="" d="M98.28,64.83c-0.05,0.13-0.11,0.25-0.15,0.38c-0.31,1.01-0.91,1.4-1.97,1.29c-0.92-0.1-1.46-0.65-1.48-1.67
		c-0.06-2.67-0.1-5.33-0.1-8c0.02-12.04,0.06-24.09,0.09-36.13c0-0.23,0.01-0.46,0-0.69c-0.05-0.81-0.31-1.06-1.1-1.1
		c-0.18-0.01-0.37,0-0.55,0c-26.35,0-52.7,0-79.04,0c-0.29,0-0.59,0-0.94,0c-0.01,0.32-0.03,0.56-0.03,0.81
		c0,13.61,0,27.22,0.01,40.82c0,0.78,0.04,1.57,0.2,2.33c0.54,2.57,2.39,4.11,5.11,4.32c0.57,0.04,1.15,0.06,1.72,0.06
		c7.73,0,15.45,0,23.18,0c0.39,0,0.78,0.02,1.17,0.06C45.4,67.42,45.96,68,46,68.94c0.04,1.03-0.42,1.63-1.46,1.84
		c-0.36,0.07-0.73,0.1-1.09,0.1c-7.95,0.01-15.91,0.02-23.86-0.02c-1.2-0.01-2.44-0.15-3.6-0.47c-3.69-0.99-6.11-3.95-6.51-7.78
		c-0.09-0.82-0.13-1.65-0.13-2.47C9.32,44.92,9.31,29.7,9.34,14.48c0-1.2,0.15-2.44,0.45-3.61c0.97-3.68,3.95-6.16,7.74-6.58
		c0.8-0.09,1.6-0.13,2.41-0.13c22.6-0.01,45.2-0.01,67.8,0.01c1.27,0,2.58,0.14,3.81,0.46c3.68,0.96,6.13,3.92,6.58,7.74
		c0.03,0.25,0.1,0.49,0.15,0.73C98.28,30.35,98.28,47.59,98.28,64.83z M53.79,15.2c13.01,0,26.02,0,39.03,0c1.82,0,1.82,0,1.75-1.85
		c-0.1-2.69-1.71-4.72-4.29-5.31c-0.8-0.18-1.64-0.22-2.46-0.22C65,7.82,42.17,7.82,19.35,7.82c-0.25,0-0.51,0-0.76,0.01
		c-3.5,0.11-5.97,2.97-5.57,6.45c0.11,0.92,0.11,0.92,1.05,0.92C27.31,15.2,40.55,15.2,53.79,15.2z"></path><path _ngcontent-motorbikeApp-c41="" d="M76.6,58.35c-1.29-0.11-2.52-0.22-3.74-0.32c-0.25-2.34,1.3-4.98,3.63-6.01c2.34-1.04,4.74-1.08,7.08-0.01
		c3.81,1.75,4.56,6.49,1.45,9.28c-0.89,0.8-1.98,1.4-3.03,2c-1.11,0.64-2.3,1.14-3.44,1.74c-0.71,0.37-1.09,0.96-0.96,1.91
		c0.23,0,0.48,0,0.72,0c2.57,0,5.15,0.02,7.72-0.02c0.63-0.01,0.79,0.19,0.76,0.78c-0.05,0.93-0.01,1.87-0.01,2.85
		c-4.61,0-9.15,0-13.81,0c0-0.62-0.01-1.25,0-1.88c0.02-0.71,0.02-1.43,0.1-2.13c0.17-1.56,0.83-2.89,2.17-3.75
		c1.21-0.77,2.52-1.4,3.79-2.1c0.88-0.48,1.81-0.91,2.65-1.46c1.15-0.75,1.52-1.76,1.17-2.82c-0.31-0.94-1.26-1.53-2.52-1.56
		c-2.04-0.05-3.25,0.94-3.59,2.93C76.7,57.97,76.66,58.12,76.6,58.35z"></path><path _ngcontent-motorbikeApp-c41="" d="M71.6,70.61c-1.17,0-2.32,0.02-3.46-0.02c-0.18-0.01-0.45-0.2-0.52-0.37c-0.26-0.63-0.49-1.29-0.67-1.95
		c-0.13-0.5-0.4-0.62-0.89-0.62c-1.98,0.02-3.95,0.03-5.93,0c-0.51-0.01-0.79,0.12-0.93,0.65c-0.16,0.64-0.4,1.27-0.65,1.88
		c-0.07,0.18-0.32,0.4-0.5,0.41c-1.15,0.04-2.29,0.02-3.54,0.02c0.08-0.27,0.13-0.47,0.2-0.68c2.1-5.87,4.21-11.74,6.29-17.62
		c0.18-0.51,0.42-0.67,0.93-0.65c0.83,0.04,1.66-0.02,2.48,0.03c0.23,0.01,0.56,0.23,0.64,0.43c2.2,6.08,4.37,12.17,6.54,18.26
		C71.62,70.42,71.6,70.46,71.6,70.61z M63.18,57.29c-0.06,0-0.12,0-0.18,0c-0.77,2.26-1.54,4.52-2.32,6.84c1.67,0,3.2,0,4.84,0
		C64.72,61.81,63.95,59.55,63.18,57.29z"></path><path _ngcontent-motorbikeApp-c41="" d="M40.35,30.48c-5.58,0-11.17,0.01-16.75-0.01c-0.66,0-1.34-0.06-1.98-0.21c-0.84-0.2-1.25-0.76-1.27-1.5
		c-0.02-0.8,0.37-1.36,1.24-1.6c0.5-0.14,1.04-0.23,1.56-0.23c11.51-0.01,23.03-0.02,34.54,0.01c0.67,0,1.38,0.16,2,0.42
		c0.93,0.39,1.06,1.23,0.35,1.94c-0.74,0.75-1.56,1.23-2.72,1.21C51.65,30.45,46,30.48,40.35,30.48
		C40.35,30.48,40.35,30.48,40.35,30.48z"></path><path _ngcontent-motorbikeApp-c41="" d="M31.38,35.15c3.05,0,6.11,0,9.16,0c1.13,0,1.68,0.32,1.85,1.05c0.18,0.78-0.39,2.08-1.09,2.45
		c-0.13,0.07-0.31,0.08-0.46,0.08c-6.18,0-12.35-0.01-18.53-0.02c-0.02,0-0.05,0-0.07,0c-1.54-0.02-2.24-0.95-1.83-2.46
		c0.21-0.79,0.65-1.09,1.67-1.09C25.18,35.15,28.28,35.15,31.38,35.15z"></path></g></svg>