<svg _ngcontent-motorbikeApp-c41="" x="0px" y="0px" viewBox="0 0 107.6 75.04" xml:space="preserve" class="pointer fill-grey ng-star-inserted" style="enable-background: new 0 0 107.6 75.04;"><g _ngcontent-motorbikeApp-c41=""><path _ngcontent-motorbikeApp-c41="" d="M9.32,13.1c0.14-0.67,0.25-1.35,0.42-2.01c0.97-3.79,3.9-6.36,7.79-6.79c0.8-0.09,1.6-0.14,2.41-0.14
		c22.62-0.01,45.25,0,67.87-0.01c1.81,0,3.58,0.22,5.24,1c3.06,1.43,4.62,3.94,5.1,7.2c0.11,0.77,0.14,1.56,0.14,2.34
		c0.01,16.34,0.01,32.69,0,49.03c0,0.48-0.03,0.97-0.13,1.43c-0.21,1.01-0.86,1.44-1.91,1.35c-0.94-0.08-1.51-0.63-1.53-1.62
		c-0.06-2.69-0.11-5.38-0.1-8.07c0.02-12.04,0.06-24.09,0.08-36.13c0-0.25,0-0.51-0.01-0.76c-0.03-0.67-0.38-1.01-1.05-1.01
		c-0.23,0-0.46,0-0.69,0c-26.3,0-52.6,0-78.91,0c-0.32,0-0.63,0-1.03,0c0,0.33,0,0.58,0,0.82c0,13.58,0,27.17,0.01,40.75
		c0,0.8,0.04,1.62,0.21,2.4c0.54,2.57,2.4,4.1,5.12,4.3c0.55,0.04,1.1,0.05,1.65,0.05c4.53,0,9.06,0,13.59,0.01
		c0.41,0,0.83,0.02,1.24,0.08c0.9,0.14,1.4,0.75,1.43,1.66c0.03,0.93-0.41,1.55-1.31,1.76c-0.38,0.09-0.77,0.13-1.16,0.13
		c-4.78,0.01-9.56,0.03-14.35-0.02c-1.16-0.01-2.35-0.16-3.47-0.47c-3.66-0.99-6.05-3.9-6.51-7.72c-0.03-0.25-0.1-0.49-0.15-0.73
		C9.32,45.65,9.32,29.38,9.32,13.1z M94.58,15.2c0-0.75,0.03-1.39-0.01-2.02c-0.15-2.61-1.78-4.59-4.31-5.14
		c-0.8-0.17-1.64-0.21-2.46-0.21C65,7.81,42.2,7.82,19.4,7.82c-0.25,0-0.51,0-0.76,0.01c-3.49,0.1-5.94,2.87-5.61,6.35
		c0.09,1.02,0.09,1.02,1.1,1.02c26.5,0,53.01,0,79.51,0C93.91,15.2,94.18,15.2,94.58,15.2z"></path><path _ngcontent-motorbikeApp-c41="" d="M64.02,49.29c1.58,0,3.12-0.02,4.66,0.03c0.2,0.01,0.47,0.37,0.58,0.62c1.83,4.36,3.64,8.72,5.45,13.09
		c0.1,0.23,0.2,0.46,0.36,0.84c0.15-0.31,0.26-0.51,0.35-0.72c1.83-4.36,3.67-8.71,5.46-13.08c0.26-0.62,0.57-0.81,1.21-0.78
		c1.15,0.05,2.3,0.01,3.45,0.02c0.22,0,0.45,0.02,0.69,0.04c0,7.19,0,14.33,0,21.5c-1.47,0-2.91,0-4.42,0c0-4.35,0-8.68,0-13.01
		c-0.05-0.02-0.1-0.03-0.16-0.05c-0.09,0.18-0.19,0.36-0.27,0.55c-1.68,3.95-3.36,7.89-5.01,11.85c-0.22,0.52-0.45,0.74-1.04,0.71
		c-1.23-0.05-1.23-0.01-1.71-1.15c-1.58-3.74-3.15-7.49-4.73-11.23c-0.1-0.25-0.22-0.49-0.48-0.72c0,4.33,0,8.67,0,13.04
		c-1.52,0-2.94,0-4.41,0C64.02,63.69,64.02,56.54,64.02,49.29z"></path><path _ngcontent-motorbikeApp-c41="" d="M61.86,70.87c-1.38,0-2.71,0.02-4.04-0.02c-0.17,0-0.43-0.23-0.5-0.41c-0.31-0.81-0.59-1.64-0.85-2.47
		c-0.12-0.38-0.34-0.47-0.71-0.47c-2.41,0.01-4.83,0.01-7.24,0c-0.39,0-0.58,0.13-0.69,0.49c-0.25,0.81-0.52,1.62-0.82,2.41
		c-0.07,0.19-0.31,0.44-0.47,0.44c-1.35,0.04-2.71,0.02-4.14,0.02c0.09-0.28,0.14-0.5,0.22-0.71c2.41-6.74,4.83-13.48,7.22-20.23
		c0.18-0.5,0.4-0.68,0.92-0.66c1.01,0.04,2.02-0.01,3.03,0.03c0.21,0.01,0.52,0.21,0.59,0.4c2.5,6.95,4.98,13.91,7.47,20.87
		C61.86,70.64,61.85,70.71,61.86,70.87z M52.23,55.62c-0.05,0.01-0.1,0.02-0.15,0.03c-0.88,2.59-1.77,5.19-2.67,7.84
		c1.87,0,3.64,0,5.5,0C54,60.81,53.11,58.22,52.23,55.62z"></path><path _ngcontent-motorbikeApp-c41="" d="M40.36,30.47c-5.61,0-11.22,0.01-16.82-0.01c-0.7,0-1.42-0.1-2.1-0.28c-0.67-0.18-1.07-0.69-1.08-1.43
		c-0.01-0.73,0.32-1.29,1.05-1.53c0.54-0.17,1.12-0.29,1.68-0.29c11.56-0.02,23.12-0.02,34.68,0.01c0.67,0,1.38,0.18,1.99,0.45
		c0.85,0.38,0.97,1.19,0.33,1.86c-0.74,0.77-1.58,1.28-2.77,1.26C51.67,30.45,46.01,30.48,40.36,30.47
		C40.36,30.48,40.36,30.47,40.36,30.47z"></path><path _ngcontent-motorbikeApp-c41="" d="M31.43,35.14c3.05,0,6.11,0,9.16,0c1.12,0,1.67,0.33,1.83,1.08c0.16,0.78-0.44,2.11-1.12,2.43
		c-0.14,0.06-0.31,0.07-0.47,0.07c-6.18,0-12.35-0.01-18.53-0.02c-1.51,0-2.08-0.65-1.92-2.15c0.09-0.9,0.56-1.38,1.48-1.39
		c1.72-0.03,3.44-0.01,5.17-0.01C28.49,35.14,29.96,35.14,31.43,35.14z"></path></g></svg>