<svg _ngcontent-motorbikeApp-c42="" x="0px" y="0px" viewBox="0 0 125.54 75.04" xml:space="preserve" class="pointer fill-grey ng-star-inserted" style="enable-background: new 0 0 125.54 75.04;"><g _ngcontent-motorbikeApp-c42=""><path _ngcontent-motorbikeApp-c42="" d="M89.16,38.3c-0.5,0.4-0.98,0.77-1.45,1.16c-4.27,3.56-8.53,7.14-12.83,10.66c-1.53,1.25-2.57,2.73-3.04,4.66
		c-0.42,1.72-0.94,3.41-1.43,5.11c-0.12,0.41-0.27,0.8-0.45,1.3c-2.94,0.11-5.86-0.02-8.78-0.05c-2.93-0.03-5.86-0.13-8.71-0.2
		c-0.13-0.21-0.26-0.31-0.25-0.4c0.14-1.23-0.38-2.01-1.44-2.69c-2.78-1.77-5.48-3.67-8.21-5.53c-0.38-0.26-0.92-0.45-0.75-1.09
		c1.7-0.52,7.96-0.43,12.74,0.18c0.22,0.33,0.42,0.71,0.7,1.02c0.7,0.77,1.68,0.85,2.47,0.25c0.71-0.54,0.94-1.52,0.54-2.29
		c-0.45-0.86-1.46-1.34-2.32-0.84c-0.93,0.54-1.84,0.47-2.82,0.44c-3.78-0.1-7.56-0.55-11.21-0.21c-2.55-1.92-4.98-3.76-7.41-5.59
		c-2.37-1.79-4.77-3.55-7.21-5.45c0.62-0.38,1.1-0.23,1.54-0.14c3.92,0.79,7.17,2.7,9.71,5.8c0.39,0.47,0.74,0.96,1.17,1.51
		c0.51-0.14,1.01-0.36,1.53-0.41c0.54-0.06,1.1,0.05,1.64,0.07c1.83,0.07,3.66,0.14,5.5,0.2c0.67,0.02,1.34,0,2.06,0
		c0.72-1.15,1.42-2.29,2.19-3.52c0.36,0.25,0.67,0.43,0.92,0.66c0.68,0.61,1.34,1.25,2.01,1.87c0.4,0.38,0.67,0.79,0.82,1.37
		c0.45,1.71,1.93,2.17,3.15,0.96c0.58-0.58,1.21-0.77,1.94-0.85c1.4-0.16,2.79-0.33,4.19-0.48c1.1-0.13,2.12-0.43,3.09-1.03
		c4.32-2.66,8.68-5.25,13.01-7.88c0.41-0.25,0.79-0.56,1.14-0.89c0.09-0.08,0.07-0.37,0-0.5c-0.08-0.13-0.3-0.28-0.43-0.25
		c-0.29,0.05-0.58,0.17-0.84,0.32c-1.32,0.78-2.62,1.57-3.93,2.36c-3.19,1.93-6.39,3.84-9.57,5.79c-0.69,0.42-1.39,0.7-2.21,0.79
		c-1.94,0.21-3.87,0.48-5.69,0.71c-1.74-1.25-1.25-1.31-3.4-0.88c-1.08-1.01-2.23-2.09-3.44-3.21c0.43-1.1,1.07-1.98,1.68-2.97
		c0.76-0.13,1.64,0.28,2.38-0.41c0.62-0.58,0.98-1.22,0.86-2.09c0.66-0.17,1.18-0.31,1.71-0.43c2.8-0.61,5.61-1.21,8.42-1.82
		c0.41-0.09,0.84-0.2,1.21-0.39c0.15-0.07,0.27-0.43,0.22-0.59c-0.06-0.18-0.33-0.38-0.53-0.4c-0.29-0.03-0.6,0.09-0.89,0.15
		c-3.29,0.7-6.57,1.4-9.86,2.1c-0.36,0.08-0.71,0.17-1.08,0.22c-1.35,0.18-2.56,0.02-3.81-0.74c-4.96-3.01-10-5.89-15.01-8.83
		c-0.84-0.49-1.68-0.96-2.78-0.93c-0.05,1.47,0.18,2.69,1.37,3.77c4.34,3.95,8.59,7.99,12.87,12c0.49,0.46,0.97,0.92,1.52,1.44
		c-0.5,1.16-1.18,2.16-1.85,3.22c-0.44,0.02-0.86,0.07-1.27,0.07c-1.77-0.03-3.54-0.1-5.32-0.09c-0.79,0.01-1.42-0.21-1.99-0.73
		c-0.71-0.65-1.58-1.14-2.29-1.99c0.69-0.74,1.35-1.44,2.09-2.24c-0.05-1.81-0.03-3.69-0.37-5.63c-0.51-0.3-1.03-0.62-1.56-0.92
		c-4.48-2.51-8.95-5.03-13.44-7.52c-1.29-0.71-2.49-1.52-3.59-2.51c-1.77-1.6-3.58-3.14-5.37-4.72c-0.31-0.27-0.58-0.59-0.83-0.84
		c0.05-0.16,0.05-0.23,0.08-0.26c0.04-0.03,0.12-0.05,0.18-0.04c1.51,0.21,3.03,0.41,4.53,0.65c0.47,0.07,0.94,0.24,1.47,0.38
		c0.21-0.32,0.4-0.61,0.64-0.99c0.98,0.1,2,0.17,3.03,0.3c3.64,0.45,7.27,0.94,10.91,1.35c0.87,0.1,1.47,0.42,1.93,1.16
		c0.48,0.77,1.04,1.5,1.63,2.32c0.35-0.07,0.7-0.11,1.04-0.21c0.93-0.25,1.82-0.04,2.71,0.19c1.96,0.49,3.93,0.92,5.86,1.48
		c1.64,0.48,3.25,0.43,4.89,0.14c0.88-0.15,1.56-0.53,2.14-1.24c1.32-1.61,2.71-3.15,4.1-4.69c0.65-0.72,1.39-1.38,2.08-2.07
		c0.91-0.92,2.03-1.37,3.3-1.38c3.48-0.03,6.81,0.67,9.84,2.43c0.72,0.42,1.44,0.99,1.92,1.66c0.58,0.82,1.3,1.42,2.07,2.03
		c0.76,0.6,1.42,1.33,2.11,2.01c0.54,0.54,0.95,1.22,1.64,1.76c0.12-0.66-0.2-1.05-0.39-1.48c-0.39-0.9-0.66-1.89-1.24-2.64
		c-0.62-0.81-0.93-1.7-1.28-2.6c-0.31-0.79-0.58-1.6-0.88-2.42c-0.77-0.33-1.57-0.31-2.35-0.38c-0.37-0.03-0.74-0.03-1.1-0.08
		c-0.93-0.13-1.39-0.64-1.32-1.43c0.07-0.7,0.55-1.12,1.41-1.11c0.92,0.01,1.83,0.1,2.75,0.15c0.24,0.01,0.48,0,0.68,0
		c0.52-0.37,0.83-0.82,0.81-1.41c-0.04-1.04-0.12-2.07-0.22-3.1c-0.02-0.22-0.22-0.42-0.36-0.67c-0.85-0.03-1.67-0.06-2.6-0.1
		c0-0.36-0.01-0.59,0-0.82c0.1-1.39,0.21-2.79,0.32-4.17C79.56,1.9,79.8,1.98,80.08,3c0.28,1.03,0.77,1.93,1.34,2.79
		c0.55,0.84,0.84,1.74,0.89,2.74c0.04,0.72,0.16,1.45,0.25,2.21c1.13,0.29,2.23,0.1,3.31,0.11c0.73,0.01,1.47-0.03,2.2-0.02
		c0.61,0.01,1.06,0.32,1.29,0.87c0.74,1.81,1.46,3.63,2.16,5.45c0.25,0.64,0.08,1.2-0.49,1.61c-0.23,0.16-0.47,0.31-0.83,0.55
		c1.21,0.9,2.31,1.77,3.46,2.56c1.03,0.7,1.83,1.56,2.45,2.66c0.99,1.75,2.09,3.45,3.13,5.18c0.28,0.46,0.52,0.94,0.75,1.36
		c-0.16,0.48-0.51,0.41-0.79,0.45c-0.91,0.12-1.82,0.2-2.73,0.32c-0.75,0.1-1.44,0.01-2.09-0.44c-0.7-0.47-1.46-0.86-2.17-1.27
		c-0.49,0.39-0.15,0.73-0.03,1.01c1.38,3.2,2.78,6.38,4.17,9.57c0.27,0.61,0.5,1.23,0.78,1.92c-1.23,0.79-2.55,1.21-3.92,1.78
		c-0.21-0.36-0.41-0.66-0.56-0.97c-0.29-0.61-0.59-1.21-0.81-1.84C91.37,40.23,90.66,39.07,89.16,38.3z M59.62,24.99
		c0.18,0.19,0.28,0.35,0.43,0.44c2.99,1.9,5.99,3.78,8.98,5.68c0.5,0.32,0.99,0.37,1.57,0.26c1.38-0.26,2.78-0.43,4.15-0.72
		c0.76-0.16,1.45-0.12,2.15,0.17c1.3,0.53,2.61,1.03,3.89,1.62c3.1,1.44,6.19,2.91,9.28,4.37c0.26,0.13,0.53,0.33,0.89,0.02
		c-0.18-0.29-0.34-0.61-0.55-0.89c-2.8-3.62-5.6-7.25-8.43-10.85c-0.56-0.72-1.21-1.38-1.82-2.05c-0.96-1.06-2.15-1.8-3.45-2.38
		c-0.2-0.09-0.45-0.07-0.9-0.13c0.64,0.71,1.14,1.23,1.6,1.78c0.43,0.52,0.76,1.11,0.73,1.83c-0.02,0.59-0.49,1.05-1.07,0.97
		c-0.48-0.07-0.95-0.21-1.43-0.34c-2.9-0.74-5.79-1.5-8.69-2.23c-1.07-0.27-2.15-0.44-3.23-0.68c-0.51-0.11-0.98-0.09-1.4,0.21
		C61.23,22.87,60.27,23.78,59.62,24.99z M68.21,52.2c0.07-0.91-0.32-1.72-1.33-2.21c-0.55-0.27-1.07-0.59-1.56-0.94
		c-0.67-0.48-1.36-0.45-2.08-0.17c-1.81,0.7-3.04,2.7-2.9,4.65c0.06,0.85,0.35,1.51,1.16,1.92c0.65,0.33,1.27,0.73,1.88,1.13
		c0.57,0.37,1.15,0.35,1.75,0.14C66.87,56.11,68.19,54.25,68.21,52.2z M97.56,30.05c-0.43-0.85-0.99-1.4-1.47-2.01
		c-0.53-0.67-1.05-1.34-1.61-1.98c-0.48-0.56-0.86-1.23-1.61-1.77c0.52,1.63,2.07,4.57,3.02,5.76
		C96.37,30.05,96.88,30.05,97.56,30.05z"></path><path _ngcontent-motorbikeApp-c42="" d="M86,47.01c1.31,0.11,2.52,0.21,3.8,0.31c0.45,0.54,0.91,1.09,1.4,1.68c-0.27,0.61-0.52,1.16-0.75,1.71
		c-2.72,6.46,1.66,13.27,8.01,14.29c4.43,0.71,10.08-1.86,11.65-7.57c1.4-5.1-1.25-10.41-6.23-12.4c-0.61-0.25-1.24-0.45-1.9-0.68
		c0.02-0.78,0.59-1.11,0.98-1.53c1.57-1.68,0.87-1.36,3.08-1.63c2.53-0.31,2.16-0.61,4.3,1.26c5.08,4.42,6.89,10.06,5.12,16.51
		c-1.76,6.38-6.16,10.23-12.7,11.51c-8.51,1.66-18.07-4.47-18.72-14.97C83.85,52.57,84.51,49.8,86,47.01z"></path><path _ngcontent-motorbikeApp-c42="" d="M35.68,55.48c2.35-0.2,4.48-0.03,6.18,1.71c-0.22,5.99-5.99,12.16-12.58,13.55
		c-7.36,1.55-14.84-2.02-18.21-8.83c-3.32-6.71-1.44-14.97,3.73-19.23c0.36,0.53,0.66,1.12,1.1,1.58c0.42,0.43,0.99,0.71,1.47,1.08
		c0.72,0.55,1.55,0.95,2.2,1.73c-1.92,1.87-3.28,3.99-3.51,6.68c-0.17,2.06,0.21,4,1.25,5.81c2.11,3.67,6.17,5.36,9.75,4.85
		C31.59,63.78,34.45,60.82,35.68,55.48z"></path><path _ngcontent-motorbikeApp-c42="" d="M16.6,34.55c0.76-0.26,1.3,0.13,1.87,0.26c1.81,0.42,3.37,1.29,4.85,2.42c5.23,4.01,10.5,7.95,15.79,11.87
		c0.81,0.6,1.28,1.28,1.27,2.26c0,0.41-0.03,0.86-0.19,1.22c-0.24,0.55-0.6,1.05-0.96,1.67c-0.41,0-0.83,0.02-1.24,0
		c-1.46-0.08-2.92-0.28-4.38-0.24c-1.56,0.04-2.78-0.56-4-1.45c-3.94-2.87-7.92-5.7-11.93-8.47c-0.94-0.65-1.42-1.42-1.59-2.5
		c-0.16-1.02-0.39-2.03-0.63-3.04c-0.17-0.74-0.16-1.43,0.22-2.12C16.04,35.8,16.32,35.13,16.6,34.55z"></path><path _ngcontent-motorbikeApp-c42="" d="M86.81,45.76c0.87-1.74,2.07-2.99,3.75-3.92c0.61,1.32,1.22,2.64,1.86,4.03c0.44-0.05,0.85-0.09,1.33-0.14
		c0.11,0.16,0.29,0.34,0.38,0.55c1.25,2.85,2.49,5.7,3.74,8.56c0.17,0.39,0.32,0.8,0.55,1.16c0.53,0.85,1.47,1.16,2.39,0.83
		c0.91-0.33,1.39-1.19,1.18-2.21c-0.1-0.47-0.3-0.93-0.49-1.37c-1.11-2.58-2.24-5.15-3.36-7.72c-0.19-0.44-0.37-0.89-0.58-1.41
		c0.36-0.28,0.68-0.53,1.08-0.83c-0.3-1.52-1.26-2.84-1.67-4.34c0.96-0.52,2.39-0.81,3.89-0.67c1.92,0.18,3.86,0.32,5.59,1.33
		c-0.18,0.48-0.53,0.34-0.79,0.39c-0.3,0.06-0.61,0.08-0.91,0.11c-0.7,0.07-1.28,0.31-1.75,0.87c-0.74,0.89-1.52,1.75-2.28,2.62
		c0.05,1.09,0.09,2.18,0.17,3.27c0.05,0.73,0.18,1.45,0.27,2.22c0.57,0.28,1.14,0.5,1.65,0.81c1.96,1.17,2.93,2.92,2.78,5.19
		c-0.15,2.27-1.32,3.93-3.45,4.77c-1.95,0.77-3.86,0.55-5.54-0.77c-1.81-1.42-2.38-3.34-1.99-5.56c0.09-0.53,0.28-1.05,0.46-1.69
		c-1.53-1.87-3.07-3.74-4.62-5.64C89.26,46.04,88.12,45.91,86.81,45.76z"></path><path _ngcontent-motorbikeApp-c42="" d="M24.09,50.1c2.14,1.52,4.36,3.1,6.61,4.7c0.26,1.14-0.22,2.05-0.82,2.9c-0.77,1.1-1.87,1.74-3.17,1.98
		c-2.47,0.47-4.99-1.07-5.72-3.48C20.23,53.71,21.53,50.75,24.09,50.1z"></path><path _ngcontent-motorbikeApp-c42="" d="M79.8,47.94c-0.13,0.69-0.32,1.26-0.5,1.82c-0.51,1.56-0.98,3.14-1.51,4.7c-0.15,0.44-0.36,0.94-0.7,1.24
		c-1.63,1.46-3.3,2.86-4.93,4.26c-0.5-0.24-0.33-0.58-0.26-0.82c0.45-1.65,0.92-3.28,1.39-4.92c0.28-0.96,0.79-1.79,1.55-2.44
		c1.44-1.23,2.89-2.43,4.35-3.63C79.31,48.05,79.5,48.04,79.8,47.94z"></path><path _ngcontent-motorbikeApp-c42="" d="M54.71,35.84c-0.38,1.58-1.37,2.79-2.23,4.09c-1.32-0.86-3.88-3.23-4.86-4.48c0.11-0.39,0.47-0.31,0.74-0.36
		c0.72-0.16,1.47-0.19,2.15-0.42C52.08,34.14,53.37,34.57,54.71,35.84z"></path><path _ngcontent-motorbikeApp-c42="" d="M40.54,54.65c0.28-0.52,0.53-0.98,0.83-1.54c0.34,0.18,0.61,0.29,0.85,0.44c2.58,1.73,5.15,3.47,7.72,5.22
		c0.3,0.2,0.62,0.4,0.86,0.67c0.26,0.3,0.25,0.69,0.02,1.01c-0.2,0.27-0.5,0.32-0.81,0.17c-0.22-0.11-0.43-0.22-0.64-0.35
		c-2.69-1.66-5.39-3.33-8.08-5C41.05,55.11,40.84,54.9,40.54,54.65z"></path><path _ngcontent-motorbikeApp-c42="" d="M95.15,45.02c0.31-0.13,0.68-0.3,1.1-0.48c0.19,0.31,0.37,0.55,0.49,0.83c1.26,2.89,2.52,5.79,3.77,8.68
		c0.14,0.33,0.26,0.69,0.28,1.03c0.01,0.18-0.22,0.45-0.4,0.53c-0.19,0.08-0.49,0.05-0.67-0.05c-0.19-0.11-0.34-0.35-0.43-0.56
		c-1.4-3.23-2.8-6.46-4.19-9.69C95.07,45.27,95.11,45.2,95.15,45.02z"></path><path _ngcontent-motorbikeApp-c42="" d="M37.66,25.74c0.42,0.22,0.84,0.42,1.25,0.66c1.37,0.79,2.71,1.63,4.1,2.38c0.72,0.38,1.09,0.92,1.24,1.68
		c0.13,0.65,0.27,1.29,0.4,1.91c-0.1,0.07-0.14,0.11-0.18,0.12c-0.06,0.01-0.14,0.02-0.18-0.02c-2.15-1.97-4.29-3.95-6.43-5.93
		c-0.17-0.16-0.29-0.37-0.43-0.55C37.5,25.91,37.58,25.82,37.66,25.74z"></path><path _ngcontent-motorbikeApp-c42="" d="M45.61,30.47c1.75,0.77,3.19,1.75,4.88,2.75c-1.45,0.62-2.72,0.76-4.09,0.81
		C46.06,32.86,45.71,31.79,45.61,30.47z"></path><path _ngcontent-motorbikeApp-c42="" d="M65.86,52.68c0.05,0.88-0.66,1.62-1.56,1.63c-0.85,0.01-1.53-0.57-1.62-1.38c-0.1-0.89,0.55-1.66,1.46-1.73
		C65.04,51.13,65.82,51.8,65.86,52.68z"></path></g><g _ngcontent-motorbikeApp-c42=""><path _ngcontent-motorbikeApp-c42="" d="M186.44,22.36c5.25,0,10.46,0,15.72,0c0.82-1.39,1.61-2.75,2.46-4.2c0.75,0.07,1.48,0.12,2.2,0.22
		c2.86,0.39,5.72,0.79,8.58,1.18c3.03,0.41,5.87-0.15,8.46-1.79c2.62-1.66,3.31-4.07,1.96-6.87c-0.1-0.2-0.19-0.4-0.33-0.7
		c0.3-0.15,0.58-0.32,0.87-0.44c0.63-0.24,1.27-0.45,1.99-0.7c-0.44-1.24-1.02-2.08-2.35-2.45c-2.45-0.68-4.87-1.51-7.28-2.33
		c-0.64-0.22-1.19-0.23-1.79,0.06c-0.66,0.32-1.35,0.58-2.04,0.84c-0.31,0.12-0.65,0.2-0.98,0.23c-0.5,0.04-0.91-0.26-1.04-0.7
		c-0.14-0.46-0.1-0.91,0.27-1.25c0.2-0.19,0.46-0.33,0.72-0.44c2.8-1.21,5.61-2.42,8.42-3.62c0.05-0.02,0.11,0,0.24,0.01
		c0.35,0.42,0.74,0.87,1.25,1.47c0.17-0.4,0.29-0.64,0.38-0.88c0.47-1.45,0.88-2.93,1.42-4.36c0.35-0.93,0.27-1.7-0.21-2.57
		c-1.65-2.99-2.79-6.19-3.48-9.53c-0.04-0.21-0.05-0.44-0.1-0.87c0.33,0.32,0.57,0.46,0.7,0.68c0.61,0.96,1.2,1.92,1.77,2.9
		c1.16,2.01,2.32,4.02,3.42,6.06c0.76,1.4,1.61,2.73,2.68,3.91c0.33,0.37,0.6,0.79,0.95,1.26c-0.38,0.22-0.67,0.37-0.96,0.55
		c-1.28,0.8-1.83,1.97-1.75,3.45c0.05,0.85,0.1,1.7,0.24,2.53c0.09,0.54,0.27,1.11,0.55,1.58c1.67,2.76,3.37,5.5,5.12,8.33
		c1.26,0.04,2.53,0.08,3.92,0.13c-0.27,0.72-0.94,0.8-1.25,1.26c0.24,1.19,1.5,3.89,2.37,5.1c1.56-0.31,3.1-0.69,4.66-0.91
		c3.72-0.51,7.22,0.15,10.41,2.2c1.49,0.96,2.73,2.17,3.53,3.72c-0.18,0.45-0.5,0.34-0.76,0.34c-3-0.07-6-0.16-9.01-0.24
		c-1.79-0.05-3.49,0.34-5.13,1c-0.25,0.1-0.46,0.29-0.76,0.48c0.51,1.06,1,2.07,1.51,3.12c1.69-0.34,3.24-0.22,4.62,0.76
		c0.95,0.68,1.63,1.56,1.98,2.69c0.69,2.28-0.2,4.68-2.2,5.92c-2,1.24-4.59,0.98-6.29-0.62c-1.99-1.88-2.09-4.29-0.26-7.5
		c-0.25-0.44-0.51-0.93-0.8-1.41c-0.29-0.48-0.6-0.94-0.86-1.34c-0.52-0.1-0.73,0.2-0.97,0.43c-1.86,1.75-2.92,3.86-2.89,6.46
		c0.01,0.62-0.03,1.24-0.05,1.88c-1.04,0.46-2.07,0.26-3.06,0.29c-1.01,0.03-2.03,0.18-3.02-0.05c-0.56-1.86-0.11-5.7,1.01-8.47
		c1.09-2.69,2.95-4.8,5.14-6.74c-0.18-0.74-0.62-1.3-1.03-1.86c-0.49-0.03-0.59,0.34-0.77,0.59c-1.11,1.57-2.23,3.14-3.3,4.74
		c-0.41,0.61-0.74,1.27-1.02,1.95c-1.5,3.67-2.96,7.35-4.44,11.03c-0.17,0.42-0.32,0.85-0.54,1.25c-0.92,1.66-2.34,2.57-4.24,2.71
		c-0.45,0.04-0.91,0.02-1.36,0.02c-7.93,0-15.87-0.01-23.8,0.01c-1.21,0-2.36-0.15-3.45-0.68c-0.5-0.24-1.04-0.39-1.64-0.61
		c-3.54,6.26-8.77,9.43-16,8.6c-5.06-0.58-9.61-4.02-11.34-8.18c0.12-0.35,0.45-0.29,0.71-0.29c1.7-0.01,3.4,0.02,5.1-0.02
		c0.89-0.02,1.6,0.21,2.34,0.76c2.38,1.76,5.05,2.19,7.9,1.37c2.22-0.65,3.9-2.04,5.16-3.94c0.26-0.39,0.31-0.93,0.49-1.51
		c0.59,0,1.21,0,1.83,0c6.18,0,12.36,0,18.53,0c0.51,0,1.02,0.03,1.53-0.03c2.74-0.31,4.11-3.1,2.66-5.44
		c-0.48-0.77-1.08-1.45-1.63-2.17c-0.86-1.12-1.73-2.24-2.55-3.3c0.1-0.44,0.23-0.76,0.23-1.09c0-0.62-0.71-0.97-1.23-0.64
		c-0.74,0.47-1.03,1.24-0.69,2.06c0.19,0.46,0.49,0.89,0.8,1.29c0.99,1.31,2,2.6,3.01,3.9c0.24,0.31,0.51,0.62,0.7,0.96
		c0.6,1.13,0.04,2.36-1.21,2.64c-0.38,0.08-0.79,0.07-1.18,0.07c-6.52,0-13.04,0-19.55,0.01c-0.68,0-1.27-0.18-1.92-0.45
		c-1.08-0.45-2.3-0.58-3.46-0.84c-0.27-0.06-0.55-0.11-0.89-0.17c0.05-0.27,0.05-0.5,0.14-0.68c1.92-3.85,3.85-7.7,5.78-11.54
		C186.09,22.76,186.21,22.64,186.44,22.36z M217.71,36.41c-0.03-0.49-0.04-0.88-0.08-1.26c-0.13-1.12,0.2-2.08,0.86-3
		c1.09-1.52,2.08-3.11,3.1-4.67c0.18-0.28,0.34-0.58,0.45-0.9c0.04-0.12-0.06-0.33-0.15-0.44c-0.17-0.2-0.44-0.2-0.6-0.03
		c-0.3,0.33-0.58,0.69-0.83,1.06c-0.85,1.26-1.68,2.54-2.43,3.67c-2.33,0-4.47,0-6.64,0c-0.9-1.35-1.76-2.68-2.65-3.99
		c-0.27-0.4-0.46-1-1.13-0.79c-0.37,0.11-0.29,0.66,0.24,1.47c0.99,1.52,1.95,3.06,3,4.53c0.66,0.92,0.98,1.87,0.91,3
		c-0.04,0.65-0.18,1.35,0.28,2.05c0.72,0,1.45-0.02,2.18,0.01c0.7,0.03,1.43-0.17,2.24,0.24c-1.34,1.14-2.58,1.86-4.34,1.83
		c-5.84-0.1-11.67-0.04-17.51-0.04c-0.68,0-1.36-0.01-2.04,0.01c-0.28,0.01-0.57,0.04-0.83,0.14c-0.34,0.13-0.54,0.42-0.52,0.79
		c0.02,0.38,0.27,0.65,0.63,0.69c0.5,0.07,1.02,0.06,1.53,0.06c4.87,0,9.75,0,14.62,0c1.81,0,3.63-0.01,5.44,0.01
		c0.64,0.01,1.21-0.12,1.76-0.49c2.44-1.65,4.94-3.21,7.34-4.91c3.26-2.3,5.19-5.49,5.87-9.4c0.35-2.01,0.51-4.04,0.74-6.07
		c0.03-0.28,0.03-0.57,0-0.85c-0.05-0.39-0.33-0.59-0.69-0.64c-0.38-0.06-0.67,0.15-0.82,0.47c-0.12,0.25-0.15,0.54-0.19,0.82
		c-0.22,1.8-0.43,3.6-0.66,5.39c-0.46,3.61-2.12,6.54-5.02,8.73c-1.08,0.82-2.25,1.53-3.38,2.27
		C218.24,36.28,218.01,36.31,217.71,36.41z M214.62,27.9c0.45-0.03,0.91-0.03,1.35-0.09c1.25-0.18,2.42-0.59,3.39-1.44
		c1.55-1.36,1.54-3.18-0.03-4.53c-0.17-0.15-0.35-0.29-0.55-0.4c-2.75-1.52-5.54-1.57-8.24,0.04c-2.33,1.4-2.27,3.84,0.03,5.31
		C211.81,27.59,213.17,27.91,214.62,27.9z M188.97,34.04c1.08,0,2.15,0.02,3.23,0c2.99-0.05,5.2-1.44,6.59-4.04
		c0.9-1.69,1.63-3.48,2.43-5.23c0.16-0.36,0.33-0.76-0.07-1.08c-0.27-0.22-0.68,0.05-0.97,0.67c-0.67,1.43-1.31,2.88-1.99,4.31
		c-0.26,0.56-0.53,1.13-0.9,1.63c-1.26,1.69-2.95,2.61-5.07,2.64c-2.15,0.03-4.3,0-6.45,0.02c-0.39,0-0.78,0.06-1.16,0.15
		c-0.12,0.03-0.25,0.25-0.25,0.39c0,0.13,0.12,0.35,0.23,0.39c0.32,0.09,0.66,0.14,0.99,0.15
		C186.71,34.05,187.84,34.04,188.97,34.04z"></path><path _ngcontent-motorbikeApp-c42="" d="M182.94,19.23c0.8,0.94,1.52,1.79,2.29,2.69c-2.22,4.46-4.4,8.85-6.6,13.15c-1.66,0.23-20.04,0.22-21.54-0.01
		c0.06-0.26,0.07-0.54,0.18-0.77c1.67-3.33,3.33-6.67,5.04-9.99c1-1.93,2.62-3.09,4.8-3.36c2.58-0.32,5.17-0.6,7.75-0.9
		c1.85-0.21,3.71-0.42,5.56-0.61C181.21,19.35,182,19.3,182.94,19.23z"></path><path _ngcontent-motorbikeApp-c42="" d="M141.81-18.88c0.18,0.19,0.53,0.04,0.64,0.41c0.32,1.08,0.71,2.15,1.04,3.22c2.14,6.91,4.28,13.82,6.42,20.74
		c0.15,0.48,0.31,0.94,0.5,1.48c0.65-0.38,0.87-0.98,1.16-1.51c0.37-0.65,0.84-0.97,1.6-1.07c3.98-0.51,7.96-1.07,12.04-1.63
		c1.86,1.58,3.75,3.18,5.69,4.81c-0.09,1.13-1.12,4.89-2.4,8.62c-0.34,0.05-0.72,0.15-1.1,0.16c-4.59,0.01-9.17,0-13.76,0.02
		c-0.73,0-1.25-0.22-1.78-0.75c-1.33-1.31-2.14-2.77-2.43-4.68c-0.81-5.2-2.39-10.23-3.65-15.33c-1.08-4.39-2.22-8.77-3.38-13.14
		c-0.12-0.46-0.07-1.03-0.55-1.37L141.81-18.88z"></path><path _ngcontent-motorbikeApp-c42="" d="M231.49,38.9c1.97-0.23,3.83-0.14,5.68-0.21c0.22,0.43,0.41,0.77,0.59,1.12c2.06,4.19,6.8,5.9,11.09,4.38
		c6.81-2.41,8.71-11.02,3.53-16.06c-0.38-0.37-0.9-0.64-1.21-1.17c1.32-0.25,4.65-0.24,6.81,0c2.89,3.56,3.71,10.47,0.4,15.84
		c-3.29,5.33-9.49,8.02-15.47,6.84C237.26,48.55,232.35,44.01,231.49,38.9z"></path><path _ngcontent-motorbikeApp-c42="" d="M201.37,21.21c-0.36,0.02-0.75,0.06-1.14,0.06c-4.25,0-8.5-0.02-12.74,0.02c-0.94,0.01-1.6-0.26-2.18-1
		c-0.63-0.79-1.38-1.48-2.08-2.21c-0.96-0.01-1.92-0.05-2.88-0.03c-1.36,0.02-2.72,0.07-4.07,0.09c-0.68,0.01-1.35,0-2.01,0
		c-0.56-0.62-0.81-1.27-0.86-2.1c0.48-0.23,0.92-0.46,1.38-0.66c2.29-0.98,4.6-1.92,6.87-2.93c1-0.45,2.01-0.72,3.1-0.77
		c0.79-0.04,1.58-0.13,2.37-0.14c1.56-0.02,2.87,0.56,3.88,1.76c0.44,0.52,0.87,1.05,1.28,1.59c2.26,2.96,7.27,2.99,9.59,0.71
		c0.61-0.59,1.24-1.16,1.86-1.74c0.46-0.44,1-0.75,1.62-0.87c0.2-0.04,0.42,0.04,0.65,0.06C205.54,14.35,202.31,20.01,201.37,21.21z
		"></path><path _ngcontent-motorbikeApp-c42="" d="M205.41,16.91c0.68-1.25,1.25-2.35,1.88-3.42c0.22-0.37,0.57-0.7,0.94-0.93c3.08-1.9,6.17-3.79,9.28-5.63
		c2.09-1.23,4.15-0.72,5.44,1.3c0.67,1.05,1.29,2.13,1.88,3.22c1.07,2.02,0.62,3.88-1.27,5.18c-2.12,1.46-4.51,2.17-7.07,1.9
		c-3.43-0.36-6.84-0.88-10.26-1.34C206.02,17.16,205.82,17.05,205.41,16.91z"></path><path _ngcontent-motorbikeApp-c42="" d="M235.17,12.85c-1.63-2.64-3.21-5.18-4.76-7.74c-0.23-0.38-0.42-0.82-0.47-1.25c-0.11-0.95-0.14-1.91-0.16-2.87
		c-0.04-1.88,2.09-2.82,3.37-2.1c0.15,0.08,0.31,0.14,0.45,0.23c2.45,1.4,4.9,2.81,7.34,4.22c0.19,0.11,0.35,0.27,0.58,0.44
		c-0.26,2.97-0.52,5.93-0.78,8.9c-0.22,0.07-0.38,0.17-0.53,0.17C238.59,12.85,236.95,12.85,235.17,12.85z"></path><path _ngcontent-motorbikeApp-c42="" d="M152.72,38.78c-0.01-0.27-0.03-0.6-0.04-0.86c0.14-0.14,0.2-0.25,0.29-0.29c1.1-0.5,2.24-0.71,3.45-0.7
		c7.53,0.03,15.06,0.03,22.59,0c1.21,0,2.36,0.22,3.52,0.48c0.36,0.08,0.66,0.31,0.59,0.69c-0.04,0.24-0.23,0.56-0.43,0.64
		c-1.56,0.65-3.09,1.27-4.87,1.25c-7.02-0.08-14.04-0.06-21.06-0.01C155.3,39.99,153.98,39.71,152.72,38.78z"></path><path _ngcontent-motorbikeApp-c42="" d="M181.03,6.43c-2.52,0.19-4.82,0.41-7.14,0.51c-1.27,0.05-2.47-0.35-3.46-1.19c-1.21-1.02-2.4-2.07-3.6-3.11
		c-0.02-0.87,0.41-1.56,0.65-2.3c0.23-0.7,0.46-1.41,0.79-2.06c0.79-1.56,2.69-1.75,3.77-0.37c0.59,0.75,1.09,1.58,1.58,2.41
		c1.01,1.7,2.43,2.81,4.39,3.17c0.28,0.05,0.55,0.13,0.82,0.2C180.11,4.07,180.81,4.92,181.03,6.43z"></path><path _ngcontent-motorbikeApp-c42="" d="M172.11,8.15c1.77-0.11,3.29-0.2,4.8-0.29c0.96-0.06,1.92-0.06,2.87-0.17c0.9-0.11,1.52,0.26,2.05,0.91
		c0.46,0.57,0.87,1.17,1.04,1.99c-1.3,0.81-2.75,1.27-4.12,1.88c-1.39,0.62-2.79,1.22-4.21,1.77c-1.42,0.55-2.86,1.01-4.28,1.51
		c-0.11-0.18-0.23-0.29-0.21-0.36C170.61,12.91,171.41,10.51,172.11,8.15z"></path><path _ngcontent-motorbikeApp-c42="" d="M244.86,8.21c0.05,1.48,0.12,2.86-0.05,4.29c-1.12,0.27-2.05,0.13-2.72-0.81c-0.54-0.75-0.56-1.61-0.15-2.39
		C242.51,8.2,243.5,7.93,244.86,8.21z"></path><path _ngcontent-motorbikeApp-c42="" d="M158.62,28.36c-0.16-1.72-0.2-3.39-0.12-5.13c0.9-0.25,1.72-0.17,2.61-0.08c-0.05,1.08-0.68,1.9-1.09,2.79
		C159.64,26.77,159.31,27.66,158.62,28.36z"></path><path _ngcontent-motorbikeApp-c42="" d="M244.1,14c0.07,1.22,0.13,2.33-0.04,3.42c-1.51,0.18-2.34-0.41-2.37-1.63c-0.01-0.53,0.13-1,0.52-1.37
		C242.61,14.05,242.89,13.98,244.1,14z"></path><path _ngcontent-motorbikeApp-c42="" d="M141.84-18.88c0.09-0.54-0.52-0.51-0.7-0.84c-0.23-0.42-0.16-0.94,0.2-1.21c0.36-0.27,0.95-0.19,1.17,0.22
		c0.12,0.22,0.2,0.57,0.11,0.77c-0.19,0.39-0.52,0.71-0.8,1.07C141.81-18.88,141.84-18.88,141.84-18.88z"></path><path _ngcontent-motorbikeApp-c42="" d="M216.66,34.01c-0.03,1.07-0.9,1.93-1.97,1.93c-1.11,0-2.05-0.98-2-2.09c0.04-1.05,0.94-1.92,1.99-1.92
		C215.82,31.92,216.7,32.85,216.66,34.01z"></path><path _ngcontent-motorbikeApp-c42="" d="M216.66,24.17c-0.02,1.15-0.95,2.01-2.1,1.95c-1.07-0.06-1.89-0.95-1.87-2.02c0.02-1.06,0.89-1.94,1.95-1.96
		C215.76,22.1,216.68,23.02,216.66,24.17z"></path></g></svg>