<svg _ngcontent-motorbikeApp-c42="" x="0px" y="0px" viewBox="0 0 125.54 75.04" xml:space="preserve" class="pointer fill-grey ng-star-inserted" style="enable-background: new 0 0 125.54 75.04;"><g _ngcontent-motorbikeApp-c42=""><path _ngcontent-motorbikeApp-c42="" d="M855.36-161.85c-1.31,1.05-2.57,2.02-3.79,3.04c-11.18,9.31-22.31,18.69-33.57,27.9c-4,3.27-6.73,7.13-7.95,12.18
		c-1.09,4.5-2.47,8.93-3.75,13.38c-0.31,1.06-0.72,2.09-1.17,3.39c-7.69,0.29-15.33-0.04-22.97-0.12
		c-7.66-0.08-15.32-0.35-22.79-0.53c-0.35-0.54-0.69-0.82-0.66-1.06c0.37-3.23-0.98-5.26-3.76-7.03
		c-7.28-4.64-14.35-9.6-21.48-14.47c-0.99-0.68-2.4-1.17-1.96-2.86c4.44-1.35,20.83-1.13,33.34,0.46c0.58,0.85,1.1,1.85,1.84,2.67
		c1.82,2.01,4.39,2.22,6.45,0.64c1.86-1.42,2.46-3.97,1.41-6c-1.17-2.26-3.81-3.52-6.07-2.2c-2.44,1.42-4.82,1.22-7.37,1.15
		c-9.9-0.27-19.78-1.44-29.32-0.55c-6.67-5.03-13.02-9.83-19.39-14.63c-6.21-4.68-12.48-9.3-18.87-14.26c1.62-1,2.87-0.6,4.03-0.37
		c10.25,2.07,18.76,7.08,25.41,15.17c1.01,1.23,1.95,2.51,3.06,3.96c1.34-0.38,2.65-0.93,3.99-1.07c1.41-0.14,2.87,0.14,4.3,0.19
		c4.79,0.18,9.59,0.36,14.38,0.51c1.75,0.05,3.5,0.01,5.39,0.01c1.88-3.02,3.72-5.99,5.73-9.2c0.94,0.67,1.74,1.13,2.42,1.74
		c1.79,1.6,3.52,3.26,5.27,4.9c1.06,0.99,1.75,2.08,2.14,3.59c1.16,4.47,5.04,5.69,8.24,2.51c1.53-1.52,3.15-2,5.07-2.23
		c3.65-0.43,7.3-0.85,10.96-1.27c2.88-0.33,5.53-1.12,8.08-2.69c11.29-6.96,22.7-13.75,34.04-20.62c1.07-0.65,2.06-1.46,2.99-2.32
		c0.23-0.21,0.19-0.96-0.01-1.3c-0.2-0.34-0.79-0.72-1.13-0.66c-0.76,0.13-1.52,0.44-2.19,0.83c-3.44,2.03-6.86,4.1-10.28,6.17
		c-8.35,5.04-16.71,10.06-25.03,15.14c-1.81,1.11-3.65,1.84-5.78,2.07c-5.08,0.55-10.13,1.25-14.88,1.86
		c-4.55-3.27-3.27-3.41-8.89-2.31c-2.83-2.65-5.84-5.46-8.99-8.41c1.13-2.87,2.79-5.19,4.4-7.76c2-0.33,4.28,0.74,6.23-1.08
		c1.63-1.53,2.56-3.18,2.25-5.47c1.73-0.44,3.1-0.82,4.49-1.12c7.34-1.6,14.68-3.16,22.02-4.77c1.08-0.24,2.19-0.52,3.16-1.01
		c0.38-0.19,0.72-1.12,0.57-1.54c-0.16-0.47-0.87-0.99-1.38-1.04c-0.76-0.07-1.56,0.23-2.34,0.4c-8.6,1.83-17.19,3.66-25.79,5.49
		c-0.94,0.2-1.87,0.46-2.81,0.58c-3.53,0.48-6.7,0.04-9.97-1.94c-12.98-7.87-26.17-15.41-39.26-23.1c-2.2-1.29-4.39-2.5-7.28-2.43
		c-0.14,3.84,0.48,7.04,3.57,9.86c11.34,10.34,22.47,20.91,33.68,31.39c1.28,1.19,2.54,2.4,3.98,3.78c-1.3,3.05-3.08,5.64-4.85,8.41
		c-1.15,0.06-2.24,0.19-3.33,0.18c-4.64-0.07-9.27-0.27-13.91-0.23c-2.06,0.02-3.72-0.55-5.22-1.92c-1.87-1.71-4.12-2.98-6-5.2
		c1.81-1.94,3.52-3.77,5.46-5.85c-0.12-4.72-0.07-9.65-0.98-14.73c-1.35-0.8-2.69-1.63-4.07-2.4
		c-11.71-6.57-23.41-13.16-35.16-19.66c-3.38-1.87-6.52-3.98-9.39-6.58c-4.62-4.19-9.38-8.22-14.06-12.34
		c-0.81-0.71-1.53-1.53-2.18-2.19c0.13-0.42,0.13-0.61,0.22-0.67c0.12-0.09,0.31-0.12,0.46-0.1c3.96,0.55,7.92,1.08,11.86,1.69
		c1.24,0.19,2.45,0.62,3.84,0.99c0.54-0.84,1.04-1.6,1.69-2.59c2.55,0.25,5.24,0.46,7.92,0.79c9.52,1.17,19.03,2.45,28.56,3.52
		c2.29,0.26,3.84,1.1,5.04,3.02c1.26,2.03,2.73,3.92,4.26,6.08c0.93-0.18,1.84-0.3,2.72-0.54c2.43-0.67,4.76-0.1,7.09,0.49
		c5.12,1.28,10.28,2.4,15.33,3.88c4.28,1.25,8.49,1.13,12.79,0.38c2.3-0.4,4.08-1.38,5.61-3.25c3.44-4.2,7.08-8.24,10.73-12.27
		c1.71-1.89,3.63-3.6,5.44-5.41c2.38-2.4,5.31-3.58,8.62-3.61c9.11-0.07,17.81,1.75,25.75,6.35c1.89,1.1,3.77,2.58,5.02,4.34
		c1.53,2.14,3.39,3.72,5.41,5.31c1.99,1.57,3.72,3.47,5.53,5.27c1.42,1.42,2.49,3.19,4.29,4.59c0.31-1.72-0.53-2.76-1.01-3.88
		c-1.01-2.35-1.72-4.94-3.23-6.92c-1.62-2.12-2.44-4.45-3.35-6.81c-0.8-2.08-1.52-4.19-2.3-6.34c-2.02-0.87-4.11-0.82-6.16-1
		c-0.96-0.08-1.92-0.07-2.87-0.2c-2.44-0.34-3.64-1.67-3.44-3.74c0.17-1.82,1.45-2.94,3.7-2.92c2.4,0.02,4.79,0.27,7.18,0.4
		c0.63,0.03,1.26,0.01,1.79,0.01c1.37-0.96,2.18-2.14,2.11-3.68c-0.12-2.71-0.32-5.42-0.59-8.12c-0.06-0.57-0.57-1.09-0.95-1.75
		c-2.21-0.08-4.38-0.17-6.79-0.26c0-0.94-0.04-1.55,0.01-2.15c0.27-3.65,0.55-7.3,0.83-10.91c3.46-0.23,4.08-0.02,4.8,2.64
		c0.72,2.69,2.01,5.05,3.49,7.31c1.44,2.2,2.2,4.55,2.33,7.17c0.09,1.9,0.43,3.78,0.67,5.78c2.96,0.77,5.83,0.27,8.66,0.29
		c1.92,0.01,3.84-0.07,5.75-0.05c1.6,0.02,2.78,0.83,3.37,2.28c1.92,4.74,3.81,9.49,5.65,14.25c0.65,1.68,0.21,3.14-1.29,4.21
		c-0.6,0.43-1.23,0.81-2.18,1.44c3.17,2.35,6.04,4.63,9.06,6.69c2.7,1.84,4.79,4.09,6.41,6.95c2.6,4.59,5.46,9.02,8.18,13.54
		c0.73,1.21,1.37,2.47,1.97,3.56c-0.42,1.27-1.33,1.08-2.06,1.17c-2.38,0.3-4.77,0.53-7.14,0.85c-1.97,0.27-3.76,0.02-5.47-1.14
		c-1.84-1.24-3.82-2.26-5.67-3.33c-1.28,1.03-0.39,1.91-0.07,2.65c3.6,8.36,7.27,16.69,10.91,25.04c0.69,1.6,1.31,3.23,2.04,5.01
		c-3.21,2.07-6.66,3.17-10.26,4.66c-0.55-0.95-1.07-1.72-1.45-2.54c-0.75-1.59-1.55-3.17-2.11-4.83
		C861.13-156.82,859.27-159.85,855.36-161.85z M778.06-196.68c0.47,0.5,0.74,0.92,1.12,1.16c7.83,4.96,15.68,9.89,23.5,14.87
		c1.32,0.84,2.6,0.96,4.1,0.67c3.61-0.68,7.27-1.11,10.86-1.89c1.98-0.43,3.8-0.3,5.62,0.44c3.4,1.39,6.84,2.7,10.17,4.24
		c8.12,3.76,16.19,7.63,24.28,11.45c0.69,0.33,1.39,0.86,2.34,0.04c-0.47-0.77-0.88-1.61-1.44-2.33
		c-7.33-9.48-14.66-18.96-22.05-28.4c-1.47-1.88-3.16-3.61-4.77-5.38c-2.52-2.76-5.63-4.7-9.01-6.22c-0.52-0.23-1.17-0.18-2.36-0.35
		c1.68,1.86,2.98,3.22,4.18,4.66c1.14,1.37,1.98,2.89,1.91,4.78c-0.06,1.54-1.28,2.76-2.81,2.54c-1.26-0.18-2.49-0.56-3.73-0.88
		c-7.58-1.94-15.15-3.93-22.75-5.83c-2.79-0.7-5.63-1.15-8.44-1.77c-1.32-0.29-2.57-0.24-3.67,0.56
		C782.27-202.23,779.76-199.84,778.06-196.68z M800.53-125.5c0.18-2.39-0.83-4.5-3.48-5.79c-1.43-0.69-2.8-1.54-4.09-2.46
		c-1.76-1.25-3.56-1.18-5.45-0.45c-4.73,1.83-7.95,7.07-7.58,12.16c0.16,2.21,0.92,3.94,3.02,5.02c1.7,0.86,3.31,1.91,4.91,2.95
		c1.49,0.97,3,0.91,4.57,0.37C797.04-115.27,800.48-120.12,800.53-125.5z M877.32-183.44c-1.13-2.22-2.59-3.67-3.84-5.26
		c-1.38-1.75-2.75-3.49-4.21-5.18c-1.26-1.46-2.24-3.22-4.21-4.63c1.35,4.26,5.41,11.94,7.9,15.07
		C874.21-183.44,875.56-183.44,877.32-183.44z"></path><path _ngcontent-motorbikeApp-c42="" d="M847.08-139.07c3.43,0.28,6.59,0.54,9.95,0.82c1.17,1.41,2.39,2.86,3.66,4.38c-0.7,1.59-1.36,3.03-1.97,4.48
		c-7.11,16.9,4.35,34.71,20.95,37.38c11.58,1.86,26.37-4.88,30.47-19.81c3.66-13.33-3.28-27.23-16.29-32.43
		c-1.61-0.64-3.26-1.17-4.96-1.78c0.04-2.04,1.54-2.92,2.56-4.01c4.11-4.4,2.29-3.56,8.05-4.27c6.62-0.81,5.64-1.6,11.26,3.28
		c13.3,11.57,18.03,26.31,13.39,43.2c-4.59,16.7-16.11,26.77-33.22,30.1c-22.27,4.34-47.29-11.71-48.98-39.17
		C841.47-124.53,843.2-131.76,847.08-139.07z"></path><path _ngcontent-motorbikeApp-c42="" d="M715.44-116.91c6.15-0.53,11.72-0.07,16.17,4.47c-0.58,15.67-15.66,31.82-32.9,35.45c-19.25,4.05-38.83-5.28-47.65-23.1
		c-8.68-17.55-3.77-39.16,9.76-50.31c0.94,1.39,1.73,2.93,2.88,4.12c1.09,1.13,2.58,1.86,3.85,2.83c1.88,1.44,4.07,2.49,5.76,4.53
		c-5.03,4.9-8.59,10.44-9.17,17.48c-0.45,5.4,0.56,10.48,3.28,15.2c5.52,9.6,16.13,14.02,25.5,12.7
		C704.72-95.19,712.21-102.94,715.44-116.91z"></path><path _ngcontent-motorbikeApp-c42="" d="M665.52-171.66c1.98-0.68,3.39,0.34,4.9,0.69c4.74,1.09,8.81,3.37,12.69,6.34c13.68,10.48,27.48,20.8,41.32,31.07
		c2.13,1.58,3.34,3.35,3.33,5.92c-0.01,1.07-0.07,2.24-0.49,3.2c-0.62,1.44-1.56,2.74-2.52,4.37c-1.07,0-2.16,0.05-3.25-0.01
		c-3.82-0.22-7.65-0.74-11.46-0.64c-4.09,0.11-7.27-1.45-10.47-3.79c-10.31-7.52-20.71-14.92-31.22-22.17
		c-2.47-1.7-3.7-3.72-4.15-6.55c-0.42-2.67-1.02-5.32-1.64-7.96c-0.45-1.94-0.42-3.75,0.57-5.55
		C664.05-168.39,664.79-170.14,665.52-171.66z"></path><path _ngcontent-motorbikeApp-c42="" d="M849.2-142.34c2.28-4.56,5.42-7.82,9.82-10.26c1.59,3.46,3.18,6.91,4.86,10.55c1.16-0.12,2.21-0.24,3.47-0.38
		c0.3,0.43,0.75,0.89,1,1.44c3.28,7.46,6.53,14.93,9.79,22.39c0.45,1.02,0.85,2.08,1.44,3.02c1.4,2.23,3.85,3.03,6.24,2.16
		c2.37-0.86,3.64-3.1,3.08-5.78c-0.25-1.23-0.79-2.42-1.29-3.59c-2.92-6.74-5.87-13.47-8.8-20.21c-0.5-1.16-0.96-2.33-1.51-3.68
		c0.94-0.72,1.79-1.38,2.82-2.17c-0.8-3.98-3.3-7.44-4.37-11.37c2.51-1.37,6.25-2.13,10.19-1.76c5.02,0.46,10.09,0.83,14.64,3.47
		c-0.48,1.26-1.4,0.89-2.07,1.03c-0.78,0.16-1.58,0.2-2.38,0.28c-1.82,0.17-3.35,0.81-4.57,2.28c-1.93,2.33-3.98,4.57-5.97,6.85
		c0.14,2.85,0.23,5.71,0.44,8.56c0.14,1.9,0.46,3.79,0.71,5.8c1.5,0.73,2.97,1.31,4.32,2.11c5.12,3.07,7.67,7.65,7.28,13.59
		c-0.39,5.94-3.46,10.27-9.01,12.48c-5.11,2.03-10.1,1.44-14.48-2.02c-4.73-3.72-6.22-8.73-5.2-14.54c0.24-1.39,0.74-2.74,1.21-4.42
		c-4-4.88-8.04-9.8-12.1-14.75C855.62-141.6,852.62-141.95,849.2-142.34z"></path><path _ngcontent-motorbikeApp-c42="" d="M685.11-130.98c5.59,3.97,11.41,8.11,17.29,12.29c0.69,2.99-0.58,5.36-2.15,7.58c-2.02,2.87-4.9,4.54-8.3,5.19
		c-6.46,1.23-13.06-2.79-14.96-9.09C675.02-121.55,678.41-129.29,685.11-130.98z"></path><path _ngcontent-motorbikeApp-c42="" d="M830.88-136.63c-0.33,1.82-0.83,3.28-1.31,4.77c-1.33,4.09-2.56,8.21-3.95,12.29c-0.4,1.16-0.95,2.46-1.82,3.25
		c-4.25,3.82-8.64,7.49-12.91,11.14c-1.31-0.64-0.85-1.5-0.68-2.14c1.17-4.3,2.41-8.59,3.64-12.88c0.72-2.52,2.07-4.68,4.05-6.37
		c3.76-3.21,7.57-6.36,11.39-9.51C829.59-136.34,830.09-136.37,830.88-136.63z"></path><path _ngcontent-motorbikeApp-c42="" d="M765.21-168.29c-0.99,4.13-3.58,7.31-5.83,10.7c-3.46-2.26-10.14-8.44-12.73-11.73c0.29-1.01,1.24-0.8,1.93-0.95
		c1.87-0.41,3.84-0.49,5.64-1.1C758.34-172.76,761.71-171.63,765.21-168.29z"></path><path _ngcontent-motorbikeApp-c42="" d="M728.14-119.08c0.73-1.35,1.38-2.55,2.18-4.04c0.9,0.47,1.6,0.75,2.22,1.16c6.74,4.54,13.47,9.09,20.19,13.65
		c0.79,0.53,1.63,1.05,2.25,1.75c0.68,0.77,0.66,1.81,0.05,2.65c-0.52,0.72-1.31,0.84-2.12,0.44c-0.57-0.28-1.13-0.58-1.67-0.91
		c-7.05-4.35-14.1-8.71-21.13-13.08C729.47-117.87,728.92-118.43,728.14-119.08z"></path><path _ngcontent-motorbikeApp-c42="" d="M871.02-144.27c0.81-0.35,1.78-0.77,2.88-1.25c0.49,0.82,0.98,1.45,1.29,2.16c3.31,7.56,6.6,15.14,9.86,22.72
		c0.37,0.86,0.69,1.79,0.72,2.7c0.02,0.47-0.57,1.17-1.05,1.39c-0.48,0.22-1.28,0.13-1.76-0.14c-0.5-0.29-0.89-0.91-1.13-1.47
		c-3.67-8.44-7.32-16.89-10.95-25.34C870.82-143.62,870.93-143.81,871.02-144.27z"></path><path _ngcontent-motorbikeApp-c42="" d="M720.6-194.72c1.09,0.57,2.2,1.11,3.26,1.73c3.58,2.07,7.09,4.27,10.73,6.22c1.87,1,2.84,2.42,3.24,4.39
		c0.34,1.7,0.71,3.39,1.05,5c-0.27,0.19-0.36,0.3-0.47,0.32c-0.15,0.03-0.37,0.04-0.46-0.05c-5.62-5.16-11.24-10.33-16.83-15.52
		c-0.44-0.41-0.75-0.96-1.12-1.45C720.19-194.29,720.39-194.5,720.6-194.72z"></path><path _ngcontent-motorbikeApp-c42="" d="M741.41-182.35c4.58,2.02,8.34,4.57,12.77,7.19c-3.79,1.61-7.12,2-10.7,2.13C742.58-176.08,741.67-178.9,741.41-182.35z"></path><path _ngcontent-motorbikeApp-c42="" d="M794.4-124.24c0.12,2.3-1.73,4.23-4.09,4.28c-2.22,0.04-4-1.49-4.23-3.62c-0.25-2.33,1.45-4.34,3.81-4.52
		C792.23-128.28,794.28-126.53,794.4-124.24z"></path></g><g _ngcontent-motorbikeApp-c42=""><path _ngcontent-motorbikeApp-c42="" d="M186.44,22.36c5.25,0,10.46,0,15.72,0c0.82-1.39,1.61-2.75,2.46-4.2c0.75,0.07,1.48,0.12,2.2,0.22
		c2.86,0.39,5.72,0.79,8.58,1.18c3.03,0.41,5.87-0.15,8.46-1.79c2.62-1.66,3.31-4.07,1.96-6.87c-0.1-0.2-0.19-0.4-0.33-0.7
		c0.3-0.15,0.58-0.32,0.87-0.44c0.63-0.24,1.27-0.45,1.99-0.7c-0.44-1.24-1.02-2.08-2.35-2.45c-2.45-0.68-4.87-1.51-7.28-2.33
		c-0.64-0.22-1.19-0.23-1.79,0.06c-0.66,0.32-1.35,0.58-2.04,0.84c-0.31,0.12-0.65,0.2-0.98,0.23c-0.5,0.04-0.91-0.26-1.04-0.7
		c-0.14-0.46-0.1-0.91,0.27-1.25c0.2-0.19,0.46-0.33,0.72-0.44c2.8-1.21,5.61-2.42,8.42-3.62c0.05-0.02,0.11,0,0.24,0.01
		c0.35,0.42,0.74,0.87,1.25,1.47c0.17-0.4,0.29-0.64,0.38-0.88c0.47-1.45,0.88-2.93,1.42-4.36c0.35-0.93,0.27-1.7-0.21-2.57
		c-1.65-2.99-2.79-6.19-3.48-9.53c-0.04-0.21-0.05-0.44-0.1-0.87c0.33,0.32,0.57,0.46,0.7,0.68c0.61,0.96,1.2,1.92,1.77,2.9
		c1.16,2.01,2.32,4.02,3.42,6.06c0.76,1.4,1.61,2.73,2.68,3.91c0.33,0.37,0.6,0.79,0.95,1.26c-0.38,0.22-0.67,0.37-0.96,0.55
		c-1.28,0.8-1.83,1.97-1.75,3.45c0.05,0.85,0.1,1.7,0.24,2.53c0.09,0.54,0.27,1.11,0.55,1.58c1.67,2.76,3.37,5.5,5.12,8.33
		c1.26,0.04,2.53,0.08,3.92,0.13c-0.27,0.72-0.94,0.8-1.25,1.26c0.24,1.19,1.5,3.89,2.37,5.1c1.56-0.31,3.1-0.69,4.66-0.91
		c3.72-0.51,7.22,0.15,10.41,2.2c1.49,0.96,2.73,2.17,3.53,3.72c-0.18,0.45-0.5,0.34-0.76,0.34c-3-0.07-6-0.16-9.01-0.24
		c-1.79-0.05-3.49,0.34-5.13,1c-0.25,0.1-0.46,0.29-0.76,0.48c0.51,1.06,1,2.07,1.51,3.12c1.69-0.34,3.24-0.22,4.62,0.76
		c0.95,0.68,1.63,1.56,1.98,2.69c0.69,2.28-0.2,4.68-2.2,5.92c-2,1.24-4.59,0.98-6.29-0.62c-1.99-1.88-2.09-4.29-0.26-7.5
		c-0.25-0.44-0.51-0.93-0.8-1.41c-0.29-0.48-0.6-0.94-0.86-1.34c-0.52-0.1-0.73,0.2-0.97,0.43c-1.86,1.75-2.92,3.86-2.89,6.46
		c0.01,0.62-0.03,1.24-0.05,1.88c-1.04,0.46-2.07,0.26-3.06,0.29c-1.01,0.03-2.03,0.18-3.02-0.05c-0.56-1.86-0.11-5.7,1.01-8.47
		c1.09-2.69,2.95-4.8,5.14-6.74c-0.18-0.74-0.62-1.3-1.03-1.86c-0.49-0.03-0.59,0.34-0.77,0.59c-1.11,1.57-2.23,3.14-3.3,4.74
		c-0.41,0.61-0.74,1.27-1.02,1.95c-1.5,3.67-2.96,7.35-4.44,11.03c-0.17,0.42-0.32,0.85-0.54,1.25c-0.92,1.66-2.34,2.57-4.24,2.71
		c-0.45,0.04-0.91,0.02-1.36,0.02c-7.93,0-15.87-0.01-23.8,0.01c-1.21,0-2.36-0.15-3.45-0.68c-0.5-0.24-1.04-0.39-1.64-0.61
		c-3.54,6.26-8.77,9.43-16,8.6c-5.06-0.58-9.61-4.02-11.34-8.18c0.12-0.35,0.45-0.29,0.71-0.29c1.7-0.01,3.4,0.02,5.1-0.02
		c0.89-0.02,1.6,0.21,2.34,0.76c2.38,1.76,5.05,2.19,7.9,1.37c2.22-0.65,3.9-2.04,5.16-3.94c0.26-0.39,0.31-0.93,0.49-1.51
		c0.59,0,1.21,0,1.83,0c6.18,0,12.36,0,18.53,0c0.51,0,1.02,0.03,1.53-0.03c2.74-0.31,4.11-3.1,2.66-5.44
		c-0.48-0.77-1.08-1.45-1.63-2.17c-0.86-1.12-1.73-2.24-2.55-3.3c0.1-0.44,0.23-0.76,0.23-1.09c0-0.62-0.71-0.97-1.23-0.64
		c-0.74,0.47-1.03,1.24-0.69,2.06c0.19,0.46,0.49,0.89,0.8,1.29c0.99,1.31,2,2.6,3.01,3.9c0.24,0.31,0.51,0.62,0.7,0.96
		c0.6,1.13,0.04,2.36-1.21,2.64c-0.38,0.08-0.79,0.07-1.18,0.07c-6.52,0-13.04,0-19.55,0.01c-0.68,0-1.27-0.18-1.92-0.45
		c-1.08-0.45-2.3-0.58-3.46-0.84c-0.27-0.06-0.55-0.11-0.89-0.17c0.05-0.27,0.05-0.5,0.14-0.68c1.92-3.85,3.85-7.7,5.78-11.54
		C186.09,22.76,186.21,22.64,186.44,22.36z M217.71,36.41c-0.03-0.49-0.04-0.88-0.08-1.26c-0.13-1.12,0.2-2.08,0.86-3
		c1.09-1.52,2.08-3.11,3.1-4.67c0.18-0.28,0.34-0.58,0.45-0.9c0.04-0.12-0.06-0.33-0.15-0.44c-0.17-0.2-0.44-0.2-0.6-0.03
		c-0.3,0.33-0.58,0.69-0.83,1.06c-0.85,1.26-1.68,2.54-2.43,3.67c-2.33,0-4.47,0-6.64,0c-0.9-1.35-1.76-2.68-2.65-3.99
		c-0.27-0.4-0.46-1-1.13-0.79c-0.37,0.11-0.29,0.66,0.24,1.47c0.99,1.52,1.95,3.06,3,4.53c0.66,0.92,0.98,1.87,0.91,3
		c-0.04,0.65-0.18,1.35,0.28,2.05c0.72,0,1.45-0.02,2.18,0.01c0.7,0.03,1.43-0.17,2.24,0.24c-1.34,1.14-2.58,1.86-4.34,1.83
		c-5.84-0.1-11.67-0.04-17.51-0.04c-0.68,0-1.36-0.01-2.04,0.01c-0.28,0.01-0.57,0.04-0.83,0.14c-0.34,0.13-0.54,0.42-0.52,0.79
		c0.02,0.38,0.27,0.65,0.63,0.69c0.5,0.07,1.02,0.06,1.53,0.06c4.87,0,9.75,0,14.62,0c1.81,0,3.63-0.01,5.44,0.01
		c0.64,0.01,1.21-0.12,1.76-0.49c2.44-1.65,4.94-3.21,7.34-4.91c3.26-2.3,5.19-5.49,5.87-9.4c0.35-2.01,0.51-4.04,0.74-6.07
		c0.03-0.28,0.03-0.57,0-0.85c-0.05-0.39-0.33-0.59-0.69-0.64c-0.38-0.06-0.67,0.15-0.82,0.47c-0.12,0.25-0.15,0.54-0.19,0.82
		c-0.22,1.8-0.43,3.6-0.66,5.39c-0.46,3.61-2.12,6.54-5.02,8.73c-1.08,0.82-2.25,1.53-3.38,2.27
		C218.24,36.28,218.01,36.31,217.71,36.41z M214.62,27.9c0.45-0.03,0.91-0.03,1.35-0.09c1.25-0.18,2.42-0.59,3.39-1.44
		c1.55-1.36,1.54-3.18-0.03-4.53c-0.17-0.15-0.35-0.29-0.55-0.4c-2.75-1.52-5.54-1.57-8.24,0.04c-2.33,1.4-2.27,3.84,0.03,5.31
		C211.81,27.59,213.17,27.91,214.62,27.9z M188.97,34.04c1.08,0,2.15,0.02,3.23,0c2.99-0.05,5.2-1.44,6.59-4.04
		c0.9-1.69,1.63-3.48,2.43-5.23c0.16-0.36,0.33-0.76-0.07-1.08c-0.27-0.22-0.68,0.05-0.97,0.67c-0.67,1.43-1.31,2.88-1.99,4.31
		c-0.26,0.56-0.53,1.13-0.9,1.63c-1.26,1.69-2.95,2.61-5.07,2.64c-2.15,0.03-4.3,0-6.45,0.02c-0.39,0-0.78,0.06-1.16,0.15
		c-0.12,0.03-0.25,0.25-0.25,0.39c0,0.13,0.12,0.35,0.23,0.39c0.32,0.09,0.66,0.14,0.99,0.15
		C186.71,34.05,187.84,34.04,188.97,34.04z"></path><path _ngcontent-motorbikeApp-c42="" d="M182.94,19.23c0.8,0.94,1.52,1.79,2.29,2.69c-2.22,4.46-4.4,8.85-6.6,13.15c-1.66,0.23-20.04,0.22-21.54-0.01
		c0.06-0.26,0.07-0.54,0.18-0.77c1.67-3.33,3.33-6.67,5.04-9.99c1-1.93,2.62-3.09,4.8-3.36c2.58-0.32,5.17-0.6,7.75-0.9
		c1.85-0.21,3.71-0.42,5.56-0.61C181.21,19.35,182,19.3,182.94,19.23z"></path><path _ngcontent-motorbikeApp-c42="" d="M141.81-18.88c0.18,0.19,0.53,0.04,0.64,0.41c0.32,1.08,0.71,2.15,1.04,3.22c2.14,6.91,4.28,13.82,6.42,20.74
		c0.15,0.48,0.31,0.94,0.5,1.48c0.65-0.38,0.87-0.98,1.16-1.51c0.37-0.65,0.84-0.97,1.6-1.07c3.98-0.51,7.96-1.07,12.04-1.63
		c1.86,1.58,3.75,3.18,5.69,4.81c-0.09,1.13-1.12,4.89-2.4,8.62c-0.34,0.05-0.72,0.15-1.1,0.16c-4.59,0.01-9.17,0-13.76,0.02
		c-0.73,0-1.25-0.22-1.78-0.75c-1.33-1.31-2.14-2.77-2.43-4.68c-0.81-5.2-2.39-10.23-3.65-15.33c-1.08-4.39-2.22-8.77-3.38-13.14
		c-0.12-0.46-0.07-1.03-0.55-1.37L141.81-18.88z"></path><path _ngcontent-motorbikeApp-c42="" d="M231.49,38.9c1.97-0.23,3.83-0.14,5.68-0.21c0.22,0.43,0.41,0.77,0.59,1.12c2.06,4.19,6.8,5.9,11.09,4.38
		c6.81-2.41,8.71-11.02,3.53-16.06c-0.38-0.37-0.9-0.64-1.21-1.17c1.32-0.25,4.65-0.24,6.81,0c2.89,3.56,3.71,10.47,0.4,15.84
		c-3.29,5.33-9.49,8.02-15.47,6.84C237.26,48.55,232.35,44.01,231.49,38.9z"></path><path _ngcontent-motorbikeApp-c42="" d="M201.37,21.21c-0.36,0.02-0.75,0.06-1.14,0.06c-4.25,0-8.5-0.02-12.74,0.02c-0.94,0.01-1.6-0.26-2.18-1
		c-0.63-0.79-1.38-1.48-2.08-2.21c-0.96-0.01-1.92-0.05-2.88-0.03c-1.36,0.02-2.72,0.07-4.07,0.09c-0.68,0.01-1.35,0-2.01,0
		c-0.56-0.62-0.81-1.27-0.86-2.1c0.48-0.23,0.92-0.46,1.38-0.66c2.29-0.98,4.6-1.92,6.87-2.93c1-0.45,2.01-0.72,3.1-0.77
		c0.79-0.04,1.58-0.13,2.37-0.14c1.56-0.02,2.87,0.56,3.88,1.76c0.44,0.52,0.87,1.05,1.28,1.59c2.26,2.96,7.27,2.99,9.59,0.71
		c0.61-0.59,1.24-1.16,1.86-1.74c0.46-0.44,1-0.75,1.62-0.87c0.2-0.04,0.42,0.04,0.65,0.06C205.54,14.35,202.31,20.01,201.37,21.21z
		"></path><path _ngcontent-motorbikeApp-c42="" d="M205.41,16.91c0.68-1.25,1.25-2.35,1.88-3.42c0.22-0.37,0.57-0.7,0.94-0.93c3.08-1.9,6.17-3.79,9.28-5.63
		c2.09-1.23,4.15-0.72,5.44,1.3c0.67,1.05,1.29,2.13,1.88,3.22c1.07,2.02,0.62,3.88-1.27,5.18c-2.12,1.46-4.51,2.17-7.07,1.9
		c-3.43-0.36-6.84-0.88-10.26-1.34C206.02,17.16,205.82,17.05,205.41,16.91z"></path><path _ngcontent-motorbikeApp-c42="" d="M235.17,12.85c-1.63-2.64-3.21-5.18-4.76-7.74c-0.23-0.38-0.42-0.82-0.47-1.25c-0.11-0.95-0.14-1.91-0.16-2.87
		c-0.04-1.88,2.09-2.82,3.37-2.1c0.15,0.08,0.31,0.14,0.45,0.23c2.45,1.4,4.9,2.81,7.34,4.22c0.19,0.11,0.35,0.27,0.58,0.44
		c-0.26,2.97-0.52,5.93-0.78,8.9c-0.22,0.07-0.38,0.17-0.53,0.17C238.59,12.85,236.95,12.85,235.17,12.85z"></path><path _ngcontent-motorbikeApp-c42="" d="M152.72,38.78c-0.01-0.27-0.03-0.6-0.04-0.86c0.14-0.14,0.2-0.25,0.29-0.29c1.1-0.5,2.24-0.71,3.45-0.7
		c7.53,0.03,15.06,0.03,22.59,0c1.21,0,2.36,0.22,3.52,0.48c0.36,0.08,0.66,0.31,0.59,0.69c-0.04,0.24-0.23,0.56-0.43,0.64
		c-1.56,0.65-3.09,1.27-4.87,1.25c-7.02-0.08-14.04-0.06-21.06-0.01C155.3,39.99,153.98,39.71,152.72,38.78z"></path><path _ngcontent-motorbikeApp-c42="" d="M181.03,6.43c-2.52,0.19-4.82,0.41-7.14,0.51c-1.27,0.05-2.47-0.35-3.46-1.19c-1.21-1.02-2.4-2.07-3.6-3.11
		c-0.02-0.87,0.41-1.56,0.65-2.3c0.23-0.7,0.46-1.41,0.79-2.06c0.79-1.56,2.69-1.75,3.77-0.37c0.59,0.75,1.09,1.58,1.58,2.41
		c1.01,1.7,2.43,2.81,4.39,3.17c0.28,0.05,0.55,0.13,0.82,0.2C180.11,4.07,180.81,4.92,181.03,6.43z"></path><path _ngcontent-motorbikeApp-c42="" d="M172.11,8.15c1.77-0.11,3.29-0.2,4.8-0.29c0.96-0.06,1.92-0.06,2.87-0.17c0.9-0.11,1.52,0.26,2.05,0.91
		c0.46,0.57,0.87,1.17,1.04,1.99c-1.3,0.81-2.75,1.27-4.12,1.88c-1.39,0.62-2.79,1.22-4.21,1.77c-1.42,0.55-2.86,1.01-4.28,1.51
		c-0.11-0.18-0.23-0.29-0.21-0.36C170.61,12.91,171.41,10.51,172.11,8.15z"></path><path _ngcontent-motorbikeApp-c42="" d="M244.86,8.21c0.05,1.48,0.12,2.86-0.05,4.29c-1.12,0.27-2.05,0.13-2.72-0.81c-0.54-0.75-0.56-1.61-0.15-2.39
		C242.51,8.2,243.5,7.93,244.86,8.21z"></path><path _ngcontent-motorbikeApp-c42="" d="M158.62,28.36c-0.16-1.72-0.2-3.39-0.12-5.13c0.9-0.25,1.72-0.17,2.61-0.08c-0.05,1.08-0.68,1.9-1.09,2.79
		C159.64,26.77,159.31,27.66,158.62,28.36z"></path><path _ngcontent-motorbikeApp-c42="" d="M244.1,14c0.07,1.22,0.13,2.33-0.04,3.42c-1.51,0.18-2.34-0.41-2.37-1.63c-0.01-0.53,0.13-1,0.52-1.37
		C242.61,14.05,242.89,13.98,244.1,14z"></path><path _ngcontent-motorbikeApp-c42="" d="M141.84-18.88c0.09-0.54-0.52-0.51-0.7-0.84c-0.23-0.42-0.16-0.94,0.2-1.21c0.36-0.27,0.95-0.19,1.17,0.22
		c0.12,0.22,0.2,0.57,0.11,0.77c-0.19,0.39-0.52,0.71-0.8,1.07C141.81-18.88,141.84-18.88,141.84-18.88z"></path><path _ngcontent-motorbikeApp-c42="" d="M216.66,34.01c-0.03,1.07-0.9,1.93-1.97,1.93c-1.11,0-2.05-0.98-2-2.09c0.04-1.05,0.94-1.92,1.99-1.92
		C215.82,31.92,216.7,32.85,216.66,34.01z"></path><path _ngcontent-motorbikeApp-c42="" d="M216.66,24.17c-0.02,1.15-0.95,2.01-2.1,1.95c-1.07-0.06-1.89-0.95-1.87-2.02c0.02-1.06,0.89-1.94,1.95-1.96
		C215.76,22.1,216.68,23.02,216.66,24.17z"></path></g><g _ngcontent-motorbikeApp-c42=""><path _ngcontent-motorbikeApp-c42="" d="M85.53,64.73c-0.77,0.03-1.37,0.08-1.98,0.08c-2.27,0.01-4.53-0.04-6.8,0.01c-6.7,0.15-13.29-0.62-19.79-2.29
		c-1-0.26-2-0.49-3-0.74c-0.04-0.01-0.07-0.09-0.1-0.16c0.03-0.63,0.63-0.66,1.01-0.87c3.53-1.91,6.74-4.24,9.6-7.05
		c1.17-1.15,2.24-2.41,3.31-3.66c0.49-0.57,0.86-1.24,1.28-1.86c0.79-1.14,0.83-2.28,0.04-3.45c-1-1.48-1.98-2.97-2.97-4.45
		c-0.38-0.56-0.77-1.11-1.2-1.73c0.64-1.2,1.25-2.35,1.85-3.5c0.28-0.55,0.81-0.7,1.32-0.9c1.99-0.76,3.98-1.52,5.96-2.28
		c0.64-0.24,1.27-0.51,2.01-0.8c0.23-0.91,0.46-1.82,0.69-2.74c-1.41-1.53-3.08-2.43-4.95-2.96c-0.94-0.27-1.9-0.12-2.85,0.1
		c-5.28,1.24-10.56,2.45-15.85,3.67c-1.54,0.36-3.09,0.68-4.61,1.1c-1.15,0.32-2.29,0.38-3.46,0.29c-3.15-0.25-6.3-0.51-9.45-0.7
		c-0.88-0.05-1.56-0.44-2.27-0.87c-6.35-3.84-12.47-8.03-18.63-12.15c-0.91-0.61-1.83-1.22-2.73-1.84c-0.2-0.14-0.36-0.34-0.56-0.53
		c0.2-0.14,0.3-0.27,0.39-0.26c5.06,0.45,10.11,0.9,15.2,1.36c0.56,0.85,1.1,1.65,1.62,2.45c1.12,1.73,2.3,3.42,3.32,5.21
		c0.79,1.39,1.85,2.3,3.32,2.88c1.53,0.6,3,1.36,4.49,2.07c0.57,0.27,1.14,0.43,1.78,0.34c4.15-0.59,8.3-1.16,12.44-1.74
		c0.18-0.03,0.35-0.18,0.65-0.34c-0.25-0.49-0.45-0.99-0.74-1.42c-0.57-0.84-0.54-1.73-0.12-2.54c0.4-0.78,0.91-1.55,1.53-2.17
		c2.53-2.51,5.55-3.97,9.18-4.06c3.4-0.08,6.71,0.5,9.95,1.46c3.03,0.89,6.02,1.91,9,2.95c3.93,1.37,7.94,2.19,12.11,2.11
		c1.02-0.02,2.05-0.19,3.06-0.36c0.53-0.09,1.07-0.28,1.55-0.53c1.65-0.86,1.92-2.43,0.57-3.68c-0.69-0.64-1.54-1.15-2.38-1.59
		c-1.84-0.95-3.83-1.5-5.82-2.02c-0.72-0.19-1.45-0.37-2.27-0.58c0-0.43-0.05-0.83,0.01-1.21c0.3-1.89,1.26-4.61,2.33-6.67
		c0.28,0.17,0.59,0.29,0.83,0.5c4.56,4.08,9,8.27,12.9,13c1.26,1.53,2.43,3.16,3.52,4.82c0.67,1.02,1.18,2.17,1.63,3.31
		c0.26,0.68,0.29,1.47,0.36,2.21c0.06,0.75-0.31,1.35-0.96,1.69c-0.72,0.38-1.48,0.72-2.26,0.98c-1.36,0.46-2.75,0.85-4.13,1.27
		c-7.08,2.17-12.51,6.47-16.31,12.78c-1.09,1.82-1.97,3.76-2.93,5.66c-0.44,0.88-0.55,1.78-0.43,2.79c0.34,2.93,0.57,5.87,0.83,8.81
		C85.62,64.11,85.57,64.32,85.53,64.73z M90.41,36.59c-0.03-0.05-0.07-0.14-0.1-0.14c-2.34-0.06-4.63,0.34-6.9,0.84
		c-0.49,0.11-0.83,0.44-1.05,0.9c-1.02,2.16-2.04,4.32-3.05,6.49c-0.01,0.03,0.07,0.11,0.14,0.21c0.16-0.06,0.37-0.08,0.51-0.19
		c3.45-2.58,6.9-5.17,10.34-7.76C90.38,36.88,90.37,36.71,90.41,36.59z M66.17,59.4c0.3,0.04,0.59,0.12,0.89,0.12
		c3.02-0.02,6.04,0.08,9.05-0.38c2.7-0.41,2.49-1.45,1.54-3.17c-1.24-2.23-2.86-4.19-4.6-6.05c-0.08-0.09-0.24-0.11-0.52-0.24
		c0.12,0.48,0.16,0.88,0.33,1.22c0.79,1.6,1.64,3.17,2.43,4.77c0.2,0.4,0.59,0.78,0.32,1.44C72.55,57.94,69.24,58.04,66.17,59.4z"></path><path _ngcontent-motorbikeApp-c42="" d="M68.44,46.51c-0.32,0.56-0.61,1.18-0.99,1.74c-3.36,4.88-9.99,10.2-15.34,12.29
		c-0.38-1.04-1.16-1.73-2.09-2.33c-2.7-1.76-5.36-3.59-8.03-5.4c-0.62-0.42-1.23-0.86-1.79-1.25c-0.09-0.21-0.19-0.33-0.19-0.46
		c-0.12-1.86-1.14-3.04-2.64-4.11c-3.86-2.74-7.6-5.66-11.38-8.52c-0.41-0.31-1-0.51-1.08-1.3c2.47,0.28,4.66,1.19,6.72,2.46
		c2.07,1.27,3.77,2.95,5.26,4.98c1.31-0.42,2.54-0.81,3.77-1.2c1.24-0.4,2.48-0.8,3.72-1.21c0.39-0.13,0.79-0.26,1.14-0.47
		c0.99-0.61,1.21-1.98,0.43-2.86c-0.36-0.4-0.83-0.71-1.27-1.03c-2.4-1.73-4.8-3.44-7.2-5.16c-0.42-0.3-0.82-0.64-1.22-0.96
		c0.38-0.56,0.82-0.36,1.19-0.34c2.67,0.16,5.35,0.33,8.02,0.52c1.11,0.08,2.18-0.03,3.26-0.29c6.48-1.54,12.96-3.04,19.44-4.55
		c0.2-0.05,0.41-0.07,0.6-0.13c2.18-0.76,4.04,0.01,5.78,1.26c0.87,0.62,0.8,1.69-0.18,2.11c-1.64,0.69-3.33,1.29-4.99,1.95
		c-1.08,0.43-2.34,0.67-3.17,1.4c-0.83,0.73-1.23,1.95-1.79,2.97c-0.36,0.66-0.69,1.33-1.06,2.05
		C64.97,41.29,67.14,43.55,68.44,46.51z M50.59,44.48c1.08,0.98,1.92,1.79,2.8,2.54c0.62,0.53,0.93,0.56,1.25,0.25
		c0.35-0.34,0.22-0.74-0.46-1.35c-0.41-0.37-0.85-0.7-1.25-1.07c-0.9-0.83-1.38-1.87-1.38-3.1c0-0.55-0.03-1.1,0.01-1.65
		c0.1-1.38,0.82-2.39,2.13-2.73c1.33-0.35,2.75-1.12,4.06,0.14c0.13,0.12,0.39,0.12,0.59,0.14c0.92,0.09,1.8-0.44,2.14-1.28
		c0.37-0.9,0.02-1.95-0.84-2.52c-0.79-0.52-1.76-0.47-2.45,0.21c-0.38,0.38-0.67,0.85-1.01,1.3c-0.73,0.17-1.47,0.33-2.2,0.52
		c-2.54,0.63-3.71,2.07-3.79,4.65c-0.02,0.81,0,1.62,0,2.5c-0.39,0.13-0.7,0.26-1.02,0.33c-0.94,0.21-1.89,0.36-2.82,0.6
		c-1.62,0.42-2.69,1.47-2.9,3.12c-0.39,3.14,0.45,4.65,3.09,6.38c0.15,0.1,0.57-0.01,0.69-0.16c0.13-0.16,0.16-0.56,0.04-0.72
		c-0.28-0.38-0.65-0.71-1.02-1c-1.36-1.04-1.61-2.47-1.46-4.05c0.11-1.15,0.69-1.93,1.83-2.19C47.95,45.02,49.29,44.75,50.59,44.48z
		 M65.07,45.78c0-0.41-0.03-0.82,0.01-1.23c0.08-0.92-0.33-1.56-1.03-2.1c-1.89-1.46-4.64-1.42-6.48,0.09
		c-0.56,0.46-0.9,1.01-0.88,1.76c0.02,0.68,0.07,1.38-0.01,2.05c-0.2,1.66,0.72,2.55,2.08,3.14c1.32,0.57,2.65,0.61,4,0.09
		c1.78-0.69,2.3-1.46,2.31-3.39C65.07,46.06,65.07,45.92,65.07,45.78z M49.05,46.37c-1.12,0.01-2.07,0.97-2.07,2.1
		c0,1.16,0.91,2.06,2.08,2.06c1.16,0,2.08-0.92,2.07-2.07C51.13,47.36,50.14,46.36,49.05,46.37z"></path><path _ngcontent-motorbikeApp-c42="" d="M9.97,41.87c1.42,1.99,3.7,2.75,5.32,4.41c-0.19,0.64-0.74,0.98-1.13,1.42c-5.17,5.89-2.57,15.01,4.93,17.29
		c5.8,1.76,11.93-1.76,13.42-7.72c0.13-0.52,0.24-1.05,0.38-1.63c1.59-0.14,3.1-0.06,4.56,0.22c0.81,0.16,1.52,0.85,2.21,1.26
		c-0.25,6.9-6.48,13.59-13.81,15.14c-7.81,1.65-16.19-2.12-19.88-9.81C2.16,54.5,5.15,45.72,9.97,41.87z"></path><path _ngcontent-motorbikeApp-c42="" d="M91.43,46.37c0.63,0,1.23,0,1.84,0c0.51,0.01,0.92,0.24,1.23,0.64c0.56,0.69,1.12,1.38,1.73,2.13
		c-0.22,0.6-0.42,1.17-0.65,1.73c-2.71,6.64,2.02,14.49,9.9,14.64c5.1,0.1,9.52-3.55,10.62-8.63c1.03-4.76-1.57-9.81-6.12-11.86
		c-0.69-0.31-1.4-0.56-2.06-0.82c-0.46-0.8-0.35-1.47,0.26-2.09c0.43-0.44,0.83-0.91,1.26-1.36c1.17-1.23,2.17-1.44,3.66-0.65
		c4.36,2.3,7.25,5.84,8.47,10.61c2.24,8.82-2.94,17.59-11.72,20c-9.07,2.49-18.46-3.24-20.41-12.44c-0.83-3.91-0.32-7.63,1.53-11.17
		C91.08,46.85,91.25,46.64,91.43,46.37z"></path><path _ngcontent-motorbikeApp-c42="" d="M37.2,54.33c-2.58-0.12-4.9-0.25-7.23-0.34c-0.92-0.04-1.72-0.3-2.48-0.84c-4.96-3.56-9.94-7.09-14.93-10.61
		c-0.66-0.46-1.06-1-1.19-1.81c-0.17-1.08-0.35-2.18-0.68-3.21c-0.5-1.55-0.29-2.95,0.54-4.31c0.18-0.29,0.29-0.62,0.46-0.92
		c0.06-0.11,0.2-0.18,0.43-0.37c2.31,0.72,4.7,1.29,6.8,2.92c5.96,4.63,12.03,9.11,18.08,13.62c0.89,0.66,1.42,1.4,1.53,2.51
		c0.05,0.5,0.06,0.94-0.19,1.38C37.98,52.98,37.61,53.62,37.2,54.33z"></path><path _ngcontent-motorbikeApp-c42="" d="M106.76,48.47c4.31,1.89,5.97,5.03,4.65,8.5c-1.19,3.13-4.49,4.76-7.69,3.78c-3.68-1.13-5.06-4.37-3.84-9.03
		c-0.77-1.29-3.82-5.08-5.31-6.57c-0.97-0.09-1.99-0.18-3.14-0.29c0.08-0.33,0.07-0.63,0.21-0.8c1.23-1.57,2.61-3,4.2-4.22
		c0.15-0.12,0.36-0.16,0.66-0.28c0.27,0.47,0.57,0.92,0.79,1.39c1.98,4.22,3.94,8.45,5.91,12.67c0.26,0.56,0.52,1.13,0.85,1.64
		c0.4,0.63,1.19,0.79,1.81,0.44c0.54-0.31,0.79-0.93,0.58-1.6c-0.16-0.52-0.4-1.02-0.63-1.52c-1.97-4.22-3.95-8.44-5.92-12.67
		c-0.31-0.67-0.59-1.36-0.87-2.02c3.4-2.18,10.98-1.94,13.77,0.01c-0.66,0.48-1.44,0.45-2.17,0.51c-0.66,0.05-1.17,0.29-1.6,0.79
		c-0.72,0.82-1.47,1.63-2.24,2.42c-0.41,0.43-0.59,0.9-0.53,1.49C106.44,44.85,106.59,46.62,106.76,48.47z"></path><path _ngcontent-motorbikeApp-c42="" d="M20.09,49.53c2.56,1.82,5.07,3.6,7.54,5.36c0.22,1.43-0.33,2.51-1.12,3.48c-0.85,1.04-1.93,1.73-3.28,1.94
		c-2.98,0.48-5.56-1.02-6.49-3.77C15.8,53.77,17.03,51.09,20.09,49.53z"></path><path _ngcontent-motorbikeApp-c42="" d="M3.23,30.37c0.21-0.56,0.39-1.13,0.62-1.68c0.47-1.14,1.01-2.25,1.44-3.4c0.36-0.95,0.09-1.57-0.81-2.05
		c-0.6-0.32-1.25-0.55-1.88-0.82c-0.42-0.18-0.85-0.35-1.29-0.53c0.24-0.52,0.63-0.36,0.92-0.37c5.21-0.08,10.41-0.14,15.62-0.22
		c0.56-0.01,1.09,0,1.57,0.33c2.15,1.44,4.31,2.88,6.43,4.3c-0.15,0.56-0.45,0.32-0.66,0.28c-3.5-0.65-7-1.31-10.5-1.96
		c-0.27-0.05-0.54-0.1-0.8-0.17c-1.29-0.35-2.34-0.05-3.37,0.87c-1.84,1.64-3.79,3.15-5.7,4.71C4.41,30,3.96,30.3,3.53,30.62
		C3.43,30.54,3.33,30.46,3.23,30.37z"></path><path _ngcontent-motorbikeApp-c42="" d="M33.25,22.2c6.3,1.48,12.43,2.09,18.51,3.03c0.09,0.01,0.16,0.17,0.32,0.35c-1.75,0.26-3.44,0.53-5.13,0.76
		c-1.7,0.24-3.4,0.42-5.09,0.67c-0.63,0.09-1.22,0.06-1.8-0.22c-1.73-0.82-3.47-1.63-5.21-2.43C34.05,24,33.55,23.42,33.25,22.2z"></path><path _ngcontent-motorbikeApp-c42="" d="M91.42,16.57c1.36,1.57,2.56,2.94,3.69,4.64c-0.43,0.08-0.67,0.17-0.9,0.16c-0.89-0.05-1.77-0.18-2.66-0.19
		c-1.18-0.01-2.16-0.32-2.62-1.56c-0.67,0-1.28,0.03-1.89-0.01c-0.47-0.03-0.95-0.12-1.39-0.27c-0.49-0.17-0.77-0.55-0.76-1.1
		c0.01-0.55,0.3-0.95,0.81-1.06c1.2-0.24,2.41-0.45,3.63-0.59C89.99,16.51,90.68,16.57,91.42,16.57z"></path><path _ngcontent-motorbikeApp-c42="" d="M38.65,54.72c0.31-0.57,0.6-1.1,0.84-1.54c0.59-0.15,0.88,0.18,1.2,0.39c2.83,1.91,5.66,3.82,8.48,5.74
		c0.34,0.23,0.67,0.46,0.98,0.74c0.27,0.24,0.33,0.92,0.05,1.12c-0.23,0.17-0.62,0.24-0.91,0.19c-0.32-0.05-0.62-0.27-0.91-0.45
		c-2.96-1.83-5.92-3.66-8.88-5.5C39.23,55.22,38.99,54.99,38.65,54.72z"></path><path _ngcontent-motorbikeApp-c42="" d="M62.65,45.62c0.02,1-0.8,1.84-1.79,1.84c-0.98-0.01-1.83-0.89-1.79-1.85c0.03-0.88,0.83-1.69,1.71-1.74
		C61.74,43.8,62.63,44.64,62.65,45.62z"></path></g></svg>