<svg _ngcontent-motorbikeApp-c42="" x="0px" y="0px" viewBox="0 0 125.54 75.04" xml:space="preserve" class="pointer fill-grey ng-star-inserted" style="enable-background: new 0 0 125.54 75.04;"><g _ngcontent-motorbikeApp-c42=""><path _ngcontent-motorbikeApp-c42="" d="M20.78,3.5c-0.43,0-0.88-0.01-0.88-0.01c-1.32,0.83-1.85,1.81-1.7,3.13c1.87,0.02,1.91,0,2.6,1.83
		c1.68,4.47,3.34,8.94,4.96,13.43c0.28,0.77,0.65,1.04,1.46,1.01c1.45-0.06,2.9-0.02,4.35-0.02c0.32,0,0.64-0.03,1.25-0.05
		c-3.61-6.79-6.57-13.64-11.79-19.27C21.04,3.56,20.89,3.5,20.78,3.5z"></path><path _ngcontent-motorbikeApp-c42="" d="M50.15,39.83c-2.88-1.86-5.7-3.83-8.69-5.52c-1.89-1.06-4-1.75-6.05-2.49c-4.29-1.56-8.62-3.05-12.92-4.58
		c-0.26-0.09-0.49-0.3-0.91-0.56c0.98-0.84,1.81-1.62,2.72-2.28c1.01-0.74,0.59-1.4,0.08-2.92c-0.6-1.77-1.14-3.2-1.64-4.54
		c-0.49-1.31-0.77-1.49-1.72-1.18c0.72,1.97,1.41,3.89,2.13,5.8c0.6,1.58,0.48,1.47-0.62,2.67c-1.65,1.8-3.27,2.11-5.57,1.12
		c-3.48-1.5-7.13-2.63-10.72-3.86c-1.46-0.5-1.65-1.83-2.11-2.97c-0.08-0.21,0.19-0.62,0.4-0.86c0.54-0.63,3.05-3.08,3.65-3.7
		C7,13.58,8.91,11.69,3.09,17.32c-0.35,0.34-0.44,0.87-0.26,1.33c0.27,0.67,0.64,1.62,0.79,2.08c0.37,1.11,1.15,1.64,2.2,1.99
		c2.3,0.76,3.73,1.42,6.01,2.24c0.25,0.09,1.29,0.5,1.51,0.66c-0.19,0.21-0.37,0.43-0.57,0.63c-1.02,1.02-2.07,2.01-3.03,3.07
		c-0.26,0.28-0.95,0.74-0.22,1.22c0.59,0.39,0.88-0.06,1.3-0.51c0.83-0.88,2.92-2.8,4.02-3.43c0.47-0.27,1.21-0.29,1.72-0.11
		c7.01,2.46,13.99,5,21.01,7.45c3.55,1.24,6.51,3.47,9.61,5.47c1.27,0.82,2.59,1.34,4.2,1.33C50.96,40.44,50.57,40.11,50.15,39.83z"></path><path _ngcontent-motorbikeApp-c42="" d="M43.14,61.76c-1.46-0.4-2.8-0.78-4.21-1.17c-0.32,0.65-0.59,1.26-0.91,1.84c-2.06,3.71-6.6,5.58-10.45,4.3
		c-4.36-1.45-6.95-5.4-6.36-9.8c0.12-0.88-0.07-1.31-0.99-1.46c-0.72-0.12-1.43-0.37-2.13-0.6c-0.7-0.23-1.04-0.06-1.17,0.72
		c-1.3,7.55,3.45,14.35,11.02,15.71c0.09,0.02,2.33,0.16,3.43,0.24c0.39,0.03,0.79,0,1.18-0.09C37.81,70.23,41.31,67.04,43.14,61.76
		z"></path><path _ngcontent-motorbikeApp-c42="" d="M122.8,56.73c0.01-0.81-0.1-1.61-0.34-2.38c-0.13-0.44-0.26-0.89-0.38-1.34c-0.27-1.05-0.91-1.48-1.97-1.45
		c-1.2,0.04-2.4,0.01-3.7,0.16c2.45,3.45,3.09,6.96,1.11,10.68c-1.05,1.97-2.69,3.32-4.78,4.14c-3.89,1.53-9.69,0.14-11.99-6.23
		c-0.76,1.78-2.24,1.93-3.93,1.79c0.8,2.68,2.23,4.69,4.2,6.34c1.54,1.29,3.28,2.17,5.18,2.74c0.78,0.18,2,0.27,3.1,0.31
		c2.08,0.08,4.17-0.29,6.05-1.19c2.88-1.39,5.01-3.52,6.35-6.41c0.8-1.71,1.13-3.6,1.1-5.48C122.79,57.84,122.79,57.24,122.8,56.73z
		"></path><path _ngcontent-motorbikeApp-c42="" d="M121.67,48.97c-1.89-2.69-4.45-4.56-7.43-5.86c-1.22-0.53-2.49-0.93-3.74-1.39c0.03-0.2,0-0.32,0.06-0.39
		c0.69-0.87,0.91-1.74,0.24-2.75c-0.1-0.15,0.14-0.72,0.37-0.85c1.44-0.83,2.07-2.13,1.82-3.65c-0.32-1.9-0.74-3.84-1.48-5.61
		c-1.44-3.42-3.81-6.23-6.34-8.92c-0.68-0.73-1.38-0.78-2.38-0.61c0.3,0.35,0.51,0.59,0.72,0.83c1.65,1.95,3.42,3.81,4.93,5.86
		c1.81,2.46,3.1,5.2,3.29,8.33c0.15,2.43-2.28,4.07-4.41,2.98c-4.53-2.32-9.38-3.69-14.32-4.77c-1.45-0.32-2.9-0.58-4.37-0.79
		c-0.29-0.04-0.64,0.29-0.96,0.45c0.23,0.27,0.43,0.58,0.7,0.81c0.13,0.12,0.38,0.1,0.58,0.14c2.73,0.57,5.48,1.04,8.18,1.73
		c4.12,1.06,8.09,2.53,11.73,4.78c0.8,0.49,0.88,0.9,0.29,1.65c-3.16,4.06-6.27,8.16-9.4,12.25c-0.21,0.28-0.4,0.58-0.59,0.87
		c0.8,0.59,1.29,0.36,1.78-0.29c2.54-3.35,5.11-6.69,7.67-10.02c0.35-0.46,0.67-0.93,1.39-0.74c3.54,0.94,6.77,2.43,9.33,5.14
		c0.2,0.22,0.33,0.5,0.56,0.86c-1.6,0.16-3,0.28-4.4,0.44c-4.48,0.51-8.59,2.04-12.09,4.89c-1.65,1.35-3.05,3.02-4.49,4.6
		c-0.78,0.86-1.22,1.03-2.2,0.4c0.86-1.16,1.72-2.32,2.66-3.6c-1.39-0.36-2.58-0.71-3.79-0.96c-0.99-0.21-2.19-0.72-2.96-0.37
		c-0.81,0.37-1.25,1.6-1.77,2.49c-0.43,0.73-0.98,1-1.82,0.99c-3.5-0.03-7.01,0.07-10.51-0.05c-2.04-0.07-4.11-0.28-6.1-0.72
		c-2.74-0.61-5.42-1.58-7.26-3.87c-3.02-3.75-6.52-6.97-10.3-9.93c-0.38-0.3-0.86-0.54-1.33-0.66c-2.44-0.63-4.9-1.19-7.35-1.8
		c-5.02-1.26-10.03-2.56-15.06-3.82c-4.79-1.2-9.6-2.37-14.4-3.55c-2.7-0.67-5.4-1.34-8.43-2.09c0.11,0.72,0.08,1.29,0.3,1.73
		c0.69,1.38,1.45,2.74,2.25,4.06c0.24,0.39,0.68,0.75,1.11,0.9c3.08,1.07,6.18,2.08,9.27,3.11c5.33,1.77,10.65,3.55,15.98,5.32
		c5.27,1.75,10.54,3.47,15.8,5.24c0.43,0.14,0.86,0.53,1.1,0.92c0.82,1.31,1.65,2.62,2.31,4.02c0.56,1.19,1.36,1.67,2.62,1.48
		c1.06-0.16,1.86,0.25,2.56,1.05c0.89,1.01,1.91,1.9,2.83,2.88c0.64,0.7,1.36,0.96,2.32,0.96c8.49-0.03,16.98-0.04,25.47,0.01
		c1.14,0.01,1.97-0.29,2.53-1.25c0.37-0.63,0.9-0.85,1.6-0.81c0.44,0.03,0.88-0.03,1.31,0.01c0.91,0.09,1.49-0.28,2-1.04
		c1.72-2.55,3.98-4.55,6.61-6.13c4.48-2.69,9.36-3.64,14.53-3.33c0.41,0.02,0.84-0.21,1.26-0.32
		C121.95,49.81,121.92,49.31,121.67,48.97z"></path><path _ngcontent-motorbikeApp-c42="" d="M56.21,42.97c0.65-0.04,1-0.08,1.36-0.08c2.69-0.01,5.39,0.09,8.08-0.03c2.05-0.1,3.88,0.38,5.73,1.2
		c2.05,0.91,4.23,1.42,6.48,0.67c1.6-0.53,2.84-1.5,3.51-3.1c0.48-1.15,0.94-2.3,1.49-3.42c0.33-0.67,0.29-1.23-0.05-1.89
		c-0.7-1.36-0.9-2.81-0.39-4.29c0.08-0.23,0.23-0.43,0.46-0.67c0.09,2.36,1.63,3.51,3.42,4.55c3.51,2.05,6.98,4.19,10.45,6.31
		c1.14,0.7,1.33,1.37,0.61,2.51c-2.43,3.83-4.89,7.65-7.38,11.44c-0.19,0.3-0.71,0.54-1.08,0.54c-4.28,0.02-8.56,0.1-12.83-0.07
		c-3.01-0.12-5.91-0.96-8.47-2.64c-0.74-0.49-1.44-1.12-1.99-1.82c-2.46-3.1-5.34-5.77-8.37-8.3C56.96,43.64,56.7,43.4,56.21,42.97z
		"></path><path _ngcontent-motorbikeApp-c42="" d="M43.78,34.19c0.25-0.03,0.47-0.08,0.69-0.08c6.4,0,12.8-0.02,19.2,0.01c3.37,0.02,6.14,2.76,6.15,5.96
		c0,1.08-0.57,1.69-1.66,1.69c-4.31,0.01-8.62,0.01-12.93-0.01c-0.35,0-0.76-0.08-1.04-0.27C50.74,39.09,47.31,36.67,43.78,34.19z"></path><path _ngcontent-motorbikeApp-c42="" d="M60.17,60.32c-3.13,0.04-6.27-0.11-9.4,0.05c-2.99,0.16-5.8-0.54-8.62-1.32c-4.56-1.28-9.12-2.55-13.69-3.81
		c-6.03-1.65-12.07-3.29-18.11-4.9c-0.72-0.19-0.95-0.56-0.77-1.23c0.55-2.04,1.1-4.09,1.66-6.13c0.15-0.53,0.43-0.76,1.05-0.58
		c1.87,0.54,3.77,1,5.65,1.51c4.87,1.32,9.72,2.69,14.6,3.95c1.67,0.43,3.07,1.15,4.31,2.4c2.46,2.48,5.04,4.86,7.62,7.22
		c0.42,0.39,1.11,0.67,1.68,0.68c2.9,0.07,5.79,0.03,8.69,0.03c0.29,0,0.58-0.04,0.91-0.07c-0.06-0.93-0.53-1.22-1.33-1.22
		c-2.56,0.02-5.12-0.02-7.68,0.02c-0.8,0.01-1.41-0.25-1.98-0.8c-2.49-2.41-5.07-4.73-7.47-7.23c-1.18-1.22-2.57-1.76-4.1-2.17
		c-3.83-1.03-7.66-2.05-11.48-3.09c-3.05-0.83-6.08-1.71-9.14-2.53c-1.52-0.41-2.11-0.03-2.52,1.48C9.48,44.72,8.92,46.87,8.31,49
		c-0.4,1.42-0.1,2.04,1.35,2.45c1.23,0.35,2.46,0.67,3.69,1.01c4.54,1.26,9.07,2.53,13.61,3.77c5.38,1.47,10.77,2.92,16.15,4.38
		c2.05,0.56,4.08,1.02,6.25,0.95c3.84-0.11,7.68-0.03,11.52-0.03h1.23C61.6,60.58,61.01,60.31,60.17,60.32z"></path><path _ngcontent-motorbikeApp-c42="" d="M109.94,32.5c-3.32-3.22-6.9-6.11-10.73-8.7c-0.92-0.62-1.08-1.56-0.43-2.67c0.29,0.23,0.59,0.43,0.85,0.67
		c2.58,2.36,5.16,4.73,7.75,7.09c0.2,0.18,0.4,0.41,0.63,0.48c0.21,0.06,0.57-0.01,0.7-0.16c0.12-0.14,0.1-0.49,0.02-0.7
		c-0.08-0.2-0.3-0.35-0.47-0.51c-3.36-3.06-6.74-6.09-10.07-9.19c-1.01-0.94-2.03-1.75-3.45-1.86c-0.09,0.1-0.18,0.19-0.28,0.29
		c0.49,0.4,0.96,0.83,1.47,1.2c0.99,0.73,1.37,1.7,1.2,2.9c-0.04,0.3-0.03,0.61,0,0.91c0.06,0.69-0.21,1.14-0.85,1.44
		c-1.37,0.64-2.71,1.35-4.08,1.99c-2.01,0.94-4.1,1.73-6.03,2.8c-2.81,1.56-2.79,4.38-0.07,6.03c3.57,2.16,7.13,4.33,10.71,6.47
		c2.34,1.4,2.65,2.53,1.17,4.84c-1.3,2.04-2.65,4.05-3.97,6.09c-0.17,0.26-0.28,0.56-0.42,0.84c0.07,0.11,0.14,0.23,0.21,0.34
		c0.44-0.15,1.07-0.16,1.28-0.46c1.54-2.28,3.09-4.58,4.46-6.96c1.22-2.11,0.7-4.03-1.35-5.31c-3.74-2.33-7.54-4.56-11.31-6.85
		c-1.97-1.2-1.98-2.67-0.04-3.96c0.22-0.15,0.47-0.26,0.71-0.38c3.14-1.47,6.28-2.92,9.41-4.41c0.55-0.26,0.98-0.29,1.48,0.09
		c1.46,1.08,3,2.06,4.4,3.22c2.2,1.82,4.3,3.77,6.48,5.61c0.28,0.24,0.81,0.18,1.22,0.26c-0.1-0.38-0.19-0.77-0.31-1.15
		C110.19,32.67,110.04,32.59,109.94,32.5z"></path><path _ngcontent-motorbikeApp-c42="" d="M115.87,57.98c0,3.38-2.79,6.25-6.18,6.33c-3.35,0.09-6.27-2.6-6.39-5.96c-0.02-0.46,0.26-1.07,0.61-1.38
		c2.36-2.12,5.13-3.55,8.18-4.41c0.34-0.1,0.86,0.09,1.18,0.31C114.87,53.98,115.87,56,115.87,57.98z"></path><path _ngcontent-motorbikeApp-c42="" d="M23.62,26.44c1.46-1.39,2.58-2.61,4.7-2.45c2.88,0.22,5.78,0.07,8.67,0.04c0.7-0.01,1.09,0.22,1.38,0.88
		c1.11,2.48,2.28,4.93,3.42,7.4c0.12,0.26,0.18,0.55,0.25,0.77C35.95,30.88,29.89,28.7,23.62,26.44z"></path><path _ngcontent-motorbikeApp-c42="" d="M47.22,32.93c-1.04,0-2.1,0.07-3.13-0.03c-0.41-0.04-0.97-0.36-1.14-0.71c-1.25-2.57-2.42-5.18-3.64-7.76
		c-0.26-0.55-0.1-0.83,0.43-0.97c2.94-0.72,5.72-0.86,7.99,1.7c1.52,1.72,3.08,3.4,3.58,5.74c0.35,1.66,0.06,2.02-1.57,2.02
		C48.91,32.93,48.07,32.93,47.22,32.93z"></path><path _ngcontent-motorbikeApp-c42="" d="M35.48,59.64c-3.5-0.93-6.99-1.88-10.48-2.86c-0.76-0.21-1.03-0.02-1.1,0.75c-0.3,3.5,2.68,6.78,6.21,6.79
		c2.49,0.01,4.9-1.53,5.8-3.66C36.15,60.1,36.13,59.81,35.48,59.64z"></path><path _ngcontent-motorbikeApp-c42="" d="M54.62,55.74c-0.55,0.05-0.87,0.1-1.19,0.1c-2.12,0.01-4.24,0.04-6.36-0.02c-0.54-0.02-1.2-0.25-1.6-0.61
		c-2.52-2.31-4.98-4.69-7.35-7.24c1.31,0.43,2.63,0.85,3.94,1.28c3.19,1.05,6.36,2.17,9.58,3.12
		C53.38,52.89,53.73,54.35,54.62,55.74z"></path><path _ngcontent-motorbikeApp-c42="" d="M101.72,16.24c-3.32-2.52-6.62-5.06-9.98-7.54c-1.13-0.84-2.37-1.54-3.6-2.23c-0.28-0.16-0.84-0.13-1.09,0.06
		c-0.2,0.14-0.19,0.67-0.15,1.01c0.03,0.28,0.21,0.57,0.39,0.81c1.07,1.43,2.19,2.81,3.22,4.26c0.64,0.9,1.46,1.41,2.51,1.72
		c1.45,0.41,2.86,1,4.31,1.42c1.53,0.44,3.09,0.77,4.64,1.14c0.03-0.07,0.07-0.14,0.1-0.22C101.95,16.53,101.86,16.35,101.72,16.24z
		"></path><path _ngcontent-motorbikeApp-c42="" d="M86.79,18.65c1.91,1.8,3.83,3.6,5.92,5.56c-1.42,0.65-2.64,1.26-3.9,1.76c-0.23,0.09-0.7-0.16-0.93-0.38
		c-0.83-0.78-1.66-1.58-2.38-2.46c-0.62-0.74-1.24-0.79-2.02-0.38c-0.78,0.41-1.55,0.78-1.79,1.77c-0.06,0.23-0.44,0.38-0.68,0.57
		c-0.18-0.26-0.51-0.53-0.5-0.78c0.03-0.44,0.14-1.04,0.45-1.26c0.93-0.68,1.91-1.48,2.99-1.75c1.51-0.38,2.52-1.01,2.81-2.59
		C86.76,18.63,86.86,18.56,86.79,18.65z"></path><path _ngcontent-motorbikeApp-c42="" d="M81.03,17.21c0.98,0,1.95-0.02,2.93,0c0.99,0.02,1.62,0.59,1.62,1.42c0,0.88-0.52,1.36-1.61,1.37
		c-1.99,0.03-3.97,0.02-5.96,0c-1.02-0.01-1.63-0.6-1.6-1.41c0.04-0.8,0.71-1.36,1.68-1.38C79.08,17.2,80.05,17.21,81.03,17.21z"></path><path _ngcontent-motorbikeApp-c42="" d="M20.47,13.19c-4.04,0.03-8.07,0.03-12.11,0c-1-0.01-1.6,0.5-2.27,1.33h15.62
		C21.76,13.56,21.4,13.18,20.47,13.19z"></path><path _ngcontent-motorbikeApp-c42="" d="M82.98,16.21c-0.09-0.89-0.15-1.52-0.22-2.15c-0.08-0.02-0.17-0.04-0.25-0.06c-0.25,0.37-0.54,0.72-0.75,1.11
		c-0.35,0.63-0.73,0.57-1.19,0.13c-1.31-1.24-1.32-4.7,0.04-5.84c0.21-0.17,0.86-0.19,0.98-0.03c1.46,1.87,2.23,3.95,1.76,6.36
		C83.33,15.82,83.23,15.89,82.98,16.21z"></path><path _ngcontent-motorbikeApp-c42="" d="M18.69,7.9c-0.88,0.21-1.76,0.48-2.58,0.84c-2.23,0.97-4.44,2-6.66,3c0.06,0.2,0.12,0.39,0.17,0.59
		c0.89-0.17,1.82-0.23,2.66-0.53c1.32-0.48,2.57-1.14,3.88-1.68c2.32-0.95,2.33-0.94,3.26,1.38c0.31,0.77,0.79,0.89,1.54,0.44
		c-0.47-1.27-0.88-2.5-1.39-3.7C19.47,8.03,18.95,7.84,18.69,7.9z"></path></g></svg>