<svg _ngcontent-motorbikeApp-c42="" x="0px" y="0px" viewBox="0 0 125.54 75.04" xml:space="preserve" class="pointer fill-grey ng-star-inserted" style="enable-background: new 0 0 125.54 75.04;"><g _ngcontent-motorbikeApp-c42=""><path _ngcontent-motorbikeApp-c42="" d="M316.52-393.03c0.38-0.99,0.76-1.98,1.14-2.97c-0.79-0.9-1.5-1.71-2.22-2.53c0.75-1.94,1.95-3.39,3.05-5.21
		c1.27,0.62,2.23,1.09,3.41,1.67c0.82-0.45,1.75-0.97,2.84-1.57c8.86,5.3,17.73,10.62,26.56,15.9c1.03-0.95,0.17-1.37-0.15-1.68
		c-4.39-4.2-8.83-8.34-13.22-12.55c-1.33-1.28-2.86-1.85-4.66-2.19c-10.99-2.11-21.95-4.32-32.92-6.51
		c-0.74-0.15-1.45-0.39-2.18-0.59c0.32-1.34,1.25-1.1,1.97-1.1c5.28-0.03,10.56-0.02,15.84-0.02c12.64,0,25.27,0.07,37.91-0.05
		c2.86-0.03,5.29,0.61,7.63,2.22c2.77,1.89,5.73,3.5,8.53,5.35c2.06,1.36,4.18,2.08,6.72,2.01c5.43-0.15,10.88-0.11,16.31-0.02
		c2.31,0.04,4.39-0.48,6.46-1.45c7.24-3.38,14.51-6.71,21.79-9.99c2.32-1.04,4.75-1.85,7.12-2.8c0.73-0.29,1.5-0.6,2.1-1.09
		c1.06-0.86,2.25-1.16,3.56-1.15c3.34,0.01,6.67,0,10.59,0c1.87-2.24,4.12-4.93,6.86-8.2c-0.02-0.34-0.91-0.89-2.16-0.77
		c-1.79,0.17-3.06-0.5-4.08-1.93c-0.58-0.83-1.01-1.69-0.71-2.67c1-3.33-1.22-5.02-3.4-6.68c-0.88-0.66-2-1-2.98-1.53
		c-1.57-0.85-2.08-1.77-1.72-2.98c0.39-1.3,1.72-1.68,3.66-0.92c1.78,0.69,3.52,1.5,5.58,2.39c0.63-1.78,1.19-3.38,1.76-4.97
		c3.88,1.64,6.76,4.93,7.65,8.75c0.36,1.56,0.61,3.14,1.02,4.68c0.49,1.84,0.95,3.72,2.92,5.07c0.59-0.2,1.32-0.49,2.06-0.69
		c0.6-0.17,1.22-0.24,1.99-0.39c3.77,5.23,6.68,10.93,10.39,16.42c1.11,0.12,2.35,0.34,3.6,0.39c7.67,0.32,15.34,0.64,23.01,0.86
		c2.3,0.07,4.43,0.46,6.41,1.65c0.68,0.41,1.39,0.82,2.13,1.09c7.3,2.71,12.52,8.11,17.67,13.6c0.27,0.28,0.33,0.76,0.72,1.73
		c-1.63-0.69-2.76-1.16-3.88-1.66c-5.85-2.59-11.7-5.16-17.53-7.79c-1.64-0.74-3.25-1.12-5.09-0.85c-6.8,1.01-13.62,1.88-20.42,2.84
		c-0.93,0.13-1.82,0.46-2.74,0.7c1.1,3.39,11.14,20.92,15.13,26.44c1.24-0.34,2.59-0.71,3.93-1.09
		c19.96-5.68,40.82,5.07,47.55,24.52c8.77,25.37-10.4,51.65-37.27,51.29c-18.06-0.25-33.15-13.01-36.93-29.4
		c-3.17-13.79,0.23-25.93,9.91-36.29c1.09-1.16,2.28-2.22,3.38-3.27c-1.16-3.38-13.13-24.1-16.44-28.44
		c-0.65,0.96-1.34,1.79-1.83,2.72c-2.89,5.52-5.74,11.06-8.61,16.59c-0.87,1.67-1.47,3.41-3.76,3.99c-0.92,0.23-1.59,1.88-2.16,2.99
		c-4.06,7.79-8.07,15.61-12.1,23.42c-0.81,1.56-1.58,3.14-2.47,4.65c-2.72,4.6-6.73,7.28-12.12,7.37
		c-8.16,0.14-16.31,0.03-24.47,0.08c-1.59,0.01-2.7-0.66-3.73-1.77c-2.17-2.34-4.4-4.62-6.74-7.06c-1.09,0.33-2.15,0.6-3.16,0.98
		c-1.79,0.68-3.56,1.42-5.34,2.14c-4.26,1.73-8.41,3.85-13.31,3.66c-0.4,2.27-0.75,4.29-1.12,6.31
		c-3.44,18.75-20.54,31.06-37.37,31.23c-16.92,0.17-33.97-11.47-38.02-29.84c-5.77-26.16,14.29-46.87,36.25-47.19
		c16.43-0.24,28.41,7.29,36.06,21.76c0.37,0.7,0.65,1.46,1,2.18c0.27,0.57,0.58,1.12,0.84,1.61c3.31,0.17,9.71-0.94,14.02-2.41
		c-1.06-2.58-3.96-5.88-9.88-11.25c-1.23,0-2.52-0.16-3.76,0.04c-1.84,0.29-3.41-0.05-5.01-1.02c-14.05-8.58-28.14-17.1-42.21-25.66
		C317.29-392.19,316.99-392.59,316.52-393.03z M499.43-364.16c-0.08,0.3-0.33,0.69-0.22,0.89c2.22,4.05,4.47,8.07,6.66,12
		c1.73,0.32,3.15,0.49,4.53,0.85c9.77,2.54,11.12,13.47,6.67,19.13c-3.62,4.6-9.85,6.07-15.1,3.46c-5.36-2.66-7.93-8.8-6.09-14.6
		c0.38-1.2,0.85-2.37,1.3-3.61c-1.24-2.15-2.4-4.24-3.65-6.28c-1.23-1.99-2.1-4.24-3.78-5.9c-8.67,5.5-12.7,21.65-5.38,33.42
		c7.4,11.9,22.32,16.38,34.79,10.26c12.74-6.25,18.5-21.06,13.27-34.11C527.18-361.82,513-368.48,499.43-364.16z M341.3-336.19
		c-0.92,1.88-1.44,3.23-2.19,4.44c-3.06,4.99-8.99,7.32-14.52,5.79c-5.72-1.58-9.62-6.4-9.85-12.16c-0.22-5.65,3.1-10.82,8.25-12.86
		c5.44-2.14,11.4-0.6,15.17,3.95c0.8,0.97,1.5,2.03,2.34,3.17c4.17-1.21,8.3-2.25,12.14-4.08c-2.31-9.92-15.98-20.63-31.2-16.78
		c-13.32,3.37-22.17,16.59-20.01,30.27c2.17,13.76,14.87,23.59,28.97,22.43c12.9-1.06,23.93-12.44,23.71-24.72
		c-0.91-0.04-1.84-0.17-2.76-0.12C348.02-336.67,344.68-336.42,341.3-336.19z M457.56-405.72c-5.38-2.32-10.61-4.68-15.93-6.84
		c-3.33-1.36-6.46-0.96-9.33,1.53c-4.21,3.66-8.58,7.16-12.87,10.73c-0.57,0.47-1.38,0.87-0.8,2.13c2.26,0,4.63,0,6.96,0
		c4.98,6.09,9.83,12,14.58,17.81c2.66,0,5.01,0,7.51,0c3.02-5.37,5.87-10.72,8.99-15.9C458.44-399.2,459.05-402.08,457.56-405.72z
		 M403.57-391.29c-11.97,0-23.31,0-34.65,0.01c-0.15,0-0.32,0.06-0.43,0.15c-0.11,0.1-0.16,0.27-0.24,0.41
		c1.52,3.16,10.62,15.11,13.75,18.06c2.66-1.63,16.69-13.09,20.67-16.92C402.96-389.87,403.08-390.35,403.57-391.29z M416.17-366.2
		c-2.29-0.85-4.33-2.24-6.12-4c-0.33-0.32-0.82-0.51-1.27-0.66c-1.38-0.46-2.4-1.14-3.29-2.48c-1.26-1.93-3.54-2.01-4.84-0.26
		c-1,1.34-2.17,2.15-3.57,2.93c-1.95,1.08-2.92,2.85-2.87,5.14c0.04,1.91,0.13,3.84-0.03,5.74c-0.29,3.56,0.43,6.65,3.49,8.56
		c0.48,4.14,0.48,4.14,2.4,5.96c0.58-0.41,1.17-0.81,1.71-1.19c0.73,0.53,1.34,0.96,1.9,1.37c0.72-0.56,1.29-1.01,1.83-1.42
		c0.73,0.59,1.32,1.06,1.88,1.5c0.72-0.62,1.28-1.11,1.79-1.54c0.83,0.58,1.44,1,2.11,1.47c0.23-0.6,0.46-0.9,0.41-1.14
		c-0.87-4.27-0.7-8.53-0.02-12.8c0.03-0.2-0.31-0.46-0.51-0.73c-0.66,0.37-1.32,0.74-1.96,1.1c-0.67-0.43-1.29-0.84-1.87-1.21
		c-0.73,0.52-1.35,0.97-1.94,1.39c-0.67-0.56-1.23-1.04-1.75-1.48c-0.85,0.63-1.47,1.09-2,1.48c-0.71-0.58-1.26-1.03-1.76-1.44
		c-1.38,1.03-1.81,2.18-1.97,3.49c-0.08,0.63-0.23,1.28-1.4,0.95c-0.45-3.54-0.22-7.18-0.13-10.8c0.03-1.36,0.9-2.32,2.58-2.73
		c0.36,0.58,0.72,1.27,1.18,1.87c1.83,2.38,3.95,2.29,5.75-0.21c0.43-0.6,0.84-1.2,1.46-2.09c1.23,0.96,2.16,1.8,3.19,2.48
		c1.18,0.77,2.41,1.51,3.71,2.03C414.96-364.67,415.89-364.8,416.17-366.2z M429.59-359.42c-0.09,1.22,0.05,2.35-0.3,3.3
		c-0.6,1.64-1.54,3.14-2.26,4.74c-1.28,2.8-3.42,4.03-6.49,3.89c-1.41-0.06-2.85,0.11-4.25,0.32c-0.3,0.04-0.72,0.69-0.72,1.06
		c0.01,0.38,0.41,1.02,0.73,1.08c3.16,0.6,6.32,0.83,9.33-0.64c0.56-0.28,1.15-0.63,1.54-1.1c2.68-3.22,4.84-6.79,5.36-11
		c0.29-2.37,0.5-4.61,1.51-6.88c1.85-4.15-0.67-8.93-5.01-10.28c-4.28-1.33-8.85,1.34-9.93,5.83c-1.07,4.42,1.82,8.73,6.42,9.47
		C426.75-359.45,428.02-359.5,429.59-359.42z M418.99-350.3c1.91,0.08,3.72-1.5,3.87-3.38c0.15-1.95-1.85-4.05-3.81-4
		c-1.92,0.06-3.55,1.74-3.56,3.68C415.48-352.02,417.03-350.39,418.99-350.3z"></path><path _ngcontent-motorbikeApp-c42="" d="M430.82-367.34c-0.02,2.17-1.68,3.87-3.87,3.96c-2.38,0.1-4.31-1.73-4.28-4.04c0.03-2.12,1.78-3.91,3.9-4
		C428.9-371.52,430.84-369.66,430.82-367.34z"></path></g><g _ngcontent-motorbikeApp-c42=""><path _ngcontent-motorbikeApp-c42="" d="M17.74,29.43c0.17-0.44,0.34-0.88,0.51-1.32c-0.35-0.4-0.67-0.76-0.99-1.13c0.33-0.86,0.87-1.51,1.36-2.32
		c0.56,0.28,0.99,0.48,1.52,0.74c0.36-0.2,0.78-0.43,1.26-0.7c3.94,2.36,7.89,4.72,11.81,7.07c0.46-0.42,0.08-0.61-0.07-0.75
		c-1.95-1.87-3.93-3.71-5.88-5.58c-0.59-0.57-1.27-0.82-2.07-0.98c-4.88-0.94-9.76-1.92-14.64-2.9c-0.33-0.07-0.65-0.17-0.97-0.26
		c0.14-0.6,0.56-0.49,0.87-0.49c2.35-0.01,4.69-0.01,7.04-0.01c5.62,0,11.24,0.03,16.86-0.02c1.27-0.01,2.35,0.27,3.39,0.99
		c1.23,0.84,2.55,1.56,3.79,2.38c0.92,0.61,1.86,0.92,2.99,0.89c2.42-0.07,4.84-0.05,7.25-0.01c1.03,0.02,1.95-0.21,2.87-0.64
		c3.22-1.5,6.45-2.98,9.69-4.44c1.03-0.46,2.11-0.82,3.16-1.24c0.32-0.13,0.66-0.27,0.93-0.48c0.47-0.38,1-0.51,1.58-0.51
		c1.48,0,2.97,0,4.71,0c0.83-1,1.83-2.19,3.05-3.65c-0.01-0.15-0.41-0.4-0.96-0.34c-0.8,0.07-1.36-0.22-1.81-0.86
		c-0.26-0.37-0.45-0.75-0.32-1.19c0.45-1.48-0.54-2.23-1.51-2.97c-0.39-0.3-0.89-0.44-1.32-0.68c-0.7-0.38-0.92-0.79-0.76-1.32
		c0.17-0.58,0.76-0.75,1.63-0.41c0.79,0.31,1.56,0.67,2.48,1.06c0.28-0.79,0.53-1.5,0.78-2.21c1.73,0.73,3.01,2.19,3.4,3.89
		c0.16,0.69,0.27,1.4,0.45,2.08c0.22,0.82,0.42,1.65,1.3,2.25c0.26-0.09,0.58-0.22,0.92-0.31c0.27-0.07,0.54-0.11,0.89-0.17
		c1.67,2.32,2.97,4.86,4.62,7.3c0.49,0.06,1.05,0.15,1.6,0.17c3.41,0.14,6.82,0.29,10.23,0.38c1.02,0.03,1.97,0.2,2.85,0.73
		c0.3,0.18,0.62,0.36,0.95,0.49c3.24,1.21,5.57,3.61,7.86,6.05c0.12,0.13,0.15,0.34,0.32,0.77c-0.73-0.31-1.23-0.52-1.73-0.74
		c-2.6-1.15-5.2-2.3-7.79-3.46c-0.73-0.33-1.44-0.5-2.26-0.38c-3.02,0.45-6.06,0.84-9.08,1.26c-0.41,0.06-0.81,0.2-1.22,0.31
		c0.49,1.51,4.96,9.3,6.73,11.76c0.55-0.15,1.15-0.32,1.75-0.49c8.88-2.53,18.15,2.26,21.14,10.9c3.9,11.28-4.63,22.97-16.57,22.8
		c-8.03-0.11-14.74-5.78-16.42-13.07c-1.41-6.13,0.1-11.53,4.4-16.13c0.48-0.52,1.02-0.99,1.5-1.46c-0.51-1.5-5.84-10.72-7.31-12.65
		c-0.29,0.43-0.6,0.8-0.81,1.21c-1.29,2.45-2.55,4.92-3.83,7.38c-0.39,0.74-0.65,1.52-1.67,1.77c-0.41,0.1-0.71,0.84-0.96,1.33
		c-1.81,3.46-3.59,6.94-5.38,10.41c-0.36,0.69-0.7,1.4-1.1,2.07c-1.21,2.04-2.99,3.24-5.39,3.28c-3.63,0.06-7.25,0.01-10.88,0.04
		c-0.71,0-1.2-0.29-1.66-0.79c-0.96-1.04-1.96-2.06-3-3.14c-0.49,0.15-0.96,0.27-1.41,0.44c-0.8,0.3-1.58,0.63-2.37,0.95
		c-1.9,0.77-3.74,1.71-5.92,1.63c-0.18,1.01-0.33,1.91-0.5,2.8c-1.53,8.34-9.13,13.81-16.62,13.89c-7.52,0.08-15.1-5.1-16.91-13.27
		c-2.56-11.63,6.35-20.84,16.12-20.98c7.31-0.11,12.63,3.24,16.04,9.68c0.17,0.31,0.29,0.65,0.45,0.97c0.12,0.25,0.26,0.5,0.38,0.72
		c1.47,0.08,4.32-0.42,6.24-1.07c-0.47-1.15-1.76-2.62-4.39-5c-0.55,0-1.12-0.07-1.67,0.02c-0.82,0.13-1.52-0.02-2.23-0.46
		c-6.25-3.81-12.51-7.6-18.77-11.41C18.08,29.8,17.95,29.63,17.74,29.43z M99.07,42.27c-0.04,0.13-0.14,0.31-0.1,0.39
		c0.99,1.8,1.99,3.59,2.96,5.33c0.77,0.14,1.4,0.22,2.02,0.38c4.34,1.13,4.95,5.99,2.97,8.5c-1.61,2.05-4.38,2.7-6.71,1.54
		c-2.38-1.18-3.53-3.91-2.71-6.49c0.17-0.53,0.38-1.05,0.58-1.6c-0.55-0.95-1.07-1.89-1.62-2.79c-0.55-0.88-0.93-1.88-1.68-2.62
		c-3.86,2.45-5.65,9.63-2.39,14.86c3.29,5.29,9.92,7.28,15.47,4.56c5.66-2.78,8.23-9.36,5.9-15.17
		C111.41,43.31,105.11,40.35,99.07,42.27z M28.76,54.71c-0.41,0.84-0.64,1.44-0.97,1.98c-1.36,2.22-4,3.25-6.46,2.57
		c-2.54-0.7-4.28-2.85-4.38-5.41c-0.1-2.51,1.38-4.81,3.67-5.72c2.42-0.95,5.07-0.27,6.75,1.76c0.36,0.43,0.67,0.9,1.04,1.41
		c1.85-0.54,3.69-1,5.4-1.81c-1.03-4.41-7.11-9.17-13.87-7.46c-5.92,1.5-9.86,7.38-8.9,13.46c0.97,6.12,6.61,10.49,12.88,9.97
		c5.73-0.47,10.64-5.53,10.54-10.99c-0.4-0.02-0.82-0.08-1.23-0.05C31.75,54.49,30.26,54.6,28.76,54.71z M80.46,23.79
		c-2.39-1.03-4.72-2.08-7.08-3.04c-1.48-0.6-2.87-0.43-4.15,0.68c-1.87,1.63-3.82,3.18-5.72,4.77c-0.25,0.21-0.61,0.39-0.36,0.95
		c1,0,2.06,0,3.09,0c2.22,2.71,4.37,5.34,6.48,7.92c1.18,0,2.23,0,3.34,0c1.34-2.39,2.61-4.77,4-7.07
		C80.85,26.69,81.12,25.41,80.46,23.79z M56.45,30.21c-5.32,0-10.37,0-15.41,0c-0.07,0-0.14,0.03-0.19,0.07
		c-0.05,0.04-0.07,0.12-0.11,0.18c0.68,1.41,4.72,6.72,6.12,8.03c1.18-0.73,7.42-5.82,9.19-7.52
		C56.18,30.84,56.23,30.63,56.45,30.21z M62.05,41.36c-1.02-0.38-1.93-1-2.72-1.78c-0.14-0.14-0.36-0.23-0.56-0.29
		c-0.61-0.21-1.07-0.5-1.46-1.1c-0.56-0.86-1.57-0.89-2.15-0.12c-0.44,0.6-0.97,0.96-1.59,1.3c-0.87,0.48-1.3,1.27-1.27,2.29
		c0.02,0.85,0.06,1.71-0.01,2.55c-0.13,1.58,0.19,2.96,1.55,3.8c0.21,1.84,0.21,1.84,1.07,2.65c0.26-0.18,0.52-0.36,0.76-0.53
		c0.33,0.24,0.6,0.43,0.84,0.61c0.32-0.25,0.57-0.45,0.81-0.63c0.33,0.26,0.59,0.47,0.84,0.67c0.32-0.28,0.57-0.49,0.79-0.69
		c0.37,0.26,0.64,0.44,0.94,0.65c0.1-0.27,0.21-0.4,0.18-0.51c-0.39-1.9-0.31-3.79-0.01-5.69c0.01-0.09-0.14-0.2-0.22-0.32
		c-0.29,0.16-0.59,0.33-0.87,0.49c-0.3-0.19-0.57-0.37-0.83-0.54c-0.32,0.23-0.6,0.43-0.86,0.62c-0.3-0.25-0.55-0.46-0.78-0.66
		c-0.38,0.28-0.65,0.48-0.89,0.66c-0.31-0.26-0.56-0.46-0.78-0.64c-0.61,0.46-0.8,0.97-0.87,1.55c-0.03,0.28-0.1,0.57-0.62,0.42
		c-0.2-1.57-0.1-3.19-0.06-4.8c0.01-0.6,0.4-1.03,1.15-1.21c0.16,0.26,0.32,0.56,0.52,0.83c0.81,1.06,1.75,1.02,2.55-0.1
		c0.19-0.27,0.37-0.54,0.65-0.93c0.55,0.43,0.96,0.8,1.42,1.1c0.53,0.34,1.07,0.67,1.65,0.9C61.51,42.04,61.93,41.98,62.05,41.36z
		 M68.02,44.38c-0.04,0.54,0.02,1.04-0.13,1.47c-0.27,0.73-0.68,1.4-1.01,2.11c-0.57,1.25-1.52,1.79-2.89,1.73
		c-0.63-0.03-1.27,0.05-1.89,0.14c-0.14,0.02-0.32,0.31-0.32,0.47c0,0.17,0.18,0.45,0.33,0.48c1.4,0.27,2.81,0.37,4.15-0.29
		c0.25-0.12,0.51-0.28,0.69-0.49c1.19-1.43,2.15-3.02,2.38-4.89c0.13-1.05,0.22-2.05,0.67-3.06c0.82-1.85-0.3-3.97-2.23-4.57
		c-1.91-0.59-3.94,0.6-4.42,2.59c-0.48,1.97,0.81,3.88,2.86,4.21C66.75,44.37,67.32,44.34,68.02,44.38z M63.31,48.43
		c0.85,0.04,1.65-0.66,1.72-1.5c0.07-0.87-0.82-1.8-1.69-1.78c-0.85,0.03-1.58,0.77-1.58,1.64C61.74,47.67,62.43,48.39,63.31,48.43z
		"></path><path _ngcontent-motorbikeApp-c42="" d="M68.56,40.86c-0.01,0.97-0.75,1.72-1.72,1.76c-1.06,0.04-1.92-0.77-1.9-1.8c0.01-0.94,0.79-1.74,1.73-1.78
		C67.71,39,68.57,39.82,68.56,40.86z"></path></g><g _ngcontent-motorbikeApp-c42=""><path _ngcontent-motorbikeApp-c42="" d="M855.36-161.85c-1.31,1.05-2.57,2.02-3.79,3.04c-11.18,9.31-22.31,18.69-33.57,27.9c-4,3.27-6.73,7.13-7.95,12.18
		c-1.09,4.5-2.47,8.93-3.75,13.38c-0.31,1.06-0.72,2.09-1.17,3.39c-7.69,0.29-15.33-0.04-22.97-0.12
		c-7.66-0.08-15.32-0.35-22.79-0.53c-0.35-0.54-0.69-0.82-0.66-1.06c0.37-3.23-0.98-5.26-3.76-7.03
		c-7.28-4.64-14.35-9.6-21.48-14.47c-0.99-0.68-2.4-1.17-1.96-2.86c4.44-1.35,20.83-1.13,33.34,0.46c0.58,0.85,1.1,1.85,1.84,2.67
		c1.82,2.01,4.39,2.22,6.45,0.64c1.86-1.42,2.46-3.97,1.41-6c-1.17-2.26-3.81-3.52-6.07-2.2c-2.44,1.42-4.82,1.22-7.37,1.15
		c-9.9-0.27-19.78-1.44-29.32-0.55c-6.67-5.03-13.02-9.83-19.39-14.63c-6.21-4.68-12.48-9.3-18.87-14.26c1.62-1,2.87-0.6,4.03-0.37
		c10.25,2.07,18.76,7.08,25.41,15.17c1.01,1.23,1.95,2.51,3.06,3.96c1.34-0.38,2.65-0.93,3.99-1.07c1.41-0.14,2.87,0.14,4.3,0.19
		c4.79,0.18,9.59,0.36,14.38,0.51c1.75,0.05,3.5,0.01,5.39,0.01c1.88-3.02,3.72-5.99,5.73-9.2c0.94,0.67,1.74,1.13,2.42,1.74
		c1.79,1.6,3.52,3.26,5.27,4.9c1.06,0.99,1.75,2.08,2.14,3.59c1.16,4.47,5.04,5.69,8.24,2.51c1.53-1.52,3.15-2,5.07-2.23
		c3.65-0.43,7.3-0.85,10.96-1.27c2.88-0.33,5.53-1.12,8.08-2.69c11.29-6.96,22.7-13.75,34.04-20.62c1.07-0.65,2.06-1.46,2.99-2.32
		c0.23-0.21,0.19-0.96-0.01-1.3c-0.2-0.34-0.79-0.72-1.13-0.66c-0.76,0.13-1.52,0.44-2.19,0.83c-3.44,2.03-6.86,4.1-10.28,6.17
		c-8.35,5.04-16.71,10.06-25.03,15.14c-1.81,1.11-3.65,1.84-5.78,2.07c-5.08,0.55-10.13,1.25-14.88,1.86
		c-4.55-3.27-3.27-3.41-8.89-2.31c-2.83-2.65-5.84-5.46-8.99-8.41c1.13-2.87,2.79-5.19,4.4-7.76c2-0.33,4.28,0.74,6.23-1.08
		c1.63-1.53,2.56-3.18,2.25-5.47c1.73-0.44,3.1-0.82,4.49-1.12c7.34-1.6,14.68-3.16,22.02-4.77c1.08-0.24,2.19-0.52,3.16-1.01
		c0.38-0.19,0.72-1.12,0.57-1.54c-0.16-0.47-0.87-0.99-1.38-1.04c-0.76-0.07-1.56,0.23-2.34,0.4c-8.6,1.83-17.19,3.66-25.79,5.49
		c-0.94,0.2-1.87,0.46-2.81,0.58c-3.53,0.48-6.7,0.04-9.97-1.94c-12.98-7.87-26.17-15.41-39.26-23.1c-2.2-1.29-4.39-2.5-7.28-2.43
		c-0.14,3.84,0.48,7.04,3.57,9.86c11.34,10.34,22.47,20.91,33.68,31.39c1.28,1.19,2.54,2.4,3.98,3.78c-1.3,3.05-3.08,5.64-4.85,8.41
		c-1.15,0.06-2.24,0.19-3.33,0.18c-4.64-0.07-9.27-0.27-13.91-0.23c-2.06,0.02-3.72-0.55-5.22-1.92c-1.87-1.71-4.12-2.98-6-5.2
		c1.81-1.94,3.52-3.77,5.46-5.85c-0.12-4.72-0.07-9.65-0.98-14.73c-1.35-0.8-2.69-1.63-4.07-2.4
		c-11.71-6.57-23.41-13.16-35.16-19.66c-3.38-1.87-6.52-3.98-9.39-6.58c-4.62-4.19-9.38-8.22-14.06-12.34
		c-0.81-0.71-1.53-1.53-2.18-2.19c0.13-0.42,0.13-0.61,0.22-0.67c0.12-0.09,0.31-0.12,0.46-0.1c3.96,0.55,7.92,1.08,11.86,1.69
		c1.24,0.19,2.45,0.62,3.84,0.99c0.54-0.84,1.04-1.6,1.69-2.59c2.55,0.25,5.24,0.46,7.92,0.79c9.52,1.17,19.03,2.45,28.56,3.52
		c2.29,0.26,3.84,1.1,5.04,3.02c1.26,2.03,2.73,3.92,4.26,6.08c0.93-0.18,1.84-0.3,2.72-0.54c2.43-0.67,4.76-0.1,7.09,0.49
		c5.12,1.28,10.28,2.4,15.33,3.88c4.28,1.25,8.49,1.13,12.79,0.38c2.3-0.4,4.08-1.38,5.61-3.25c3.44-4.2,7.08-8.24,10.73-12.27
		c1.71-1.89,3.63-3.6,5.44-5.41c2.38-2.4,5.31-3.58,8.62-3.61c9.11-0.07,17.81,1.75,25.75,6.35c1.89,1.1,3.77,2.58,5.02,4.34
		c1.53,2.14,3.39,3.72,5.41,5.31c1.99,1.57,3.72,3.47,5.53,5.27c1.42,1.42,2.49,3.19,4.29,4.59c0.31-1.72-0.53-2.76-1.01-3.88
		c-1.01-2.35-1.72-4.94-3.23-6.92c-1.62-2.12-2.44-4.45-3.35-6.81c-0.8-2.08-1.52-4.19-2.3-6.34c-2.02-0.87-4.11-0.82-6.16-1
		c-0.96-0.08-1.92-0.07-2.87-0.2c-2.44-0.34-3.64-1.67-3.44-3.74c0.17-1.82,1.45-2.94,3.7-2.92c2.4,0.02,4.79,0.27,7.18,0.4
		c0.63,0.03,1.26,0.01,1.79,0.01c1.37-0.96,2.18-2.14,2.11-3.68c-0.12-2.71-0.32-5.42-0.59-8.12c-0.06-0.57-0.57-1.09-0.95-1.75
		c-2.21-0.08-4.38-0.17-6.79-0.26c0-0.94-0.04-1.55,0.01-2.15c0.27-3.65,0.55-7.3,0.83-10.91c3.46-0.23,4.08-0.02,4.8,2.64
		c0.72,2.69,2.01,5.05,3.49,7.31c1.44,2.2,2.2,4.55,2.33,7.17c0.09,1.9,0.43,3.78,0.67,5.78c2.96,0.77,5.83,0.27,8.66,0.29
		c1.92,0.01,3.84-0.07,5.75-0.05c1.6,0.02,2.78,0.83,3.37,2.28c1.92,4.74,3.81,9.49,5.65,14.25c0.65,1.68,0.21,3.14-1.29,4.21
		c-0.6,0.43-1.23,0.81-2.18,1.44c3.17,2.35,6.04,4.63,9.06,6.69c2.7,1.84,4.79,4.09,6.41,6.95c2.6,4.59,5.46,9.02,8.18,13.54
		c0.73,1.21,1.37,2.47,1.97,3.56c-0.42,1.27-1.33,1.08-2.06,1.17c-2.38,0.3-4.77,0.53-7.14,0.85c-1.97,0.27-3.76,0.02-5.47-1.14
		c-1.84-1.24-3.82-2.26-5.67-3.33c-1.28,1.03-0.39,1.91-0.07,2.65c3.6,8.36,7.27,16.69,10.91,25.04c0.69,1.6,1.31,3.23,2.04,5.01
		c-3.21,2.07-6.66,3.17-10.26,4.66c-0.55-0.95-1.07-1.72-1.45-2.54c-0.75-1.59-1.55-3.17-2.11-4.83
		C861.13-156.82,859.27-159.85,855.36-161.85z M778.06-196.68c0.47,0.5,0.74,0.92,1.12,1.16c7.83,4.96,15.68,9.89,23.5,14.87
		c1.32,0.84,2.6,0.96,4.1,0.67c3.61-0.68,7.27-1.11,10.86-1.89c1.98-0.43,3.8-0.3,5.62,0.44c3.4,1.39,6.84,2.7,10.17,4.24
		c8.12,3.76,16.19,7.63,24.28,11.45c0.69,0.33,1.39,0.86,2.34,0.04c-0.47-0.77-0.88-1.61-1.44-2.33
		c-7.33-9.48-14.66-18.96-22.05-28.4c-1.47-1.88-3.16-3.61-4.77-5.38c-2.52-2.76-5.63-4.7-9.01-6.22c-0.52-0.23-1.17-0.18-2.36-0.35
		c1.68,1.86,2.98,3.22,4.18,4.66c1.14,1.37,1.98,2.89,1.91,4.78c-0.06,1.54-1.28,2.76-2.81,2.54c-1.26-0.18-2.49-0.56-3.73-0.88
		c-7.58-1.94-15.15-3.93-22.75-5.83c-2.79-0.7-5.63-1.15-8.44-1.77c-1.32-0.29-2.57-0.24-3.67,0.56
		C782.27-202.23,779.76-199.84,778.06-196.68z M800.53-125.5c0.18-2.39-0.83-4.5-3.48-5.79c-1.43-0.69-2.8-1.54-4.09-2.46
		c-1.76-1.25-3.56-1.18-5.45-0.45c-4.73,1.83-7.95,7.07-7.58,12.16c0.16,2.21,0.92,3.94,3.02,5.02c1.7,0.86,3.31,1.91,4.91,2.95
		c1.49,0.97,3,0.91,4.57,0.37C797.04-115.27,800.48-120.12,800.53-125.5z M877.32-183.44c-1.13-2.22-2.59-3.67-3.84-5.26
		c-1.38-1.75-2.75-3.49-4.21-5.18c-1.26-1.46-2.24-3.22-4.21-4.63c1.35,4.26,5.41,11.94,7.9,15.07
		C874.21-183.44,875.56-183.44,877.32-183.44z"></path><path _ngcontent-motorbikeApp-c42="" d="M847.08-139.07c3.43,0.28,6.59,0.54,9.95,0.82c1.17,1.41,2.39,2.86,3.66,4.38c-0.7,1.59-1.36,3.03-1.97,4.48
		c-7.11,16.9,4.35,34.71,20.95,37.38c11.58,1.86,26.37-4.88,30.47-19.81c3.66-13.33-3.28-27.23-16.29-32.43
		c-1.61-0.64-3.26-1.17-4.96-1.78c0.04-2.04,1.54-2.92,2.56-4.01c4.11-4.4,2.29-3.56,8.05-4.27c6.62-0.81,5.64-1.6,11.26,3.28
		c13.3,11.57,18.03,26.31,13.39,43.2c-4.59,16.7-16.11,26.77-33.22,30.1c-22.27,4.34-47.29-11.71-48.98-39.17
		C841.47-124.53,843.2-131.76,847.08-139.07z"></path><path _ngcontent-motorbikeApp-c42="" d="M715.44-116.91c6.15-0.53,11.72-0.07,16.17,4.47c-0.58,15.67-15.66,31.82-32.9,35.45c-19.25,4.05-38.83-5.28-47.65-23.1
		c-8.68-17.55-3.77-39.16,9.76-50.31c0.94,1.39,1.73,2.93,2.88,4.12c1.09,1.13,2.58,1.86,3.85,2.83c1.88,1.44,4.07,2.49,5.76,4.53
		c-5.03,4.9-8.59,10.44-9.17,17.48c-0.45,5.4,0.56,10.48,3.28,15.2c5.52,9.6,16.13,14.02,25.5,12.7
		C704.72-95.19,712.21-102.94,715.44-116.91z"></path><path _ngcontent-motorbikeApp-c42="" d="M665.52-171.66c1.98-0.68,3.39,0.34,4.9,0.69c4.74,1.09,8.81,3.37,12.69,6.34c13.68,10.48,27.48,20.8,41.32,31.07
		c2.13,1.58,3.34,3.35,3.33,5.92c-0.01,1.07-0.07,2.24-0.49,3.2c-0.62,1.44-1.56,2.74-2.52,4.37c-1.07,0-2.16,0.05-3.25-0.01
		c-3.82-0.22-7.65-0.74-11.46-0.64c-4.09,0.11-7.27-1.45-10.47-3.79c-10.31-7.52-20.71-14.92-31.22-22.17
		c-2.47-1.7-3.7-3.72-4.15-6.55c-0.42-2.67-1.02-5.32-1.64-7.96c-0.45-1.94-0.42-3.75,0.57-5.55
		C664.05-168.39,664.79-170.14,665.52-171.66z"></path><path _ngcontent-motorbikeApp-c42="" d="M849.2-142.34c2.28-4.56,5.42-7.82,9.82-10.26c1.59,3.46,3.18,6.91,4.86,10.55c1.16-0.12,2.21-0.24,3.47-0.38
		c0.3,0.43,0.75,0.89,1,1.44c3.28,7.46,6.53,14.93,9.79,22.39c0.45,1.02,0.85,2.08,1.44,3.02c1.4,2.23,3.85,3.03,6.24,2.16
		c2.37-0.86,3.64-3.1,3.08-5.78c-0.25-1.23-0.79-2.42-1.29-3.59c-2.92-6.74-5.87-13.47-8.8-20.21c-0.5-1.16-0.96-2.33-1.51-3.68
		c0.94-0.72,1.79-1.38,2.82-2.17c-0.8-3.98-3.3-7.44-4.37-11.37c2.51-1.37,6.25-2.13,10.19-1.76c5.02,0.46,10.09,0.83,14.64,3.47
		c-0.48,1.26-1.4,0.89-2.07,1.03c-0.78,0.16-1.58,0.2-2.38,0.28c-1.82,0.17-3.35,0.81-4.57,2.28c-1.93,2.33-3.98,4.57-5.97,6.85
		c0.14,2.85,0.23,5.71,0.44,8.56c0.14,1.9,0.46,3.79,0.71,5.8c1.5,0.73,2.97,1.31,4.32,2.11c5.12,3.07,7.67,7.65,7.28,13.59
		c-0.39,5.94-3.46,10.27-9.01,12.48c-5.11,2.03-10.1,1.44-14.48-2.02c-4.73-3.72-6.22-8.73-5.2-14.54c0.24-1.39,0.74-2.74,1.21-4.42
		c-4-4.88-8.04-9.8-12.1-14.75C855.62-141.6,852.62-141.95,849.2-142.34z"></path><path _ngcontent-motorbikeApp-c42="" d="M685.11-130.98c5.59,3.97,11.41,8.11,17.29,12.29c0.69,2.99-0.58,5.36-2.15,7.58c-2.02,2.87-4.9,4.54-8.3,5.19
		c-6.46,1.23-13.06-2.79-14.96-9.09C675.02-121.55,678.41-129.29,685.11-130.98z"></path><path _ngcontent-motorbikeApp-c42="" d="M830.88-136.63c-0.33,1.82-0.83,3.28-1.31,4.77c-1.33,4.09-2.56,8.21-3.95,12.29c-0.4,1.16-0.95,2.46-1.82,3.25
		c-4.25,3.82-8.64,7.49-12.91,11.14c-1.31-0.64-0.85-1.5-0.68-2.14c1.17-4.3,2.41-8.59,3.64-12.88c0.72-2.52,2.07-4.68,4.05-6.37
		c3.76-3.21,7.57-6.36,11.39-9.51C829.59-136.34,830.09-136.37,830.88-136.63z"></path><path _ngcontent-motorbikeApp-c42="" d="M765.21-168.29c-0.99,4.13-3.58,7.31-5.83,10.7c-3.46-2.26-10.14-8.44-12.73-11.73c0.29-1.01,1.24-0.8,1.93-0.95
		c1.87-0.41,3.84-0.49,5.64-1.1C758.34-172.76,761.71-171.63,765.21-168.29z"></path><path _ngcontent-motorbikeApp-c42="" d="M728.14-119.08c0.73-1.35,1.38-2.55,2.18-4.04c0.9,0.47,1.6,0.75,2.22,1.16c6.74,4.54,13.47,9.09,20.19,13.65
		c0.79,0.53,1.63,1.05,2.25,1.75c0.68,0.77,0.66,1.81,0.05,2.65c-0.52,0.72-1.31,0.84-2.12,0.44c-0.57-0.28-1.13-0.58-1.67-0.91
		c-7.05-4.35-14.1-8.71-21.13-13.08C729.47-117.87,728.92-118.43,728.14-119.08z"></path><path _ngcontent-motorbikeApp-c42="" d="M871.02-144.27c0.81-0.35,1.78-0.77,2.88-1.25c0.49,0.82,0.98,1.45,1.29,2.16c3.31,7.56,6.6,15.14,9.86,22.72
		c0.37,0.86,0.69,1.79,0.72,2.7c0.02,0.47-0.57,1.17-1.05,1.39c-0.48,0.22-1.28,0.13-1.76-0.14c-0.5-0.29-0.89-0.91-1.13-1.47
		c-3.67-8.44-7.32-16.89-10.95-25.34C870.82-143.62,870.93-143.81,871.02-144.27z"></path><path _ngcontent-motorbikeApp-c42="" d="M720.6-194.72c1.09,0.57,2.2,1.11,3.26,1.73c3.58,2.07,7.09,4.27,10.73,6.22c1.87,1,2.84,2.42,3.24,4.39
		c0.34,1.7,0.71,3.39,1.05,5c-0.27,0.19-0.36,0.3-0.47,0.32c-0.15,0.03-0.37,0.04-0.46-0.05c-5.62-5.16-11.24-10.33-16.83-15.52
		c-0.44-0.41-0.75-0.96-1.12-1.45C720.19-194.29,720.39-194.5,720.6-194.72z"></path><path _ngcontent-motorbikeApp-c42="" d="M741.41-182.35c4.58,2.02,8.34,4.57,12.77,7.19c-3.79,1.61-7.12,2-10.7,2.13C742.58-176.08,741.67-178.9,741.41-182.35z"></path><path _ngcontent-motorbikeApp-c42="" d="M794.4-124.24c0.12,2.3-1.73,4.23-4.09,4.28c-2.22,0.04-4-1.49-4.23-3.62c-0.25-2.33,1.45-4.34,3.81-4.52
		C792.23-128.28,794.28-126.53,794.4-124.24z"></path></g><g _ngcontent-motorbikeApp-c42=""><path _ngcontent-motorbikeApp-c42="" d="M186.44,22.36c5.25,0,10.46,0,15.72,0c0.82-1.39,1.61-2.75,2.46-4.2c0.75,0.07,1.48,0.12,2.2,0.22
		c2.86,0.39,5.72,0.79,8.58,1.18c3.03,0.41,5.87-0.15,8.46-1.79c2.62-1.66,3.31-4.07,1.96-6.87c-0.1-0.2-0.19-0.4-0.33-0.7
		c0.3-0.15,0.58-0.32,0.87-0.44c0.63-0.24,1.27-0.45,1.99-0.7c-0.44-1.24-1.02-2.08-2.35-2.45c-2.45-0.68-4.87-1.51-7.28-2.33
		c-0.64-0.22-1.19-0.23-1.79,0.06c-0.66,0.32-1.35,0.58-2.04,0.84c-0.31,0.12-0.65,0.2-0.98,0.23c-0.5,0.04-0.91-0.26-1.04-0.7
		c-0.14-0.46-0.1-0.91,0.27-1.25c0.2-0.19,0.46-0.33,0.72-0.44c2.8-1.21,5.61-2.42,8.42-3.62c0.05-0.02,0.11,0,0.24,0.01
		c0.35,0.42,0.74,0.87,1.25,1.47c0.17-0.4,0.29-0.64,0.38-0.88c0.47-1.45,0.88-2.93,1.42-4.36c0.35-0.93,0.27-1.7-0.21-2.57
		c-1.65-2.99-2.79-6.19-3.48-9.53c-0.04-0.21-0.05-0.44-0.1-0.87c0.33,0.32,0.57,0.46,0.7,0.68c0.61,0.96,1.2,1.92,1.77,2.9
		c1.16,2.01,2.32,4.02,3.42,6.06c0.76,1.4,1.61,2.73,2.68,3.91c0.33,0.37,0.6,0.79,0.95,1.26c-0.38,0.22-0.67,0.37-0.96,0.55
		c-1.28,0.8-1.83,1.97-1.75,3.45c0.05,0.85,0.1,1.7,0.24,2.53c0.09,0.54,0.27,1.11,0.55,1.58c1.67,2.76,3.37,5.5,5.12,8.33
		c1.26,0.04,2.53,0.08,3.92,0.13c-0.27,0.72-0.94,0.8-1.25,1.26c0.24,1.19,1.5,3.89,2.37,5.1c1.56-0.31,3.1-0.69,4.66-0.91
		c3.72-0.51,7.22,0.15,10.41,2.2c1.49,0.96,2.73,2.17,3.53,3.72c-0.18,0.45-0.5,0.34-0.76,0.34c-3-0.07-6-0.16-9.01-0.24
		c-1.79-0.05-3.49,0.34-5.13,1c-0.25,0.1-0.46,0.29-0.76,0.48c0.51,1.06,1,2.07,1.51,3.12c1.69-0.34,3.24-0.22,4.62,0.76
		c0.95,0.68,1.63,1.56,1.98,2.69c0.69,2.28-0.2,4.68-2.2,5.92c-2,1.24-4.59,0.98-6.29-0.62c-1.99-1.88-2.09-4.29-0.26-7.5
		c-0.25-0.44-0.51-0.93-0.8-1.41c-0.29-0.48-0.6-0.94-0.86-1.34c-0.52-0.1-0.73,0.2-0.97,0.43c-1.86,1.75-2.92,3.86-2.89,6.46
		c0.01,0.62-0.03,1.24-0.05,1.88c-1.04,0.46-2.07,0.26-3.06,0.29c-1.01,0.03-2.03,0.18-3.02-0.05c-0.56-1.86-0.11-5.7,1.01-8.47
		c1.09-2.69,2.95-4.8,5.14-6.74c-0.18-0.74-0.62-1.3-1.03-1.86c-0.49-0.03-0.59,0.34-0.77,0.59c-1.11,1.57-2.23,3.14-3.3,4.74
		c-0.41,0.61-0.74,1.27-1.02,1.95c-1.5,3.67-2.96,7.35-4.44,11.03c-0.17,0.42-0.32,0.85-0.54,1.25c-0.92,1.66-2.34,2.57-4.24,2.71
		c-0.45,0.04-0.91,0.02-1.36,0.02c-7.93,0-15.87-0.01-23.8,0.01c-1.21,0-2.36-0.15-3.45-0.68c-0.5-0.24-1.04-0.39-1.64-0.61
		c-3.54,6.26-8.77,9.43-16,8.6c-5.06-0.58-9.61-4.02-11.34-8.18c0.12-0.35,0.45-0.29,0.71-0.29c1.7-0.01,3.4,0.02,5.1-0.02
		c0.89-0.02,1.6,0.21,2.34,0.76c2.38,1.76,5.05,2.19,7.9,1.37c2.22-0.65,3.9-2.04,5.16-3.94c0.26-0.39,0.31-0.93,0.49-1.51
		c0.59,0,1.21,0,1.83,0c6.18,0,12.36,0,18.53,0c0.51,0,1.02,0.03,1.53-0.03c2.74-0.31,4.11-3.1,2.66-5.44
		c-0.48-0.77-1.08-1.45-1.63-2.17c-0.86-1.12-1.73-2.24-2.55-3.3c0.1-0.44,0.23-0.76,0.23-1.09c0-0.62-0.71-0.97-1.23-0.64
		c-0.74,0.47-1.03,1.24-0.69,2.06c0.19,0.46,0.49,0.89,0.8,1.29c0.99,1.31,2,2.6,3.01,3.9c0.24,0.31,0.51,0.62,0.7,0.96
		c0.6,1.13,0.04,2.36-1.21,2.64c-0.38,0.08-0.79,0.07-1.18,0.07c-6.52,0-13.04,0-19.55,0.01c-0.68,0-1.27-0.18-1.92-0.45
		c-1.08-0.45-2.3-0.58-3.46-0.84c-0.27-0.06-0.55-0.11-0.89-0.17c0.05-0.27,0.05-0.5,0.14-0.68c1.92-3.85,3.85-7.7,5.78-11.54
		C186.09,22.76,186.21,22.64,186.44,22.36z M217.71,36.41c-0.03-0.49-0.04-0.88-0.08-1.26c-0.13-1.12,0.2-2.08,0.86-3
		c1.09-1.52,2.08-3.11,3.1-4.67c0.18-0.28,0.34-0.58,0.45-0.9c0.04-0.12-0.06-0.33-0.15-0.44c-0.17-0.2-0.44-0.2-0.6-0.03
		c-0.3,0.33-0.58,0.69-0.83,1.06c-0.85,1.26-1.68,2.54-2.43,3.67c-2.33,0-4.47,0-6.64,0c-0.9-1.35-1.76-2.68-2.65-3.99
		c-0.27-0.4-0.46-1-1.13-0.79c-0.37,0.11-0.29,0.66,0.24,1.47c0.99,1.52,1.95,3.06,3,4.53c0.66,0.92,0.98,1.87,0.91,3
		c-0.04,0.65-0.18,1.35,0.28,2.05c0.72,0,1.45-0.02,2.18,0.01c0.7,0.03,1.43-0.17,2.24,0.24c-1.34,1.14-2.58,1.86-4.34,1.83
		c-5.84-0.1-11.67-0.04-17.51-0.04c-0.68,0-1.36-0.01-2.04,0.01c-0.28,0.01-0.57,0.04-0.83,0.14c-0.34,0.13-0.54,0.42-0.52,0.79
		c0.02,0.38,0.27,0.65,0.63,0.69c0.5,0.07,1.02,0.06,1.53,0.06c4.87,0,9.75,0,14.62,0c1.81,0,3.63-0.01,5.44,0.01
		c0.64,0.01,1.21-0.12,1.76-0.49c2.44-1.65,4.94-3.21,7.34-4.91c3.26-2.3,5.19-5.49,5.87-9.4c0.35-2.01,0.51-4.04,0.74-6.07
		c0.03-0.28,0.03-0.57,0-0.85c-0.05-0.39-0.33-0.59-0.69-0.64c-0.38-0.06-0.67,0.15-0.82,0.47c-0.12,0.25-0.15,0.54-0.19,0.82
		c-0.22,1.8-0.43,3.6-0.66,5.39c-0.46,3.61-2.12,6.54-5.02,8.73c-1.08,0.82-2.25,1.53-3.38,2.27
		C218.24,36.28,218.01,36.31,217.71,36.41z M214.62,27.9c0.45-0.03,0.91-0.03,1.35-0.09c1.25-0.18,2.42-0.59,3.39-1.44
		c1.55-1.36,1.54-3.18-0.03-4.53c-0.17-0.15-0.35-0.29-0.55-0.4c-2.75-1.52-5.54-1.57-8.24,0.04c-2.33,1.4-2.27,3.84,0.03,5.31
		C211.81,27.59,213.17,27.91,214.62,27.9z M188.97,34.04c1.08,0,2.15,0.02,3.23,0c2.99-0.05,5.2-1.44,6.59-4.04
		c0.9-1.69,1.63-3.48,2.43-5.23c0.16-0.36,0.33-0.76-0.07-1.08c-0.27-0.22-0.68,0.05-0.97,0.67c-0.67,1.43-1.31,2.88-1.99,4.31
		c-0.26,0.56-0.53,1.13-0.9,1.63c-1.26,1.69-2.95,2.61-5.07,2.64c-2.15,0.03-4.3,0-6.45,0.02c-0.39,0-0.78,0.06-1.16,0.15
		c-0.12,0.03-0.25,0.25-0.25,0.39c0,0.13,0.12,0.35,0.23,0.39c0.32,0.09,0.66,0.14,0.99,0.15
		C186.71,34.05,187.84,34.04,188.97,34.04z"></path><path _ngcontent-motorbikeApp-c42="" d="M182.94,19.23c0.8,0.94,1.52,1.79,2.29,2.69c-2.22,4.46-4.4,8.85-6.6,13.15c-1.66,0.23-20.04,0.22-21.54-0.01
		c0.06-0.26,0.07-0.54,0.18-0.77c1.67-3.33,3.33-6.67,5.04-9.99c1-1.93,2.62-3.09,4.8-3.36c2.58-0.32,5.17-0.6,7.75-0.9
		c1.85-0.21,3.71-0.42,5.56-0.61C181.21,19.35,182,19.3,182.94,19.23z"></path><path _ngcontent-motorbikeApp-c42="" d="M141.81-18.88c0.18,0.19,0.53,0.04,0.64,0.41c0.32,1.08,0.71,2.15,1.04,3.22c2.14,6.91,4.28,13.82,6.42,20.74
		c0.15,0.48,0.31,0.94,0.5,1.48c0.65-0.38,0.87-0.98,1.16-1.51c0.37-0.65,0.84-0.97,1.6-1.07c3.98-0.51,7.96-1.07,12.04-1.63
		c1.86,1.58,3.75,3.18,5.69,4.81c-0.09,1.13-1.12,4.89-2.4,8.62c-0.34,0.05-0.72,0.15-1.1,0.16c-4.59,0.01-9.17,0-13.76,0.02
		c-0.73,0-1.25-0.22-1.78-0.75c-1.33-1.31-2.14-2.77-2.43-4.68c-0.81-5.2-2.39-10.23-3.65-15.33c-1.08-4.39-2.22-8.77-3.38-13.14
		c-0.12-0.46-0.07-1.03-0.55-1.37L141.81-18.88z"></path><path _ngcontent-motorbikeApp-c42="" d="M231.49,38.9c1.97-0.23,3.83-0.14,5.68-0.21c0.22,0.43,0.41,0.77,0.59,1.12c2.06,4.19,6.8,5.9,11.09,4.38
		c6.81-2.41,8.71-11.02,3.53-16.06c-0.38-0.37-0.9-0.64-1.21-1.17c1.32-0.25,4.65-0.24,6.81,0c2.89,3.56,3.71,10.47,0.4,15.84
		c-3.29,5.33-9.49,8.02-15.47,6.84C237.26,48.55,232.35,44.01,231.49,38.9z"></path><path _ngcontent-motorbikeApp-c42="" d="M201.37,21.21c-0.36,0.02-0.75,0.06-1.14,0.06c-4.25,0-8.5-0.02-12.74,0.02c-0.94,0.01-1.6-0.26-2.18-1
		c-0.63-0.79-1.38-1.48-2.08-2.21c-0.96-0.01-1.92-0.05-2.88-0.03c-1.36,0.02-2.72,0.07-4.07,0.09c-0.68,0.01-1.35,0-2.01,0
		c-0.56-0.62-0.81-1.27-0.86-2.1c0.48-0.23,0.92-0.46,1.38-0.66c2.29-0.98,4.6-1.92,6.87-2.93c1-0.45,2.01-0.72,3.1-0.77
		c0.79-0.04,1.58-0.13,2.37-0.14c1.56-0.02,2.87,0.56,3.88,1.76c0.44,0.52,0.87,1.05,1.28,1.59c2.26,2.96,7.27,2.99,9.59,0.71
		c0.61-0.59,1.24-1.16,1.86-1.74c0.46-0.44,1-0.75,1.62-0.87c0.2-0.04,0.42,0.04,0.65,0.06C205.54,14.35,202.31,20.01,201.37,21.21z
		"></path><path _ngcontent-motorbikeApp-c42="" d="M205.41,16.91c0.68-1.25,1.25-2.35,1.88-3.42c0.22-0.37,0.57-0.7,0.94-0.93c3.08-1.9,6.17-3.79,9.28-5.63
		c2.09-1.23,4.15-0.72,5.44,1.3c0.67,1.05,1.29,2.13,1.88,3.22c1.07,2.02,0.62,3.88-1.27,5.18c-2.12,1.46-4.51,2.17-7.07,1.9
		c-3.43-0.36-6.84-0.88-10.26-1.34C206.02,17.16,205.82,17.05,205.41,16.91z"></path><path _ngcontent-motorbikeApp-c42="" d="M235.17,12.85c-1.63-2.64-3.21-5.18-4.76-7.74c-0.23-0.38-0.42-0.82-0.47-1.25c-0.11-0.95-0.14-1.91-0.16-2.87
		c-0.04-1.88,2.09-2.82,3.37-2.1c0.15,0.08,0.31,0.14,0.45,0.23c2.45,1.4,4.9,2.81,7.34,4.22c0.19,0.11,0.35,0.27,0.58,0.44
		c-0.26,2.97-0.52,5.93-0.78,8.9c-0.22,0.07-0.38,0.17-0.53,0.17C238.59,12.85,236.95,12.85,235.17,12.85z"></path><path _ngcontent-motorbikeApp-c42="" d="M152.72,38.78c-0.01-0.27-0.03-0.6-0.04-0.86c0.14-0.14,0.2-0.25,0.29-0.29c1.1-0.5,2.24-0.71,3.45-0.7
		c7.53,0.03,15.06,0.03,22.59,0c1.21,0,2.36,0.22,3.52,0.48c0.36,0.08,0.66,0.31,0.59,0.69c-0.04,0.24-0.23,0.56-0.43,0.64
		c-1.56,0.65-3.09,1.27-4.87,1.25c-7.02-0.08-14.04-0.06-21.06-0.01C155.3,39.99,153.98,39.71,152.72,38.78z"></path><path _ngcontent-motorbikeApp-c42="" d="M181.03,6.43c-2.52,0.19-4.82,0.41-7.14,0.51c-1.27,0.05-2.47-0.35-3.46-1.19c-1.21-1.02-2.4-2.07-3.6-3.11
		c-0.02-0.87,0.41-1.56,0.65-2.3c0.23-0.7,0.46-1.41,0.79-2.06c0.79-1.56,2.69-1.75,3.77-0.37c0.59,0.75,1.09,1.58,1.58,2.41
		c1.01,1.7,2.43,2.81,4.39,3.17c0.28,0.05,0.55,0.13,0.82,0.2C180.11,4.07,180.81,4.92,181.03,6.43z"></path><path _ngcontent-motorbikeApp-c42="" d="M172.11,8.15c1.77-0.11,3.29-0.2,4.8-0.29c0.96-0.06,1.92-0.06,2.87-0.17c0.9-0.11,1.52,0.26,2.05,0.91
		c0.46,0.57,0.87,1.17,1.04,1.99c-1.3,0.81-2.75,1.27-4.12,1.88c-1.39,0.62-2.79,1.22-4.21,1.77c-1.42,0.55-2.86,1.01-4.28,1.51
		c-0.11-0.18-0.23-0.29-0.21-0.36C170.61,12.91,171.41,10.51,172.11,8.15z"></path><path _ngcontent-motorbikeApp-c42="" d="M244.86,8.21c0.05,1.48,0.12,2.86-0.05,4.29c-1.12,0.27-2.05,0.13-2.72-0.81c-0.54-0.75-0.56-1.61-0.15-2.39
		C242.51,8.2,243.5,7.93,244.86,8.21z"></path><path _ngcontent-motorbikeApp-c42="" d="M158.62,28.36c-0.16-1.72-0.2-3.39-0.12-5.13c0.9-0.25,1.72-0.17,2.61-0.08c-0.05,1.08-0.68,1.9-1.09,2.79
		C159.64,26.77,159.31,27.66,158.62,28.36z"></path><path _ngcontent-motorbikeApp-c42="" d="M244.1,14c0.07,1.22,0.13,2.33-0.04,3.42c-1.51,0.18-2.34-0.41-2.37-1.63c-0.01-0.53,0.13-1,0.52-1.37
		C242.61,14.05,242.89,13.98,244.1,14z"></path><path _ngcontent-motorbikeApp-c42="" d="M141.84-18.88c0.09-0.54-0.52-0.51-0.7-0.84c-0.23-0.42-0.16-0.94,0.2-1.21c0.36-0.27,0.95-0.19,1.17,0.22
		c0.12,0.22,0.2,0.57,0.11,0.77c-0.19,0.39-0.52,0.71-0.8,1.07C141.81-18.88,141.84-18.88,141.84-18.88z"></path><path _ngcontent-motorbikeApp-c42="" d="M216.66,34.01c-0.03,1.07-0.9,1.93-1.97,1.93c-1.11,0-2.05-0.98-2-2.09c0.04-1.05,0.94-1.92,1.99-1.92
		C215.82,31.92,216.7,32.85,216.66,34.01z"></path><path _ngcontent-motorbikeApp-c42="" d="M216.66,24.17c-0.02,1.15-0.95,2.01-2.1,1.95c-1.07-0.06-1.89-0.95-1.87-2.02c0.02-1.06,0.89-1.94,1.95-1.96
		C215.76,22.1,216.68,23.02,216.66,24.17z"></path></g><g _ngcontent-motorbikeApp-c42=""><path _ngcontent-motorbikeApp-c42="" d="M843.15-315.03c-1.78,0.08-3.2,0.19-4.61,0.19c-5.28,0.02-10.56-0.09-15.83,0.03c-15.61,0.35-30.95-1.45-46.06-5.33
		c-2.32-0.6-4.65-1.13-6.97-1.71c-0.1-0.02-0.15-0.22-0.24-0.36c0.07-1.47,1.47-1.54,2.35-2.02c8.21-4.45,15.69-9.88,22.34-16.42
		c2.73-2.68,5.22-5.61,7.71-8.53c1.13-1.33,1.99-2.89,2.99-4.34c1.83-2.66,1.93-5.31,0.08-8.03c-2.33-3.44-4.6-6.92-6.91-10.37
		c-0.88-1.31-1.8-2.6-2.8-4.03c1.48-2.8,2.91-5.46,4.3-8.14c0.66-1.27,1.88-1.64,3.08-2.1c4.63-1.76,9.26-3.53,13.88-5.31
		c1.48-0.57,2.95-1.18,4.68-1.87c0.53-2.11,1.06-4.24,1.6-6.39c-3.28-3.56-7.16-5.66-11.52-6.9c-2.2-0.62-4.41-0.28-6.63,0.24
		c-12.29,2.89-24.59,5.71-36.89,8.55c-3.58,0.83-7.18,1.57-10.72,2.55c-2.67,0.74-5.33,0.89-8.06,0.67
		c-7.33-0.59-14.66-1.19-22-1.63c-2.06-0.12-3.63-1.02-5.28-2.02c-14.78-8.94-29.02-18.7-43.37-28.29
		c-2.13-1.42-4.26-2.84-6.36-4.29c-0.47-0.33-0.84-0.8-1.3-1.24c0.46-0.32,0.7-0.63,0.91-0.61c11.77,1.04,23.54,2.1,35.39,3.17
		c1.31,1.99,2.55,3.84,3.76,5.71c2.6,4.03,5.36,7.96,7.73,12.12c1.84,3.23,4.3,5.35,7.74,6.71c3.56,1.4,6.98,3.17,10.45,4.81
		c1.33,0.63,2.65,1.01,4.15,0.79c9.65-1.37,19.31-2.69,28.96-4.06c0.43-0.06,0.82-0.41,1.52-0.78c-0.59-1.15-1.04-2.3-1.72-3.29
		c-1.33-1.95-1.25-4.02-0.28-5.92c0.93-1.82,2.11-3.62,3.56-5.05c5.89-5.85,12.92-9.25,21.37-9.46c7.92-0.19,15.62,1.17,23.15,3.4
		c7.04,2.08,14.01,4.44,20.94,6.86c9.14,3.2,18.48,5.09,28.18,4.92c2.38-0.04,4.77-0.44,7.12-0.84c1.24-0.21,2.49-0.65,3.61-1.24
		c3.83-1.99,4.46-5.65,1.32-8.57c-1.61-1.49-3.58-2.68-5.55-3.7c-4.28-2.2-8.91-3.5-13.56-4.71c-1.69-0.44-3.38-0.86-5.28-1.35
		c0-1.01-0.12-1.93,0.02-2.82c0.71-4.4,2.94-10.74,5.43-15.54c0.65,0.39,1.38,0.67,1.92,1.16c10.61,9.49,20.96,19.26,30.04,30.26
		c2.94,3.57,5.65,7.35,8.19,11.22c1.56,2.38,2.75,5.05,3.78,7.71c0.61,1.59,0.69,3.41,0.83,5.15c0.14,1.75-0.72,3.15-2.23,3.94
		c-1.69,0.89-3.45,1.67-5.26,2.28c-3.18,1.07-6.41,1.97-9.62,2.96c-16.48,5.04-29.11,15.05-37.97,29.76
		c-2.55,4.23-4.58,8.76-6.81,13.18c-1.03,2.04-1.28,4.16-1.01,6.49c0.78,6.82,1.32,13.67,1.94,20.51
		C843.36-316.47,843.24-315.99,843.15-315.03z M854.5-380.53c-0.08-0.12-0.15-0.33-0.23-0.33c-5.45-0.14-10.77,0.79-16.06,1.96
		c-1.15,0.26-1.93,1.03-2.44,2.11c-2.37,5.04-4.75,10.07-7.11,15.11c-0.03,0.07,0.16,0.26,0.32,0.49c0.38-0.14,0.85-0.19,1.18-0.44
		c8.04-6.01,16.07-12.03,24.08-18.07C854.42-379.85,854.42-380.25,854.5-380.53z M798.08-327.43c0.69,0.1,1.39,0.29,2.08,0.28
		c7.03-0.05,14.06,0.2,21.07-0.88c6.29-0.96,5.81-3.39,3.58-7.38c-2.89-5.2-6.66-9.76-10.7-14.09c-0.19-0.21-0.55-0.26-1.22-0.56
		c0.29,1.11,0.37,2.05,0.76,2.83c1.85,3.72,3.81,7.38,5.66,11.1c0.47,0.94,1.38,1.82,0.75,3.36
		C812.93-330.84,805.21-330.61,798.08-327.43z"></path><path _ngcontent-motorbikeApp-c42="" d="M803.35-357.44c-0.74,1.31-1.41,2.75-2.3,4.04c-7.82,11.37-23.26,23.75-35.72,28.6c-0.88-2.43-2.71-4.02-4.87-5.43
		c-6.29-4.11-12.48-8.36-18.7-12.57c-1.45-0.98-2.87-2.01-4.16-2.91c-0.21-0.48-0.43-0.76-0.45-1.06c-0.29-4.33-2.64-7.08-6.14-9.56
		c-8.98-6.39-17.69-13.17-26.49-19.82c-0.96-0.73-2.33-1.18-2.5-3.02c5.76,0.65,10.84,2.77,15.64,5.72
		c4.82,2.96,8.77,6.88,12.25,11.6c3.05-0.97,5.91-1.88,8.78-2.8c2.89-0.93,5.78-1.86,8.66-2.82c0.9-0.3,1.84-0.6,2.65-1.09
		c2.31-1.43,2.82-4.61,1.01-6.65c-0.83-0.94-1.93-1.66-2.97-2.41c-5.58-4.02-11.18-8-16.76-12.01c-0.99-0.71-1.91-1.5-2.85-2.24
		c0.88-1.31,1.9-0.84,2.77-0.79c6.22,0.37,12.45,0.76,18.66,1.21c2.58,0.19,5.07-0.07,7.59-0.67c15.08-3.59,30.17-7.08,45.26-10.6
		c0.47-0.11,0.95-0.16,1.4-0.31c5.09-1.77,9.4,0.02,13.45,2.93c2.03,1.45,1.86,3.94-0.43,4.9c-3.83,1.61-7.74,3-11.61,4.53
		c-2.52,1-5.45,1.56-7.38,3.25c-1.93,1.69-2.86,4.54-4.17,6.9c-0.85,1.53-1.6,3.11-2.46,4.77
		C795.27-369.6,800.32-364.33,803.35-357.44z M761.8-362.18c2.51,2.29,4.46,4.16,6.51,5.92c1.44,1.24,2.18,1.3,2.91,0.59
		c0.82-0.79,0.51-1.72-1.07-3.14c-0.95-0.85-1.97-1.63-2.91-2.49c-2.09-1.94-3.2-4.34-3.22-7.22c-0.01-1.28-0.07-2.56,0.03-3.83
		c0.23-3.2,1.92-5.55,4.96-6.35c3.09-0.81,6.39-2.62,9.45,0.32c0.29,0.28,0.91,0.28,1.38,0.33c2.13,0.22,4.18-1.02,4.99-2.99
		c0.86-2.1,0.04-4.54-1.96-5.86c-1.85-1.22-4.1-1.1-5.71,0.49c-0.89,0.88-1.55,1.99-2.35,3.03c-1.7,0.4-3.42,0.78-5.11,1.2
		c-5.91,1.47-8.64,4.81-8.83,10.82c-0.06,1.89-0.01,3.78-0.01,5.81c-0.91,0.3-1.63,0.6-2.38,0.77c-2.18,0.49-4.4,0.84-6.56,1.4
		c-3.76,0.97-6.27,3.41-6.75,7.26c-0.91,7.31,1.05,10.83,7.19,14.85c0.34,0.22,1.33-0.03,1.62-0.38c0.3-0.36,0.37-1.31,0.1-1.68
		c-0.65-0.88-1.5-1.65-2.38-2.32c-3.17-2.43-3.75-5.76-3.39-9.43c0.26-2.67,1.6-4.49,4.27-5.11
		C755.66-360.91,758.78-361.53,761.8-362.18z M795.5-359.13c0-0.96-0.07-1.92,0.01-2.87c0.19-2.14-0.78-3.64-2.4-4.89
		c-4.39-3.4-10.79-3.31-15.09,0.22c-1.31,1.08-2.09,2.35-2.04,4.1c0.05,1.59,0.16,3.21-0.03,4.78c-0.46,3.87,1.67,5.93,4.84,7.32
		c3.06,1.34,6.18,1.43,9.31,0.21c4.13-1.61,5.35-3.4,5.39-7.9C795.51-358.5,795.51-358.82,795.5-359.13z M758.21-357.76
		c-2.61,0.02-4.82,2.26-4.81,4.89c0.01,2.71,2.13,4.8,4.84,4.79c2.7-0.01,4.83-2.14,4.83-4.82
		C763.06-355.47,760.76-357.78,758.21-357.76z"></path><path _ngcontent-motorbikeApp-c42="" d="M667.24-368.24c3.3,4.63,8.62,6.4,12.39,10.26c-0.44,1.5-1.73,2.27-2.63,3.3c-12.03,13.7-5.98,34.95,11.48,40.26
		c13.5,4.11,27.76-4.1,31.23-17.96c0.3-1.21,0.57-2.43,0.88-3.78c3.69-0.33,7.22-0.14,10.61,0.51c1.89,0.36,3.55,1.97,5.15,2.92
		c-0.57,16.06-15.08,31.64-32.14,35.25c-18.18,3.85-37.68-4.94-46.27-22.83C649.06-338.83,656.01-359.29,667.24-368.24z"></path><path _ngcontent-motorbikeApp-c42="" d="M856.87-357.78c1.46,0,2.87-0.01,4.29,0c1.2,0.01,2.13,0.55,2.87,1.48c1.29,1.61,2.6,3.21,4.03,4.96
		c-0.52,1.39-0.98,2.72-1.51,4.02c-6.31,15.47,4.7,33.74,23.04,34.09c11.87,0.22,22.16-8.25,24.72-20.09
		c2.39-11.09-3.66-22.84-14.24-27.61c-1.59-0.72-3.25-1.3-4.8-1.91c-1.07-1.87-0.81-3.42,0.61-4.86c1.01-1.02,1.93-2.13,2.93-3.17
		c2.72-2.85,5.06-3.34,8.53-1.51c10.16,5.35,16.89,13.59,19.71,24.7c5.22,20.54-6.85,40.96-27.29,46.56
		c-21.11,5.79-42.98-7.55-47.52-28.97c-1.93-9.1-0.74-17.77,3.56-26.01C856.06-356.66,856.46-357.15,856.87-357.78z"></path><path _ngcontent-motorbikeApp-c42="" d="M730.63-339.23c-6-0.29-11.42-0.58-16.84-0.8c-2.14-0.09-4-0.69-5.77-1.97c-11.55-8.28-23.14-16.51-34.76-24.7
		c-1.53-1.08-2.47-2.33-2.77-4.22c-0.4-2.52-0.81-5.07-1.59-7.48c-1.16-3.61-0.67-6.88,1.26-10.04c0.41-0.68,0.68-1.44,1.08-2.13
		c0.15-0.26,0.46-0.41,1.01-0.87c5.38,1.67,10.95,3.01,15.83,6.8c13.88,10.77,28,21.22,42.1,31.7c2.08,1.54,3.32,3.26,3.57,5.84
		c0.12,1.16,0.15,2.2-0.44,3.22C732.44-342.39,731.58-340.88,730.63-339.23z"></path><path _ngcontent-motorbikeApp-c42="" d="M892.57-352.89c10.03,4.41,13.89,11.71,10.84,19.78c-2.76,7.29-10.46,11.08-17.9,8.8c-8.58-2.63-11.78-10.17-8.93-21.02
		c-1.79-3.01-8.89-11.82-12.36-15.3c-2.26-0.21-4.62-0.43-7.32-0.68c0.19-0.78,0.16-1.46,0.48-1.87c2.86-3.66,6.09-6.97,9.77-9.82
		c0.35-0.27,0.83-0.37,1.54-0.66c0.63,1.1,1.32,2.13,1.84,3.24c4.6,9.83,9.17,19.67,13.76,29.5c0.61,1.3,1.2,2.62,1.97,3.82
		c0.94,1.47,2.78,1.84,4.21,1.02c1.25-0.71,1.84-2.16,1.35-3.73c-0.38-1.21-0.92-2.38-1.46-3.53c-4.58-9.83-9.19-19.66-13.77-29.49
		c-0.73-1.56-1.36-3.17-2.02-4.71c7.9-5.07,25.57-4.52,32.06,0.02c-1.55,1.12-3.34,1.05-5.05,1.18c-1.54,0.11-2.72,0.67-3.73,1.83
		c-1.69,1.92-3.43,3.79-5.2,5.62c-0.96,0.99-1.37,2.09-1.23,3.46C891.81-361.3,892.18-357.17,892.57-352.89z"></path><path _ngcontent-motorbikeApp-c42="" d="M690.79-350.4c5.97,4.25,11.8,8.39,17.55,12.48c0.52,3.33-0.76,5.84-2.6,8.11c-1.97,2.42-4.49,4.02-7.63,4.53
		c-6.93,1.12-12.95-2.38-15.11-8.78C680.82-340.55,683.66-346.79,690.79-350.4z"></path><path _ngcontent-motorbikeApp-c42="" d="M651.55-395.01c0.48-1.3,0.92-2.62,1.45-3.9c1.1-2.65,2.36-5.24,3.36-7.92c0.83-2.21,0.21-3.66-1.88-4.78
		c-1.4-0.75-2.91-1.29-4.38-1.91c-0.98-0.42-1.97-0.81-3-1.24c0.56-1.22,1.46-0.84,2.13-0.85c12.12-0.19,24.24-0.32,36.36-0.51
		c1.31-0.02,2.54,0.01,3.66,0.76c5.01,3.36,10.03,6.71,14.97,10.01c-0.34,1.3-1.04,0.75-1.53,0.66c-8.15-1.51-16.3-3.04-24.45-4.57
		c-0.63-0.12-1.26-0.23-1.87-0.4c-3.01-0.81-5.45-0.11-7.84,2.03c-4.27,3.83-8.83,7.34-13.28,10.96c-0.97,0.79-2.01,1.49-3.02,2.23
		C652.02-394.62,651.78-394.82,651.55-395.01z"></path><path _ngcontent-motorbikeApp-c42="" d="M721.44-414.03c14.67,3.45,28.94,4.87,43.09,7.06c0.22,0.03,0.38,0.4,0.75,0.81c-4.08,0.61-8,1.22-11.93,1.77
		c-3.95,0.55-7.91,0.99-11.86,1.56c-1.47,0.21-2.83,0.14-4.19-0.5c-4.04-1.91-8.08-3.79-12.14-5.66
		C723.31-409.84,722.13-411.21,721.44-414.03z"></path><path _ngcontent-motorbikeApp-c42="" d="M856.85-427.13c3.17,3.64,5.96,6.84,8.6,10.79c-1,0.18-1.55,0.4-2.09,0.37c-2.07-0.12-4.13-0.42-6.19-0.45
		c-2.75-0.03-5.02-0.76-6.11-3.63c-1.56,0-2.99,0.08-4.4-0.03c-1.09-0.08-2.21-0.28-3.25-0.63c-1.13-0.39-1.79-1.27-1.77-2.55
		c0.03-1.28,0.71-2.22,1.87-2.46c2.8-0.57,5.62-1.04,8.46-1.38C853.54-427.29,855.14-427.13,856.85-427.13z"></path><path _ngcontent-motorbikeApp-c42="" d="M734.01-338.32c0.73-1.33,1.39-2.55,1.96-3.59c1.37-0.35,2.05,0.41,2.8,0.91c6.59,4.44,13.17,8.9,19.75,13.36
		c0.79,0.53,1.57,1.08,2.28,1.71c0.62,0.56,0.77,2.15,0.13,2.61c-0.55,0.39-1.44,0.55-2.12,0.44c-0.74-0.12-1.44-0.63-2.11-1.05
		c-6.9-4.26-13.79-8.53-20.67-12.81C735.36-337.16,734.79-337.71,734.01-338.32z"></path><path _ngcontent-motorbikeApp-c42="" d="M789.87-359.52c0.04,2.33-1.87,4.29-4.18,4.27c-2.27-0.02-4.26-2.07-4.17-4.31c0.08-2.05,1.93-3.93,3.97-4.05
		C787.75-363.74,789.83-361.8,789.87-359.52z"></path></g></svg>