<svg _ngcontent-motorbikeApp-c42="" version="1.1" x="0px" y="0px" viewBox="0 0 125.5 75" xml:space="preserve" class="pointer fill-grey ng-star-inserted" style="enable-background: new 0 0 125.5 75;"><g _ngcontent-motorbikeApp-c42=""><path _ngcontent-motorbikeApp-c42="" d="M18.8,8.4c1.7,4.5,3.3,8.9,5,13.4c0.3,0.8,0.7,1,1.5,1c1.4-0.1,2.9,0,4.3,0c0.3,0,0.6,0,1.2,0
		C27.2,16,24.2,9.2,19,3.6c0,0-0.1,0-0.2,0c-0.4,0-0.9,0-0.9,0c-1.3,0.8-1.9,1.8-1.7,3.1C18,6.6,18.1,6.6,18.8,8.4z" class="st0"></path><path _ngcontent-motorbikeApp-c42="" d="M11.3,25.6c-0.2,0.2-0.4,0.4-0.6,0.6c-1,1-2.1,2-3,3.1c-0.3,0.3-0.9,0.7-0.2,1.2c0.6,0.4,0.9-0.1,1.3-0.5
		c0.8-0.9,2.9-2.8,4-3.4c0.5-0.3,1.2-0.3,1.7-0.1c7,2.5,14,5,21,7.4c3.5,1.2,6.5,3.5,9.6,5.5c1.3,0.8,2.6,1.3,4.2,1.3
		c-0.4-0.3-0.8-0.6-1.2-0.9c-2.9-1.9-5.7-3.8-8.7-5.5c-1.9-1.1-4-1.8-6-2.5c-4.3-1.6-8.6-3.1-12.9-4.6c-0.3-0.1-0.5-0.3-0.9-0.6
		c1-0.8,1.8-1.6,2.7-2.3c1-0.7,0.6-1.4,0.1-2.9c-0.6-1.8-1.1-3.2-1.6-4.5c-0.5-1.3-0.8-1.5-1.7-1.2c0.7,2,1.4,3.9,2.1,5.8
		c0.6,1.6,0.5,1.5-0.6,2.7c-1.7,1.8-3.3,2.1-5.6,1.1c-3.5-1.5-7.1-2.6-10.7-3.9c-1.5-0.5-1.6-1.8-2.1-3c-0.1-0.2,0.2-0.6,0.4-0.9
		c0.4-0.5,2.1-2.2,3.1-3.1h14.1c0-1-0.3-1.3-1.2-1.3c-4,0-8.1,0-12.1,0c-0.3,0-0.6,0.1-0.8,0.2c-0.1,0-0.2,0-0.3,0.1
		c-0.3,0.2-0.5,0.4-0.7,0.6c-0.7,0.6-1.7,1.6-3.4,3.2c-0.3,0.3-0.4,0.9-0.3,1.3c0.3,0.7,0.6,1.6,0.8,2.1c0.4,1.1,1.2,1.6,2.2,2
		c2.3,0.8,3.7,1.4,6,2.2C10,25.1,11.1,25.5,11.3,25.6z" class="st0"></path><path _ngcontent-motorbikeApp-c42="" d="M36,62.4c-2.1,3.7-6.6,5.6-10.5,4.3c-4.4-1.5-7-5.4-6.4-9.8c0.1-0.9-0.1-1.3-1-1.5c-0.7-0.1-1.4-0.4-2.1-0.6
		c-0.7-0.2-1-0.1-1.2,0.7c-1.3,7.5,3.5,14.4,11,15.7c0.1,0,2.3,0.2,3.4,0.2c0.4,0,0.8,0,1.2-0.1c5.3-1.2,8.8-4.4,10.6-9.7
		c-1.5-0.4-2.8-0.8-4.2-1.2C36.6,61.2,36.3,61.8,36,62.4z" class="st0"></path><path _ngcontent-motorbikeApp-c42="" d="M55.5,42.9c-0.4,0-0.7,0-1.4,0.1c0.5,0.4,0.8,0.7,1,0.9c3,2.5,5.9,5.2,8.4,8.3c0.6,0.7,1.3,1.3,2,1.8
		c2.6,1.7,5.5,2.5,8.5,2.6c4.3,0.2,8.5,0.1,12.8,0.1c0.4,0,0.9-0.2,1.1-0.5c2.5-3.8,4.9-7.6,7.4-11.4c0.7-1.1,0.5-1.8-0.6-2.5
		c-3.5-2.1-6.9-4.3-10.5-6.3c-1.8-1-3.3-2.2-3.4-4.5c-0.2,0.2-0.4,0.4-0.5,0.7c-0.5,1.5-0.3,2.9,0.4,4.3c0.3,0.7,0.4,1.2,0.1,1.9
		c-0.6,1.1-1,2.3-1.5,3.4c-0.7,1.6-1.9,2.6-3.5,3.1c-2.2,0.8-4.4,0.2-6.5-0.7c-1.8-0.8-3.7-1.3-5.7-1.2C60.9,43,58.2,42.9,55.5,42.9
		z" class="st0"></path><path _ngcontent-motorbikeApp-c42="" d="M41.7,34.2c3.5,2.5,7,4.9,10.4,7.3c0.3,0.2,0.7,0.3,1,0.3c4.3,0,8.6,0,12.9,0c1.1,0,1.7-0.6,1.7-1.7
		c0-3.2-2.8-5.9-6.2-6c-6.4,0-12.8,0-19.2,0C42.2,34.1,42,34.2,41.7,34.2z" class="st0"></path><path _ngcontent-motorbikeApp-c42="" d="M58.1,60.3c-3.1,0-6.3-0.1-9.4,0.1c-3,0.2-5.8-0.5-8.6-1.3c-4.6-1.3-9.1-2.5-13.7-3.8
		c-6-1.7-12.1-3.3-18.1-4.9c-0.7-0.2-1-0.6-0.8-1.2c0.5-2,1.1-4.1,1.7-6.1c0.2-0.5,0.4-0.8,1-0.6c1.9,0.5,3.8,1,5.7,1.5
		c4.9,1.3,9.7,2.7,14.6,4c1.7,0.4,3.1,1.1,4.3,2.4c2.5,2.5,5,4.9,7.6,7.2c0.4,0.4,1.1,0.7,1.7,0.7c2.9,0.1,5.8,0,8.7,0
		c0.3,0,0.6,0,0.9-0.1c-0.1-0.9-0.5-1.2-1.3-1.2c-2.6,0-5.1,0-7.7,0c-0.8,0-1.4-0.2-2-0.8c-2.5-2.4-5.1-4.7-7.5-7.2
		c-1.2-1.2-2.6-1.8-4.1-2.2c-3.8-1-7.7-2-11.5-3.1c-3-0.8-6.1-1.7-9.1-2.5c-1.5-0.4-2.1,0-2.5,1.5c-0.6,2.1-1.1,4.3-1.7,6.4
		c-0.4,1.4-0.1,2,1.4,2.4c1.2,0.4,2.5,0.7,3.7,1c4.5,1.3,9.1,2.5,13.6,3.8c5.4,1.5,10.8,2.9,16.1,4.4c2.1,0.6,4.1,1,6.2,1
		c3.8-0.1,7.7,0,11.5,0h1.2C59.6,60.6,59,60.3,58.1,60.3z" class="st0"></path><path _ngcontent-motorbikeApp-c42="" d="M97.6,21.8c2.6,2.4,5.2,4.7,7.8,7.1c0.2,0.2,0.4,0.4,0.6,0.5c0.2,0.1,0.6,0,0.7-0.2c0.1-0.1,0.1-0.5,0-0.7
		c-0.1-0.2-0.3-0.3-0.5-0.5c-3.4-3.1-6.7-6.1-10.1-9.2c-1-0.9-2-1.8-3.5-1.9c-0.1,0.1-0.2,0.2-0.3,0.3c0.5,0.4,1,0.8,1.5,1.2
		c1,0.7,1.4,1.7,1.2,2.9c0,0.3,0,0.6,0,0.9c0.1,0.7-0.2,1.1-0.8,1.4c-1.4,0.6-2.7,1.3-4.1,2c-2,0.9-4.1,1.7-6,2.8
		c-2.8,1.6-2.8,4.4-0.1,6c3.6,2.2,7.1,4.3,10.7,6.5c2.3,1.4,2.7,2.5,1.2,4.8c-1.3,2-2.6,4.1-4,6.1c-0.2,0.3-0.3,0.6-0.4,0.8
		c0.1,0.1,0.1,0.2,0.2,0.3c0.4-0.1,1.1-0.2,1.3-0.5c1.5-2.3,3.1-4.6,4.5-7c1.2-2.1,0.7-4-1.3-5.3c-3.7-2.3-7.5-4.6-11.3-6.9
		c-2-1.2-2-2.7,0-4c0.2-0.2,0.5-0.3,0.7-0.4c3.1-1.5,6.3-2.9,9.4-4.4c0.5-0.3,1-0.3,1.5,0.1c1.5,1.1,3,2.1,4.4,3.2
		c2.2,1.8,4.3,3.8,6.5,5.6c0.3,0.2,0.8,0.2,1.2,0.3c-0.1-0.4-0.2-0.8-0.3-1.2c0-0.1-0.2-0.2-0.3-0.3c-3.3-3.2-6.9-6.1-10.7-8.7
		c-0.9-0.6-1.1-1.6-0.4-2.7C97,21.4,97.3,21.6,97.6,21.8z" class="st0"></path><path _ngcontent-motorbikeApp-c42="" d="M26.3,24c-2.1-0.2-3.2,1.1-4.7,2.5c6.3,2.3,12.3,4.4,18.4,6.6c-0.1-0.2-0.1-0.5-0.2-0.8
		c-1.1-2.5-2.3-4.9-3.4-7.4C36,24.3,35.7,24,35,24C32.1,24.1,29.2,24.2,26.3,24z" class="st0"></path><path _ngcontent-motorbikeApp-c42="" d="M40.9,32.2c0.2,0.3,0.7,0.7,1.1,0.7c1,0.1,2.1,0,3.1,0c0.8,0,1.7,0,2.5,0c1.6,0,1.9-0.4,1.6-2
		c-0.5-2.3-2.1-4-3.6-5.7c-2.3-2.6-5.1-2.4-8-1.7c-0.5,0.1-0.7,0.4-0.4,1C38.5,27,39.7,29.6,40.9,32.2z" class="st0"></path><path _ngcontent-motorbikeApp-c42="" d="M33.9,60.7c0.2-0.6,0.2-0.8-0.4-1c-3.5-0.9-7-1.9-10.5-2.9c-0.8-0.2-1,0-1.1,0.8c-0.3,3.5,2.7,6.8,6.2,6.8
		C30.6,64.3,33,62.8,33.9,60.7z" class="st0"></path><path _ngcontent-motorbikeApp-c42="" d="M43.4,55.2c0.4,0.4,1.1,0.6,1.6,0.6c2.1,0.1,4.2,0,6.4,0c0.3,0,0.6,0,1.2-0.1c-0.9-1.4-1.2-2.9-3-3.4
		c-3.2-1-6.4-2.1-9.6-3.1c-1.3-0.4-2.6-0.9-3.9-1.3C38.5,50.5,40.9,52.9,43.4,55.2z" class="st0"></path><path _ngcontent-motorbikeApp-c42="" d="M85.3,8.3c1.1,1.4,2.2,2.8,3.2,4.3c0.6,0.9,1.5,1.4,2.5,1.7c1.5,0.4,2.9,1,4.3,1.4c1.5,0.4,3.1,0.8,4.6,1.1
		c0-0.1,0.1-0.1,0.1-0.2c-0.1-0.1-0.2-0.3-0.3-0.4c-3.3-2.5-6.6-5.1-10-7.5c-1.1-0.8-2.4-1.5-3.6-2.2c-0.3-0.2-0.8-0.1-1.1,0.1
		c-0.2,0.1-0.2,0.7-0.2,1C84.9,7.8,85.1,8.1,85.3,8.3z" class="st0"></path><path _ngcontent-motorbikeApp-c42="" d="M78.9,23.1c-0.3,0.2-0.4,0.8-0.5,1.3c0,0.2,0.3,0.5,0.5,0.8c0.2-0.2,0.6-0.3,0.7-0.6c0.2-1,1-1.4,1.8-1.8
		c0.8-0.4,1.4-0.4,2,0.4c0.7,0.9,1.5,1.7,2.4,2.5c0.2,0.2,0.7,0.5,0.9,0.4c1.3-0.5,2.5-1.1,3.9-1.8c-2.1-2-4-3.8-5.9-5.6
		c0.1-0.1,0,0,0,0.1c-0.3,1.6-1.3,2.2-2.8,2.6C80.8,21.6,79.9,22.4,78.9,23.1z" class="st0"></path><path _ngcontent-motorbikeApp-c42="" d="M76,20c2,0,4,0,6,0c1.1,0,1.6-0.5,1.6-1.4c0-0.8-0.6-1.4-1.6-1.4c-1,0-2,0-2.9,0c-1,0-2,0-2.9,0
		c-1,0-1.6,0.6-1.7,1.4C74.3,19.4,75,20,76,20z" class="st0"></path><path _ngcontent-motorbikeApp-c42="" d="M79.7,15.1c0.2-0.4,0.5-0.7,0.8-1.1c0.1,0,0.2,0,0.2,0.1c0.1,0.6,0.1,1.3,0.2,2.1c0.2-0.3,0.3-0.4,0.4-0.5
		c0.5-2.4-0.3-4.5-1.8-6.4c-0.1-0.2-0.8-0.1-1,0c-1.4,1.1-1.3,4.6,0,5.8C79,15.7,79.4,15.7,79.7,15.1z" class="st0"></path><path _ngcontent-motorbikeApp-c42="" d="M10.2,11.8c1.3-0.5,2.6-1.1,3.9-1.7c2.3-1,2.3-0.9,3.3,1.4c0.3,0.8,0.8,0.9,1.5,0.4c-0.5-1.3-0.9-2.5-1.4-3.7
		c-0.1-0.2-0.6-0.4-0.9-0.3c-0.9,0.2-1.8,0.5-2.6,0.8c-2.2,1-4.4,2-6.7,3c0.1,0.2,0.1,0.4,0.2,0.6C8.5,12.2,9.4,12.1,10.2,11.8z" class="st0"></path><path _ngcontent-motorbikeApp-c42="" d="M95.6,61c0.2,0,0.3,0,0.5,0c0.6-0.1,1.1-0.4,1.5-1c1.7-2.6,4-4.6,6.6-6.1c3.6-2.2,7.6-3.2,11.7-3.4
		c0.9,0,7.6-0.1,8.1-0.1c0.1-0.4-0.2-1.2-0.5-1.5c-1.3-1.3-2.9-2.8-4.5-4c-1.2-0.9-2.5-1.6-3.7-2.1c-1.1-0.5-5.2-1.8-6.3-2.1
		c0.3-0.6,0.2-1.3-0.2-2c-0.1-0.1,0.1-0.7,0.4-0.8c1.4-0.8,2.1-2.1,1.8-3.7c-0.3-1.9-0.7-3.8-1.5-5.6c-1.4-3.4-3.8-6.2-6.3-8.9
		c-0.7-0.7-1.4-0.8-2.4-0.6c0.3,0.3,0.5,0.6,0.7,0.8c1.7,2,3.4,3.8,4.9,5.9c1.8,2.5,3.1,5.2,3.3,8.3c0.1,2.4-2.3,4.1-4.4,3
		c-4.5-2.3-9.4-3.7-14.3-4.8c-1.4-0.3-2.9-0.6-4.4-0.8c-0.3,0-0.6,0.3-1,0.5c0.2,0.3,0.4,0.6,0.7,0.8c0.1,0.1,0.4,0.1,0.6,0.1
		c2.7,0.6,5.5,1,8.2,1.7c4.1,1.1,8.1,2.5,11.7,4.8c0.8,0.5,0.9,0.9,0.3,1.7c-1.2,1.5-2.3,3-3.5,4.5c-0.1,0.2-0.3,0.3-0.4,0.5
		c-1.8,2.4-3.7,4.8-5.5,7.2c-0.2,0.3-0.4,0.6-0.6,0.9c0.8,0.6,1.3,0.4,1.8-0.3c2.2-2.9,4.4-5.8,6.6-8.7c0.1-0.1,0.1-0.2,0.2-0.3
		c0.3-0.4,0.6-0.7,0.8-1.1c0.4-0.5,0.7-0.9,1.4-0.7c3.3,0.9,6.4,2.3,8.9,4.7c0.2,0.1,0.3,0.3,0.5,0.5c0.2,0.2,0.7,0.9,0.6,0.9
		c-1.5,0.1-3.1,0.3-4.5,0.4c-4.5,0.5-8.6,2-12.1,4.9c-1.7,1.3-3.1,3-4.5,4.6c-0.4,0.4-0.7,0.7-1,0.7c-0.2,0.1-0.4,0.1-0.6,0
		c-0.2-0.1-0.4-0.2-0.6-0.3c0.2-0.3,0.4-0.5,0.6-0.8c0.2-0.3,0.4-0.5,0.6-0.8c0.5-0.7,1-1.3,1.5-2c-0.4-0.1-0.8-0.2-1.2-0.3
		c-0.2-0.1-0.4-0.1-0.6-0.2c-0.7-0.2-1.3-0.3-2-0.5c-1-0.2-2.2-0.7-3-0.4c-0.8,0.4-1.2,1.6-1.8,2.5c-0.4,0.7-1,1-1.8,1
		c-3.5,0-7,0.1-10.5,0c-2-0.1-4.1-0.3-6.1-0.7c-2.7-0.6-5.4-1.6-7.3-3.9c-3-3.8-6.5-7-10.3-9.9c-0.4-0.3-0.9-0.5-1.3-0.7
		c-2.4-0.6-4.9-1.2-7.4-1.8c-5-1.3-10-2.6-15.1-3.8c-4.8-1.2-9.6-2.4-14.4-3.5c-2.7-0.7-5.4-1.3-8.4-2.1c0.1,0.7,0.1,1.3,0.3,1.7
		c0.7,1.4,1.5,2.7,2.2,4.1c0.2,0.4,0.7,0.8,1.1,0.9c3.1,1.1,6.2,2.1,9.3,3.1c5.3,1.8,10.6,3.6,16,5.3c5.3,1.8,10.5,3.5,15.8,5.2
		c0.4,0.1,0.9,0.5,1.1,0.9c0.8,1.3,1.6,2.6,2.3,4c0.6,1.2,1.4,1.7,2.6,1.5c1.1-0.2,1.9,0.2,2.6,1c0.9,1,1.9,1.9,2.8,2.9
		c0.6,0.7,1.4,1,2.3,1c8.5,0,17,0,25.5,0c1.1,0,2-0.3,2.5-1.2c0.4-0.6,0.9-0.8,1.6-0.8C94.7,61,95.1,61,95.6,61
		C95.6,61,95.6,61,95.6,61z M112.2,43.1c-1.2-0.5-2.4-0.9-3.5-1.3c6.2,0.9,9.1,2.9,11.3,4.9c0.2,0.2,2,1.9,2.2,2.3
		c-0.7,0-1.9,0-2.5,0c0,0,0-0.1,0-0.1C117.7,46.3,115.2,44.4,112.2,43.1z" class="st0"></path><path _ngcontent-motorbikeApp-c42="" d="M123.4,51.7c-0.3-0.2-0.7-0.3-1.2-0.3c-0.7,0-1.5,0-2.3,0.1c1.1,2,1.7,4.2,1.7,6.7c0,6.2-4.1,11.5-9.6,13
		c-0.2,0.1-0.4,0.2-0.6,0.2c1.3,0,2.6-0.1,3.9-0.5c5.5-1.6,9.5-6.8,9.5-13C124.8,55.7,124.3,53.6,123.4,51.7z" class="st0"></path><path _ngcontent-motorbikeApp-c42="" d="M121,58.1c0-1.9-0.4-3.7-1-5.3c-0.1-0.2-0.2-0.3-0.2-0.5c-0.3-0.5-0.9-0.8-1.7-0.7c-1.2,0-2.4,0-3.7,0.2
		c2.5,3.5,3.1,7,1.1,10.7c-1,2-2.7,3.3-4.8,4.1c-3.9,1.5-9.7,0.1-12-6.2c-0.5,1.2-1.3,1.6-2.3,1.8c-0.2,0-0.4,0-0.6,0
		c-0.3,0-0.7,0-1,0c0.8,2.7,2.2,4.7,4.2,6.3c1.5,1.3,3.3,2.2,5.2,2.7c0.6,0.1,1.6,0.2,2.5,0.3c0.1,0,0.1,0,0.2,0
		c0.4,0,0.8,0.1,1.2,0.1C115.2,71.5,121,65.5,121,58.1z" class="st0"></path><path _ngcontent-motorbikeApp-c42="" d="M110.1,52.6c-3,0.9-5.8,2.3-8.2,4.4c-0.4,0.3-0.6,0.9-0.6,1.4c0.1,3.4,3,6,6.4,6c3.4-0.1,6.2-3,6.2-6.3
		c0-2-1-4-2.6-5.1C110.9,52.6,110.4,52.5,110.1,52.6z" class="st0"></path></g></svg>